<svg width="89" height="72" viewBox="0 0 89 72" fill="none" xmlns="http://www.w3.org/2000/svg">
<path opacity="0.5" d="M42.3428 0.960938H77.4181C83.58 0.960938 88.6359 6.01684 88.6359 12.1787V52.863C88.6359 59.0248 83.58 64.0807 77.4181 64.0807H42.3428V0.960938Z" fill="url(#paint0_linear_1198_1055)"/>
<path opacity="0.6" d="M46.5303 5.14746H73.1528C79.3147 5.14746 84.3706 10.2034 84.3706 16.3652V36.0359H46.5303V5.14746Z" fill="#6156D9"/>
<path opacity="0.5" d="M44.3182 71.7435H10.7438C4.81891 71.7435 0 66.9246 0 60.9997V22.1325C0 16.2076 4.81891 11.3887 10.7438 11.3887H44.3182V71.7435Z" fill="url(#paint1_linear_1198_1055)"/>
<path opacity="0.6" d="M36.2603 71.0324H10.7438C4.81891 71.0324 0 66.2135 0 60.2886V41.5659H36.2603V71.0324Z" fill="url(#paint2_linear_1198_1055)"/>
<path d="M67.149 64.1594H21.4089C15.879 64.1594 11.4551 59.6565 11.4551 54.2056V23.0012C11.4551 17.4713 15.958 13.0474 21.4089 13.0474H67.149C72.6789 13.0474 77.1028 17.5503 77.1028 23.0012V54.2056C77.1818 59.7355 72.6789 64.1594 67.149 64.1594Z" fill="#6156D9"/>
<path d="M63.2777 39.1961V48.2809C63.2777 52.7048 59.6437 56.3388 55.2198 56.3388H33.4162C28.9923 56.3388 25.3584 52.7048 25.3584 48.2809V39.0381C25.3584 37.6161 26.5434 36.4312 27.9653 36.4312C29.3873 36.4312 30.5723 37.6161 30.5723 39.0381V48.2019C30.5723 49.7819 31.8363 51.1249 33.4162 51.1249H55.2198C56.7998 51.1249 58.1428 49.8609 58.1428 48.2019V39.1961C58.1428 37.7741 59.3278 36.5891 60.7497 36.5891C62.0927 36.5891 63.2777 37.7741 63.2777 39.1961Z" fill="white"/>
<path d="M53.1653 29.7955C53.1653 30.5065 52.9283 31.1385 52.3753 31.6124C51.9013 32.0864 51.2693 32.4024 50.5583 32.4024C49.9263 32.4024 49.2154 32.0864 48.7414 31.6124L46.7664 29.7165V46.0692C46.7664 47.4911 45.5814 48.6761 44.1595 48.6761C42.7375 48.6761 41.5525 47.4911 41.5525 46.0692V29.7165L39.8145 31.6124C39.3405 32.0864 38.7086 32.4024 37.9976 32.4024C37.2866 32.4024 36.6546 32.1654 36.1806 31.6124C35.7066 31.1385 35.3906 30.5065 35.3906 29.7955C35.3906 29.0845 35.6276 28.4525 36.1806 27.9785L42.5005 21.6586C42.9745 21.1846 43.6065 20.8687 44.3175 20.8687C45.0284 20.8687 45.6604 21.1846 46.1344 21.6586L52.4543 27.9785C52.9283 28.5315 53.1653 29.1635 53.1653 29.7955Z" fill="white"/>
<defs>
<linearGradient id="paint0_linear_1198_1055" x1="42.3428" y1="48.3008" x2="90.6367" y2="45.4752" gradientUnits="userSpaceOnUse">
<stop offset="0.161458" stop-color="#6156D9"/>
<stop offset="0.869792" stop-color="#8A64DF"/>
</linearGradient>
<linearGradient id="paint1_linear_1198_1055" x1="-3.87345e-07" y1="56.6548" x2="46.2332" y2="53.9466" gradientUnits="userSpaceOnUse">
<stop offset="0.161458" stop-color="#6156D9"/>
<stop offset="0.869792" stop-color="#8A64DF"/>
</linearGradient>
<linearGradient id="paint2_linear_1198_1055" x1="-3.16919e-07" y1="63.6657" x2="37.5947" y2="59.9752" gradientUnits="userSpaceOnUse">
<stop offset="0.161458" stop-color="#6156D9"/>
<stop offset="0.869792" stop-color="#8A64DF"/>
</linearGradient>
</defs>
</svg>
