<svg width="228" height="75" viewBox="0 0 228 75" fill="none" xmlns="http://www.w3.org/2000/svg">
<path d="M3.06031 20.3946C13.7 14.2485 24.2287 8.14995 35.1062 1.86132C33.8694 1.18019 33.029 0.720817 32.1569 0.245605C21.3745 6.47087 10.719 12.6328 0.174438 18.7155C0.174438 27.5386 0.174438 36.0607 0.174438 44.6779C1.07826 45.0897 1.95036 45.4699 3.06031 45.9768C3.06031 37.2962 3.06031 28.9008 3.06031 20.3946Z" fill="url(#paint0_linear_756_645)"/>
<path d="M0 52.2812C0.0634258 53.6277 0.110995 54.5939 0.158565 55.7345C10.8458 61.928 21.5172 68.1216 32.1569 74.2835C39.7204 69.9116 47.0937 65.6505 54.4669 61.3895C54.4669 60.2806 54.4669 59.3461 54.4669 58.0313C46.9034 62.4191 39.6253 66.6326 32.1569 70.9571C21.4221 64.7318 10.8617 58.6016 0 52.2812Z" fill="url(#paint1_linear_756_645)"/>
<path d="M42.2099 6.04297C41.2743 6.61322 40.5449 7.05675 39.435 7.73789C46.9351 12.0782 54.1022 16.2442 61.3962 20.4577C61.3962 22.9922 61.3962 25.4316 61.3962 27.8869C61.3962 30.3421 61.3962 32.7815 61.3962 35.2368C61.3962 37.692 61.3962 40.1315 61.3962 42.5867C61.3962 45.042 61.3962 47.4814 61.3962 49.9366C61.412 52.3285 61.4438 54.7204 61.4596 57.5084C62.633 56.7797 63.3783 56.3203 64.1394 55.861C64.1394 43.4104 64.1394 31.0866 64.1394 18.7311C56.7503 14.4384 49.4721 10.2248 42.2099 6.04297Z" fill="url(#paint2_linear_756_645)"/>
<path d="M16.0468 28.2039C16.0468 33.2728 16.0468 38.2467 16.0468 43.4898C14.0489 42.381 12.3998 41.4781 10.7507 40.5594C10.7507 35.3162 10.7507 30.2156 10.7507 24.9883C17.6483 20.9965 24.53 16.9889 31.6654 12.8545C30.603 12.2526 29.7943 11.7932 28.8905 11.2705C21.8502 15.3415 14.8893 19.3649 7.9917 23.3409C7.9917 29.7879 7.9917 35.9973 7.9917 42.2701C16.0626 46.8005 24.0543 51.2675 32.0777 55.7661C36.4699 53.2633 40.7828 50.8081 45.3654 48.2103C45.3654 50.6814 45.3654 52.7248 45.3654 54.7207C40.7828 57.2234 36.2955 59.6629 31.713 62.1498C24.7995 58.1422 18.0923 54.2454 11.0837 50.1903C11.0837 51.4259 11.0837 52.4713 11.0837 53.3742C18.0447 57.4294 24.8313 61.4053 31.5861 65.3496C37.1676 62.3557 42.5905 59.4569 48.1402 56.4948C48.1402 47.1014 48.1402 37.6764 48.1402 28.1563C43.7797 25.6219 39.4826 23.1191 34.8525 20.4262C36.9297 19.2224 38.6264 18.2403 40.2754 17.2899C44.858 19.9669 49.2661 22.533 53.6583 25.0833C53.6583 33.2411 53.6583 41.1771 53.6583 49.4458C54.7207 48.7964 55.5611 48.2736 56.3222 47.7984C56.3222 39.5931 56.3222 31.562 56.3222 23.4518C50.931 20.3154 45.6191 17.2265 40.1962 14.0901C32.1887 18.763 24.197 23.4359 16.0468 28.2039ZM45.3971 29.677C45.3971 34.7935 45.3971 39.7832 45.3971 44.963C41.1158 47.4182 36.787 49.9052 32.1728 52.5505C27.8281 50.0794 23.5469 47.64 19.1071 45.1214C19.1071 39.9733 19.1071 34.9043 19.1071 29.582C23.2773 27.1901 27.622 24.6873 32.1252 22.1053C36.5492 24.6081 40.9573 27.1426 45.3971 29.677Z" fill="url(#paint3_linear_756_645)"/>
<path d="M41.6707 31.4354C41.528 31.1344 41.1475 30.9918 40.8462 31.1344C40.7669 31.1819 40.6876 31.2294 40.6401 31.3086L32.0617 26.509C32.0459 26.4932 32.03 26.4932 32.0142 26.4932C31.9983 26.4932 31.9824 26.4932 31.9824 26.509H31.9666L23.531 31.5146C23.3565 31.2928 23.0394 31.2136 22.7857 31.3562C22.4844 31.4987 22.3417 31.8789 22.5003 32.1799C22.5954 32.3699 22.7698 32.4967 22.9601 32.5283L23.087 42.3335C23.087 42.3494 23.1028 42.3652 23.1028 42.3969C23.1187 42.4127 23.1187 42.4286 23.1345 42.4286L31.7446 47.2599C31.7129 47.3866 31.7129 47.545 31.7763 47.6717C31.919 47.9886 32.2996 48.1153 32.6008 47.9727C32.9021 47.8301 33.029 47.4817 32.9021 47.1807L41.2585 42.2068C41.2743 42.191 41.2902 42.191 41.306 42.1593C41.3219 42.1435 41.3219 42.1276 41.3219 42.1118L41.195 32.3066C41.2585 32.3066 41.306 32.2907 41.3536 32.2591C41.6866 32.1165 41.8134 31.7522 41.6707 31.4354ZM32.8863 42.7929L30.8884 40.1L34.2499 39.7357L32.8863 42.7929ZM30.8408 40.0525L28.6526 37.1062L30.0004 34.049L33.7425 33.6689L35.7404 36.3776L34.2816 39.6724L30.8408 40.0525ZM27.7012 40.2268C27.6378 40.1 27.5268 39.9892 27.4158 39.9258L28.5575 37.3121L30.6188 40.0684L27.7488 40.3852C27.7488 40.3377 27.7329 40.2743 27.7012 40.2268ZM28.6209 37.0587L26.6388 34.3817L29.937 34.049L28.6209 37.0587ZM30.0797 33.8431L31.253 31.1661C31.4116 31.2294 31.586 31.2294 31.7446 31.1502C31.7763 31.1344 31.808 31.1186 31.8239 31.1027L33.5839 33.4946L30.0797 33.8431ZM33.7901 33.6689L37.0724 33.3362L35.7404 36.3459L33.7901 33.6689ZM35.8673 36.5835L37.5005 38.817C37.3419 38.9437 37.2468 39.1496 37.2626 39.3555L34.4878 39.6565L35.8673 36.5835ZM37.6115 38.7378C37.5798 38.7536 37.5639 38.7695 37.5322 38.7853L35.8673 36.5201L37.2151 33.4629L38.8007 36.9795L38.0713 38.7219C37.9445 38.6586 37.7701 38.6744 37.6115 38.7378ZM37.3736 33.2728L40.5766 32.0215C40.6401 32.1165 40.7194 32.1957 40.8145 32.2591L38.9276 36.726L37.3736 33.2728ZM40.4974 31.8314L37.2626 33.0828L35.7246 31.1344L40.4815 31.673C40.4815 31.7363 40.4974 31.7838 40.4974 31.8314ZM37.0407 33.1303L33.6474 33.4788L31.8715 31.0552C31.9824 30.976 32.0617 30.8493 32.0934 30.7384L35.4392 31.1186L37.0407 33.1303ZM32.1093 30.6433C32.1252 30.5325 32.1093 30.4216 32.0459 30.3107C31.9032 30.0097 31.5226 29.8672 31.2213 30.0097C30.9835 30.1206 30.8566 30.3741 30.8725 30.6117L29.0173 30.9126L32.0142 26.7624L35.3599 30.9918L32.1093 30.6433ZM28.938 31.0235L30.8884 30.7067C30.8884 30.7542 30.9042 30.7859 30.9201 30.8334C30.9835 30.9601 31.0945 31.071 31.2055 31.1344L30.0162 33.8431L26.6547 34.1916L28.938 31.0235ZM26.4327 34.1757L23.6102 32.1957C23.6578 32.1007 23.6737 31.9898 23.6737 31.8789L28.6526 31.0869L26.4327 34.1757ZM26.4644 34.5084L28.5099 37.2646L27.3524 39.8941C27.2097 39.8308 27.0511 39.8308 26.9084 39.8941L25.4813 36.9003L26.4644 34.5084ZM26.8291 39.9575C26.5437 40.1159 26.4327 40.4644 26.5754 40.7653C26.7181 41.0821 27.0987 41.2089 27.3999 41.0663C27.4316 41.0505 27.4634 41.0346 27.4792 41.0188L28.6684 42.6345L23.3407 42.2702L25.4496 37.0587L26.8291 39.9575ZM27.5585 40.9396C27.6853 40.8129 27.7646 40.6228 27.7488 40.4485L30.6346 40.1317L32.6801 42.888L28.7953 42.6187L27.5585 40.9396ZM32.7911 43.0939L32.3313 46.8005C32.252 46.8005 32.1727 46.8164 32.0934 46.8639C32.0459 46.8797 32.0142 46.9114 31.9824 46.9431L28.9697 42.8563L32.7911 43.0939ZM32.5374 46.8164L32.9973 43.0939L35.4074 42.8404L32.6326 46.848C32.6008 46.8322 32.5691 46.8322 32.5374 46.8164ZM33.0607 42.888L34.4719 39.704L37.2785 39.4031C37.2785 39.4664 37.2944 39.514 37.3261 39.5773C37.3736 39.6724 37.4371 39.7357 37.5005 39.7991L35.5501 42.6187L33.0607 42.888ZM37.5798 39.8466C37.7542 39.9416 37.9603 39.9575 38.1506 39.8624C38.4677 39.7199 38.5946 39.3397 38.4519 39.0387C38.3885 38.912 38.2933 38.817 38.1823 38.7536L38.88 37.1062L41.0999 42.0326L35.6929 42.6028L37.5798 39.8466ZM38.9751 36.8528L40.8938 32.3066C40.9255 32.3224 40.9731 32.3224 41.0048 32.3383L41.1316 41.6524L38.9751 36.8528ZM40.5291 31.4829C40.5132 31.5146 40.5132 31.5462 40.4974 31.5779L35.6453 31.0394L32.3947 26.9209L40.5291 31.4829ZM31.6336 26.9367L28.7319 30.976L23.6578 31.7838C23.6578 31.7522 23.6419 31.7363 23.6261 31.7046L31.6336 26.9367ZM23.4992 32.3541L26.3217 34.35L25.3862 36.6785L23.3724 32.465C23.4041 32.4333 23.4517 32.4016 23.4992 32.3541ZM23.2614 32.4967L25.3227 36.8052L23.2773 41.8266L23.1504 32.5283C23.198 32.5283 23.2297 32.5125 23.2614 32.4967ZM23.6261 42.4761L28.827 42.8246L31.9032 46.9906C31.8715 47.0223 31.8556 47.0381 31.8397 47.0698L23.6261 42.4761ZM32.8387 47.0064C32.807 46.9748 32.7753 46.9431 32.7277 46.9114L35.5343 42.8246L40.7986 42.2702L32.8387 47.0064Z" fill="url(#paint4_linear_756_645)"/>
<path d="M213.935 40.9711V21.8359H210.732V44.1867H228V40.9869H213.935V40.9711ZM196.446 21.9785C190.309 21.9785 185.33 26.9524 185.33 33.0826C185.33 39.2128 190.309 44.1867 196.446 44.1867C202.582 44.1867 207.561 39.2128 207.561 33.0826C207.561 26.9524 202.582 21.9785 196.446 21.9785ZM196.446 40.9711C192.085 40.9711 188.533 37.4229 188.533 33.0668C188.533 28.7107 192.085 25.1624 196.446 25.1624C200.806 25.1624 204.358 28.7107 204.358 33.0668C204.358 37.4387 200.806 40.9711 196.446 40.9711ZM177.624 31.4827H171.266C171.06 31.4827 170.584 31.4827 170.394 31.4669C168.808 31.3085 167.555 29.9621 167.555 28.3305C167.555 26.588 168.966 25.1783 170.711 25.1783H177.751C179.384 25.2416 180.7 26.5405 180.795 28.1562H183.998C183.967 27.0633 183.665 26.0653 183.158 25.1783C182.08 23.3091 180.098 22.0419 177.799 21.9785C177.735 21.9785 177.688 21.9785 177.64 21.9785C177.592 21.9785 177.529 21.9785 177.481 21.9785H170.727C168.364 21.9785 166.303 23.2616 165.208 25.1783C164.669 26.1128 164.368 27.1741 164.368 28.3305C164.368 29.471 164.669 30.5481 165.208 31.4827C165.478 31.9421 165.795 32.3698 166.176 32.75C167.333 33.938 168.951 34.6825 170.727 34.6825H177.656C179.4 34.6825 180.811 36.0923 180.811 37.8347C180.811 39.5772 179.4 40.9869 177.656 40.9869H170.742C169.062 40.9869 167.682 39.6722 167.587 38.009H164.384C164.416 39.1019 164.717 40.1157 165.224 40.9869C166.318 42.9036 168.38 44.1867 170.742 44.1867H177.656C180.018 44.1867 182.08 42.9036 183.174 40.9869C183.713 40.0682 184.014 38.9911 184.014 37.8347C184.014 36.6784 183.713 35.6171 183.174 34.6825C182.048 32.7658 179.987 31.4827 177.624 31.4827ZM155.266 32.6866L155.552 32.2906L163.147 21.9785H159.167L153.554 29.5819L153.269 29.9779L152.983 29.5819L147.37 21.9785H143.39L150.985 32.2906L151.271 32.6866L153.253 35.3795L159.722 44.1709H163.702L155.266 32.6866ZM150.303 34.0489L142.835 44.1709H146.815L152.301 36.7417L150.303 34.0489ZM136.556 22.0577V44.06H139.553V22.0577H136.556ZM136.556 22.0577V44.06H139.553V22.0577H136.556ZM136.556 22.0577V44.06H139.553V22.0577H136.556ZM121.587 26.8098V44.1867H124.79V26.8098H121.587ZM113.469 22.0102V25.2099H133.274V22.0102H113.469ZM93.8068 40.9711V33.8905H108.094V30.6907H93.8068V26.8098H90.6038V44.1867H110.234V40.9869H93.8068V40.9711ZM90.6038 22.0102V25.2099H110.234V22.0102H90.6038ZM69.4196 28.7265V44.1709H72.6226V31.9263L69.4196 28.7265ZM83.849 21.9943V36.3457L69.4196 21.9468V26.4613L72.6226 29.6611L83.8331 40.8761L87.0361 44.0758V21.9943H83.849Z" fill="url(#paint5_linear_756_645)"/>
<path d="M73.7801 51.2993C73.7801 51.5527 73.7167 51.7745 73.6057 51.9804C73.3679 52.4081 72.908 52.7091 72.3848 52.7091C72.3214 52.7091 72.2579 52.7091 72.1945 52.6932C72.1311 52.6932 72.0676 52.7091 72.0042 52.7091H69.4196V48.8915H70.1173V49.8895H72.1152C72.4482 49.842 72.7019 49.541 72.7019 49.2083C72.7019 48.8757 72.4641 48.5906 72.1628 48.5272H69.4196V47.7986H72.0201C72.5433 47.7986 73.0032 48.0837 73.241 48.5114C73.241 48.5114 73.241 48.5272 73.2569 48.5272C73.3679 48.7331 73.4313 48.9549 73.4313 49.2083C73.4313 49.4618 73.3679 49.6994 73.2569 49.8895C73.2569 49.8895 73.2569 49.8895 73.2569 49.9053C73.2093 49.9687 73.1776 50.0479 73.1142 50.0954C73.1935 50.1429 73.2569 50.1904 73.3362 50.2538C73.4472 50.3647 73.5582 50.4756 73.6374 50.6181C73.7167 50.8241 73.7801 51.0458 73.7801 51.2993ZM73.0825 51.2993C73.0825 50.9666 72.8446 50.6815 72.5116 50.6181H70.1332V51.9804H72.5275C72.8446 51.9171 73.0825 51.6319 73.0825 51.2993ZM78.9018 51.9963V52.7091H75.0962V47.7827H75.7939V51.9963H78.9018ZM81.9938 47.8144C83.3416 47.8144 84.4357 48.9074 84.4357 50.2538C84.4357 51.6002 83.3416 52.6932 81.9938 52.6932C80.646 52.6932 79.5519 51.6002 79.5519 50.2538C79.5519 48.9074 80.646 47.8144 81.9938 47.8144ZM80.2496 50.2538C80.2496 51.2201 81.0265 51.9963 81.9938 51.9963C82.961 51.9963 83.738 51.2201 83.738 50.2538C83.738 49.2875 82.961 48.5114 81.9938 48.5114C81.0265 48.5114 80.2496 49.2875 80.2496 50.2538ZM89.6049 51.0142H90.366C90.0489 51.9963 89.1292 52.7091 88.0351 52.7091C86.7983 52.7091 85.7835 51.8062 85.6091 50.6181C85.5932 50.5073 85.5774 50.3805 85.5774 50.2538C85.5774 50.1429 85.5932 50.0162 85.6091 49.9053C85.7835 48.7173 86.7983 47.7986 88.0351 47.7986C89.1609 47.7986 90.0964 48.5431 90.3977 49.5727H89.6525C89.3829 48.9549 88.7645 48.5114 88.0351 48.5114C87.1947 48.5114 86.4812 49.1133 86.3226 49.9212C86.3067 50.032 86.2909 50.1429 86.2909 50.2697C86.2909 50.3964 86.3067 50.5073 86.3226 50.634C86.497 51.426 87.1947 52.0279 88.0351 52.0279C88.7169 51.9963 89.3195 51.5844 89.6049 51.0142ZM96.0585 52.6932H95.0595L93.1092 50.7449L92.3956 51.4577V52.6932H91.6979V51.1726L92.3956 50.4756L92.9823 49.8895L95.0595 47.8144H96.0585L93.6166 50.2538L96.0585 52.6932ZM92.3639 50.0004L91.6979 50.6657V47.7986H92.3956V49.9528L92.3639 50.0004ZM100.578 51.0142H101.339C101.022 51.9963 100.102 52.7091 99.0078 52.7091C97.771 52.7091 96.7561 51.8062 96.5817 50.6181C96.5659 50.5073 96.55 50.3805 96.55 50.2538C96.55 50.1429 96.5659 50.0162 96.5817 49.9053C96.7561 48.7173 97.771 47.7986 99.0078 47.7986C100.134 47.7986 101.069 48.5431 101.37 49.5727H100.625C100.356 48.9549 99.7372 48.5114 99.0078 48.5114C98.1674 48.5114 97.4538 49.1133 97.2953 49.9212C97.2794 50.032 97.2636 50.1429 97.2636 50.2697C97.2636 50.3964 97.2794 50.5073 97.2953 50.634C97.4538 51.426 98.1674 52.0279 99.0078 52.0279C99.6896 51.9963 100.292 51.5844 100.578 51.0142ZM106.936 47.8302V52.7091H106.222V50.4439H103.352V52.7091H102.639V47.8302H103.352V49.7311H106.222V47.8302H106.936ZM109.933 49.0499L110.393 49.8895L108.839 52.6932H107.903L109.933 49.0499ZM113.342 52.6932H112.406L110.615 49.4776L110.155 48.6381L110.615 47.7986L111.075 48.6381L113.342 52.6932ZM114.642 52.6932V47.7986H115.356V52.6932H114.642ZM114.642 47.7986V52.6932H115.356V47.7986H114.642ZM115.324 47.8302H114.658V52.6774H115.324V47.8302ZM120.525 47.8144V52.6774L119.811 51.9646L117.338 49.4935L116.624 48.7807V47.7827L119.796 50.9508V47.7827H120.525V47.8144ZM116.64 49.3034L117.354 50.0004V52.6932H116.64V49.3034ZM130.055 50.2697C130.055 50.3964 130.039 50.5073 130.023 50.634C129.864 51.727 128.992 52.5823 127.898 52.7091H125.647V48.8757H126.36V51.9963H127.851C128.58 51.8854 129.167 51.331 129.309 50.634C129.341 50.5231 129.341 50.3964 129.341 50.2697C129.341 50.1588 129.325 50.032 129.309 49.9212C129.23 49.4935 128.976 49.1291 128.643 48.8757C128.374 48.6698 128.025 48.543 127.66 48.5272H125.631V47.8144H127.613C128.834 47.8302 129.849 48.7331 130.023 49.9212C130.039 50.032 130.055 50.1429 130.055 50.2697ZM135.763 47.8144V48.5114H131.434V47.8144H135.763ZM132.132 51.9963H135.747V52.7091H131.418V48.8757H132.132V49.7311H135.271V50.4439H132.132V51.9963ZM139.22 50.6023L138.76 51.4418L136.746 47.7986H137.682L139.22 50.6023ZM142.169 47.7986L139.917 51.8695L139.458 52.7091L138.998 51.8695L139.458 51.03L141.249 47.8144H142.169V47.7986ZM147.719 47.8144V48.5114H143.39V47.8144H147.719ZM144.088 51.9963H147.703V52.7091H143.374V48.8757H144.088V49.7311H147.227V50.4439H144.088V51.9963ZM152.825 51.9963V52.7091H149.019V47.7827H149.733V51.9963H152.825ZM155.917 47.8144C157.264 47.8144 158.358 48.9074 158.358 50.2538C158.358 51.6002 157.264 52.6932 155.917 52.6932C154.569 52.6932 153.475 51.6002 153.475 50.2538C153.475 48.9074 154.569 47.8144 155.917 47.8144ZM154.172 50.2538C154.172 51.2201 154.949 51.9963 155.917 51.9963C156.884 51.9963 157.661 51.2201 157.661 50.2538C157.661 49.2875 156.884 48.5114 155.917 48.5114C154.965 48.5114 154.172 49.2875 154.172 50.2538ZM162.402 50.4122L160.372 50.4281V52.7091H159.659V47.8302H162.354C163.036 47.8619 163.591 48.4322 163.591 49.1291C163.591 49.7944 163.068 50.3647 162.402 50.4122ZM162.893 49.1133C162.893 48.7807 162.624 48.5114 162.291 48.5114C162.275 48.5114 162.259 48.5114 162.243 48.5114C162.243 48.5114 162.243 48.5114 162.227 48.5114H160.356V49.6994H162.275C162.624 49.7152 162.893 49.446 162.893 49.1133ZM169.252 47.8302V52.7091H168.538V49.541L167.571 50.5073L167.333 50.7449L167.064 51.0142L165.573 49.5252L164.86 48.8282V47.8302L167.064 50.032L169.252 47.8302ZM164.891 49.2876L165.605 50.0004V52.7091H164.891V49.2876ZM174.96 47.8144V48.5114H170.631V47.8144H174.96ZM171.345 51.9963H174.96V52.7091H170.631V48.8757H171.345V49.7311H174.485V50.4439H171.345V51.9963ZM180.145 47.8144V52.6774L179.432 51.9646L176.958 49.4935L176.245 48.7807V47.7827L179.416 50.9508V47.7827H180.145V47.8144ZM176.276 49.3034L176.99 50.0004V52.6932H176.276V49.3034ZM181.445 48.5114V47.7986H185.806V48.5114H181.445ZM183.237 52.6932V48.8599H183.951V52.6932H183.237ZM194.606 51.0142H195.367C195.05 51.9963 194.131 52.7091 193.037 52.7091C191.8 52.7091 190.785 51.8062 190.611 50.6181C190.595 50.5073 190.579 50.3805 190.579 50.2538C190.579 50.1429 190.595 50.0162 190.611 49.9053C190.785 48.7173 191.8 47.7986 193.037 47.7986C194.162 47.7986 195.098 48.5431 195.399 49.5727H194.654C194.384 48.9549 193.766 48.5114 193.037 48.5114C192.196 48.5114 191.483 49.1133 191.324 49.9212C191.308 50.032 191.292 50.1429 191.292 50.2697C191.292 50.3964 191.308 50.5073 191.324 50.634C191.483 51.426 192.196 52.0279 193.037 52.0279C193.718 51.9963 194.321 51.5844 194.606 51.0142ZM199.189 47.8144C200.537 47.8144 201.631 48.9074 201.631 50.2538C201.631 51.6002 200.537 52.6932 199.189 52.6932C197.841 52.6932 196.747 51.6002 196.747 50.2538C196.731 48.9074 197.841 47.8144 199.189 47.8144ZM197.445 50.2538C197.445 51.2201 198.222 51.9963 199.189 51.9963C200.156 51.9963 200.933 51.2201 200.933 50.2538C200.933 49.2875 200.156 48.5114 199.189 48.5114C198.222 48.5114 197.445 49.2875 197.445 50.2538ZM207.323 47.8302V52.7091H206.61V49.541L205.642 50.5073L205.405 50.7449L205.135 51.0142L203.645 49.5252L202.931 48.8282V47.8302L205.135 50.032L207.323 47.8302ZM202.963 49.2876L203.676 50.0004V52.7091H202.963V49.2876ZM211.62 50.4122L209.591 50.4281V52.7091H208.877V47.8302H211.573C212.255 47.8619 212.81 48.4322 212.81 49.1291C212.825 49.7944 212.286 50.3647 211.62 50.4122ZM212.112 49.1133C212.112 48.7807 211.842 48.5114 211.509 48.5114C211.493 48.5114 211.478 48.5114 211.462 48.5114C211.462 48.5114 211.462 48.5114 211.446 48.5114H209.575V49.6994H211.493C211.842 49.7152 212.112 49.446 212.112 49.1133ZM214.284 49.0499L214.744 49.8895L213.19 52.6932H212.255L214.284 49.0499ZM217.709 52.6932H216.774L214.982 49.4776L214.522 48.6381L214.982 47.7986L215.442 48.6381L217.709 52.6932ZM222.672 47.8144V52.6774L221.959 51.9646L219.485 49.4935L218.772 48.7807V47.7827L221.943 50.9508V47.7827H222.672V47.8144ZM218.787 49.3034L219.501 50.0004V52.6932H218.787V49.3034ZM228 47.7986L226.256 50.1746L226.208 50.2538L226.145 50.3489L226.129 50.3647V52.6932H225.415V50.3647L225.4 50.333L225.336 50.238L225.289 50.1588L223.544 47.7827H224.416L225.78 49.636L227.144 47.7827H228V47.7986Z" fill="url(#paint6_linear_756_645)"/>
<defs>
<linearGradient id="paint0_linear_756_645" x1="0.168698" y1="23.1177" x2="35.1148" y2="23.1177" gradientUnits="userSpaceOnUse">
<stop stopColor="#09BAE1"/>
<stop offset="0.4622" stopColor="#C518EF"/>
<stop offset="1" stopColor="#0E7FF2"/>
</linearGradient>
<linearGradient id="paint1_linear_756_645" x1="0.00672314" y1="63.2876" x2="54.4545" y2="63.2876" gradientUnits="userSpaceOnUse">
<stop stopColor="#09BAE1"/>
<stop offset="0.4622" stopColor="#C518EF"/>
<stop offset="1" stopColor="#0E7FF2"/>
</linearGradient>
<linearGradient id="paint2_linear_756_645" x1="39.4436" y1="31.7728" x2="64.1539" y2="31.7728" gradientUnits="userSpaceOnUse">
<stop stopColor="#09BAE1"/>
<stop offset="0.4622" stopColor="#C518EF"/>
<stop offset="1" stopColor="#0E7FF2"/>
</linearGradient>
<linearGradient id="paint3_linear_756_645" x1="7.97901" y1="38.3075" x2="56.3381" y2="38.3075" gradientUnits="userSpaceOnUse">
<stop stopColor="#09BAE1"/>
<stop offset="0.4622" stopColor="#C518EF"/>
<stop offset="1" stopColor="#0E7FF2"/>
</linearGradient>
<linearGradient id="paint4_linear_756_645" x1="22.4277" y1="37.2651" x2="41.7329" y2="37.2651" gradientUnits="userSpaceOnUse">
<stop stopColor="#09BAE1"/>
<stop offset="0.4622" stopColor="#C518EF"/>
<stop offset="1" stopColor="#0E7FF2"/>
</linearGradient>
<linearGradient id="paint5_linear_756_645" x1="69.4234" y1="33.0028" x2="228.003" y2="33.0028" gradientUnits="userSpaceOnUse">
<stop stopColor="#09BAE1"/>
<stop offset="0.4622" stopColor="#C518EF"/>
<stop offset="1" stopColor="#0E7FF2"/>
</linearGradient>
<linearGradient id="paint6_linear_756_645" x1="69.4222" y1="50.2384" x2="228.003" y2="50.2384" gradientUnits="userSpaceOnUse">
<stop stopColor="#09BAE1"/>
<stop offset="0.4622" stopColor="#C518EF"/>
<stop offset="1" stopColor="#0E7FF2"/>
</linearGradient>
</defs>
</svg>
