<svg width="95" height="83" viewBox="0 0 95 83" fill="none" xmlns="http://www.w3.org/2000/svg">
<path d="M82.8699 75.9757H11.9293C7.26839 75.9757 3.39746 72.1838 3.39746 67.4439V12.3819C3.39746 7.72102 7.18939 3.8501 11.9293 3.8501H82.8699C87.5309 3.8501 91.4018 7.64203 91.4018 12.3819V67.4439C91.4018 72.1048 87.6099 75.9757 82.8699 75.9757Z" fill="url(#paint0_linear_1198_1077)"/>
<path d="M83.3432 34.1855H47.7148V75.8178H68.7284C76.7863 75.8178 83.3432 68.3919 83.3432 59.1491V34.1855Z" fill="url(#paint1_linear_1198_1077)"/>
<path d="M11.455 34.1855H47.7943V75.8178H26.3067C18.0908 75.8178 11.376 68.3919 11.376 59.1491V34.1855H11.455Z" fill="#6156D9"/>
<path d="M57.9063 10.8018C58.4593 10.9598 59.0912 11.1178 59.5652 11.3547C61.3822 12.3027 62.2512 13.8037 62.3302 15.8577C62.3302 16.0157 62.3302 16.1737 62.3302 16.3317C62.3302 16.3317 62.3302 16.3317 62.4092 16.4107C62.4882 16.4107 62.6462 16.4107 62.7252 16.4107C65.1741 16.4107 67.6231 16.4107 70.072 16.4107C72.442 16.4107 74.259 17.9906 74.575 20.3606C74.575 20.5186 74.575 20.6766 74.575 20.9136C74.575 30.7094 74.575 40.4262 74.575 50.222C74.575 50.775 74.338 51.17 73.864 51.407C73.39 51.644 72.916 51.565 72.521 51.249C72.205 51.012 72.047 50.617 72.047 50.222C72.047 50.143 72.047 49.985 72.047 49.906C72.047 40.2682 72.047 30.6304 72.047 20.9926C72.047 19.7286 71.099 18.8596 69.914 18.8596C67.4651 18.9386 65.0951 18.8596 62.6462 18.8596C62.4882 18.8596 62.4092 18.8596 62.2512 18.8596C62.2512 20.2026 62.2512 21.5456 62.2512 22.8885C62.6462 22.8885 63.1202 22.8885 63.5152 22.8885C64.5421 22.8885 65.4901 23.2045 66.2801 23.8365C67.3861 24.7055 67.9391 25.8115 68.0181 27.2334C68.0181 27.6284 68.0181 27.9444 68.0181 28.3394C68.0181 28.4184 68.0971 28.4974 68.1761 28.5764C68.4921 28.8924 68.8081 29.2084 69.2031 29.6034C69.756 30.1564 69.756 31.0254 69.2031 31.5784C68.8871 31.8944 68.5711 32.2104 68.2551 32.5263C68.1761 32.6053 68.1761 32.7633 68.0971 32.9213C68.0971 33.0003 68.0971 33.1583 68.0971 33.2373C68.0971 38.3722 68.0971 43.4281 68.0971 48.563C68.0971 51.091 66.1221 53.066 63.5942 53.066C51.2704 53.066 38.9466 53.066 26.5439 53.066C24.2529 53.066 22.5149 51.565 22.0409 49.353C22.0409 49.116 22.0409 48.958 22.0409 48.721C22.0409 41.5322 22.0409 34.4223 22.0409 27.2334C22.0409 25.1005 23.6999 23.2045 25.8329 22.9675C26.3069 22.8885 26.7809 22.8885 27.3338 22.8885C27.3338 21.5456 27.3338 20.2816 27.3338 18.9386C27.2548 18.9386 27.0968 18.9386 27.0178 18.9386C24.6479 18.9386 22.1989 18.9386 19.829 18.9386C18.644 18.9386 17.854 19.8076 17.854 20.9926C17.854 32.2894 17.854 43.5071 17.854 54.8039C17.854 55.9099 18.644 56.7789 19.829 56.7789C21.093 56.7789 22.2779 56.7789 23.5419 56.7789C27.4128 56.7789 31.2048 56.7789 35.0757 56.8579C36.8927 56.8579 38.7096 56.8579 40.5266 56.8579C45.2665 56.8579 49.9274 56.9369 54.6673 56.9369C59.3282 56.9369 63.9892 56.9369 68.6501 57.0159C71.889 57.0159 75.0489 57.0159 78.2879 57.0949C78.9989 57.0949 79.5518 57.5689 79.5518 58.2009C79.6309 58.9908 79.2359 59.4648 78.4459 59.5438C78.1299 59.6228 77.7349 59.5438 77.4189 59.5438C74.8119 59.5438 72.205 59.5438 69.598 59.4648C67.5441 59.4648 65.4901 59.4648 63.3572 59.4648C59.6442 59.4648 55.9313 59.3858 52.2184 59.3858C51.8234 59.3858 51.8234 59.3858 51.8234 59.7808C51.8234 61.2818 51.8234 62.7828 51.8234 64.2837C51.8234 64.3627 51.8234 64.5207 51.8234 64.6787C51.9814 64.6787 52.0604 64.6787 52.2184 64.6787C53.0874 64.6787 53.8773 64.6787 54.7463 64.6787C56.2473 64.6787 57.5113 65.8637 57.6693 67.3647C57.9063 69.4186 56.3263 70.8406 54.5093 70.8406C48.1894 70.8406 41.9486 70.8406 35.6287 70.8406C33.9697 70.8406 32.7057 69.6556 32.5477 67.9967C32.3897 66.4167 33.4957 65.0737 34.9967 64.7577C35.5497 64.6787 36.1027 64.6787 36.6557 64.6787C37.1297 64.6787 37.6036 64.6787 38.1566 64.6787C38.1566 62.8618 38.1566 61.1238 38.1566 59.3858C37.9986 59.3858 37.9196 59.3858 37.8406 59.3858C36.8137 59.3858 35.7867 59.3858 34.7597 59.3858C30.4938 59.3858 26.3069 59.3858 22.0409 59.3068C21.093 59.3068 20.145 59.3068 19.197 59.2278C17.301 59.0698 15.6421 57.5689 15.3261 55.6729C15.3261 55.5149 15.2471 55.2779 15.2471 55.1199C15.2471 55.0409 15.2471 54.9619 15.2471 54.8829C15.2471 43.5861 15.2471 32.2104 15.2471 20.9136C15.2471 20.8346 15.2471 20.7556 15.2471 20.6766C15.2471 20.5186 15.2471 20.4396 15.2471 20.2816C15.6421 17.9906 17.459 16.4896 19.75 16.4896C22.1199 16.4896 24.4899 16.4896 26.8599 16.4896C27.0178 16.4896 27.0968 16.4896 27.1758 16.4896C27.1758 16.4107 27.1758 16.4107 27.1758 16.4107C27.1758 16.2527 27.1758 16.0947 27.1758 15.9367C27.2548 13.8827 28.2028 12.3027 30.0198 11.3547C30.4938 11.1178 31.1258 10.9598 31.5998 10.8018C40.5266 10.8018 49.2164 10.8018 57.9063 10.8018ZM29.8618 50.696C39.8946 50.696 49.8484 50.696 59.8812 50.696C59.8812 47.4571 59.8812 44.2971 59.8812 41.1372C59.8022 41.1372 59.8022 41.0582 59.7232 41.0582C59.6442 41.1372 59.6442 41.2952 59.5652 41.3742C58.5383 42.4012 57.5113 43.4281 56.4843 44.4551C56.1683 44.7711 55.7733 45.0081 55.2993 45.1661C54.4303 45.4031 53.4823 45.6401 52.5344 45.7981C51.6654 45.9561 50.9544 45.2451 51.1124 44.3761C51.2704 43.5861 51.5074 42.7172 51.6654 41.9272C51.8234 41.2952 52.1394 40.7422 52.6134 40.2682C54.9833 37.9772 57.2743 35.6073 59.6442 33.2373C59.7232 33.1583 59.8812 32.9213 59.8812 32.7633C59.8812 27.2334 59.8812 21.6246 59.8812 16.0947C59.8812 15.6207 59.8022 15.0677 59.4862 14.6727C58.9332 13.7247 58.0643 13.3297 56.9583 13.3297C48.9004 13.3297 40.8426 13.3297 32.7057 13.3297C32.1528 13.3297 31.6788 13.4087 31.1258 13.6457C30.1778 14.1987 29.7828 15.0677 29.7828 16.2527C29.7828 27.6284 29.7828 39.0042 29.7828 50.38C29.8618 50.459 29.8618 50.538 29.8618 50.696ZM27.4128 50.696C27.4128 42.2432 27.4128 33.8693 27.4128 25.4165C26.9389 25.4955 26.3859 25.4955 25.9119 25.5745C25.0429 25.8115 24.5689 26.6015 24.5689 27.5494C24.5689 32.6843 24.5689 37.7402 24.5689 42.8751C24.5689 44.7711 24.5689 46.7461 24.5689 48.642C24.5689 49.511 25.1219 50.301 25.9909 50.538C26.4649 50.696 26.8599 50.696 27.4128 50.696ZM40.7636 64.6787C43.6075 64.6787 46.4515 64.6787 49.2954 64.6787C49.2954 62.9408 49.2954 61.2028 49.2954 59.3858C46.4515 59.3858 43.6075 59.3858 40.7636 59.3858C40.7636 61.2028 40.7636 62.9408 40.7636 64.6787ZM62.3302 50.696C62.7252 50.696 63.1202 50.696 63.4362 50.696C64.7791 50.696 65.6481 49.906 65.6481 48.484C65.6481 44.2181 65.6481 39.8732 65.6481 35.6073C65.6481 35.5283 65.6481 35.4493 65.6481 35.2913C65.5691 35.3703 65.4901 35.4493 65.4111 35.5283C64.4631 36.4763 63.5152 37.4243 62.5672 38.3722C62.4092 38.5302 62.3302 38.6882 62.3302 38.9252C62.3302 42.7172 62.3302 46.5091 62.3302 50.38C62.3302 50.38 62.3302 50.538 62.3302 50.696ZM63.5942 31.8154C60.7502 34.6593 57.9063 37.5033 55.1413 40.2682C55.6153 40.7422 56.0893 41.2952 56.5633 41.6902C59.4072 38.8462 62.2512 36.0023 65.0161 33.2373C64.6211 32.7633 64.0681 32.2894 63.5942 31.8154ZM45.1085 68.3917C47.0835 68.3917 49.0584 68.3917 51.0334 68.3917C52.2184 68.3917 53.4033 68.3917 54.5883 68.3917C54.9043 68.3917 55.1413 68.1547 55.2203 67.8387C55.2203 67.5227 55.0623 67.2067 54.6673 67.2067C54.5883 67.2067 54.4303 67.2067 54.3513 67.2067C48.1894 67.2067 42.1066 67.2067 35.9447 67.2067C35.7867 67.2067 35.7077 67.2067 35.5497 67.2067C35.2337 67.2067 35.0757 67.4437 34.9967 67.7597C34.9967 68.2337 35.1547 68.3917 35.7077 68.3917C38.8676 68.3917 41.9486 68.3917 45.1085 68.3917ZM62.4092 30.4724C62.5672 30.3934 62.5672 30.3144 62.6462 30.2354C63.4362 29.4454 64.1471 28.7344 64.9371 27.9444C65.0951 27.7864 65.3321 27.6284 65.4901 27.4704C65.5691 27.3914 65.6481 27.3124 65.6481 27.2334C65.4901 26.3645 65.0951 25.8115 64.2261 25.5745C63.5942 25.4165 62.9622 25.4955 62.3302 25.4165C62.4092 27.1544 62.4092 28.8134 62.4092 30.4724ZM66.3591 31.9734C66.7541 31.5784 67.2281 31.1044 67.6231 30.7094C67.1491 30.2354 66.6751 29.7614 66.1221 29.2874C65.7271 29.6824 65.2531 30.1564 64.8581 30.5514C65.4111 30.9464 65.8851 31.4994 66.3591 31.9734ZM53.7193 41.5322C53.2454 42.2432 53.3243 43.0331 53.0874 43.7441C53.7983 43.5071 54.6673 43.5861 55.2993 43.1121C54.8253 42.6382 54.2723 42.0852 53.7193 41.5322Z" fill="white"/>
<path d="M15.3262 20.6768C15.4052 20.7558 15.4052 20.8348 15.4052 20.9138C15.4052 32.2105 15.4052 43.5863 15.4052 54.8831C15.4052 54.9621 15.4052 55.0411 15.4052 55.1201C15.4052 55.1201 15.4052 55.1201 15.3262 55.1201C15.3262 43.6653 15.3262 32.2105 15.3262 20.6768Z" fill="white"/>
<path d="M45.1088 56.2258C44.3978 56.2258 43.9238 55.6728 43.9238 55.0408C43.9238 54.3298 44.4768 53.8559 45.1088 53.7769C45.8198 53.7769 46.3728 54.3298 46.3728 55.0408C46.3728 55.6728 45.8198 56.2258 45.1088 56.2258Z" fill="white"/>
<path d="M41.8704 20.6768C44.2403 20.6768 46.6893 20.6768 49.0593 20.6768C49.5332 20.6768 49.7702 20.9138 49.8492 21.3087C49.8492 21.7037 49.5332 21.9407 49.1383 21.9407C44.3193 21.9407 39.4214 21.9407 34.6025 21.9407C34.2865 21.9407 34.0495 21.8617 33.8915 21.5457C33.8125 21.3087 33.8125 20.9928 34.1285 20.8348C34.2865 20.7558 34.4445 20.6768 34.6025 20.6768C36.9725 20.6768 39.4214 20.6768 41.8704 20.6768Z" fill="white"/>
<path d="M41.712 33.9482C44.082 33.9482 46.531 33.9482 48.9009 33.9482C49.3749 33.9482 49.6119 34.1852 49.6119 34.6592C49.6119 34.9752 49.3749 35.1332 49.1379 35.2122C49.0589 35.2122 48.9009 35.2122 48.8219 35.2122C44.161 35.2122 39.4211 35.2122 34.7602 35.2122C34.6812 35.2122 34.6022 35.2122 34.6022 35.2122C34.2072 35.2122 33.8912 34.9752 33.9702 34.5802C33.9702 34.1852 34.2072 34.0272 34.6022 34.0272C36.8931 33.9482 39.2631 33.9482 41.712 33.9482Z" fill="white"/>
<path d="M40.0522 48.4842C38.2352 48.4842 36.3393 48.4842 34.5223 48.4842C34.2063 48.4842 33.9693 48.4052 33.8903 48.0892C33.7323 47.6942 33.9693 47.2992 34.3643 47.2202C34.4433 47.2202 34.5223 47.2202 34.6013 47.2202C38.3142 47.2202 41.9482 47.2202 45.6611 47.2202C46.1351 47.2202 46.3721 47.3782 46.4511 47.7732C46.5301 48.1682 46.2141 48.4842 45.7401 48.4842C44.3971 48.4842 43.0541 48.4842 41.7112 48.4842C41.1582 48.4842 40.6052 48.4842 40.0522 48.4842Z" fill="white"/>
<path d="M40.1314 29.5244C41.9484 29.5244 43.8443 29.5244 45.6613 29.5244C46.1353 29.5244 46.3723 29.7614 46.3723 30.1564C46.3723 30.5514 46.1353 30.7884 45.6613 30.7884C41.9484 30.7884 38.2354 30.7884 34.5225 30.7884C34.0485 30.7884 33.8115 30.5514 33.8115 30.1564C33.8115 29.7614 34.0485 29.5244 34.5225 29.5244C36.4185 29.5244 38.2354 29.5244 40.1314 29.5244Z" fill="white"/>
<path d="M40.0527 19.7284C38.1568 19.7284 36.3398 19.7284 34.4438 19.7284C34.1278 19.7284 33.8908 19.5704 33.8119 19.3334C33.7329 19.0964 33.8119 18.7805 34.0488 18.6225C34.1278 18.5435 34.2858 18.5435 34.4438 18.5435C38.1568 18.5435 41.9487 18.5435 45.6616 18.5435C46.0566 18.5435 46.2936 18.7805 46.2936 19.0964C46.2936 19.4914 46.0566 19.7284 45.6616 19.7284C43.8447 19.7284 41.9487 19.7284 40.0527 19.7284Z" fill="white"/>
<path d="M39.2618 38.3721C40.8418 38.3721 42.3428 38.3721 43.9227 38.3721C44.3967 38.3721 44.6337 38.6091 44.6337 39.0041C44.6337 39.3991 44.3177 39.636 43.9227 39.636C40.7628 39.636 37.6818 39.636 34.5219 39.636C34.2059 39.636 33.9689 39.557 33.8109 39.2411C33.7319 39.0041 33.7319 38.6881 33.9689 38.5301C34.1269 38.4511 34.2849 38.3721 34.5219 38.3721C36.1019 38.3721 37.6818 38.3721 39.2618 38.3721Z" fill="white"/>
<path d="M39.2619 45.0078C40.8419 45.0078 42.3429 45.0078 43.9228 45.0078C44.3968 45.0078 44.7128 45.2448 44.7128 45.6398C44.7128 46.0348 44.3968 46.2718 44.0018 46.2718C40.8419 46.2718 37.761 46.2718 34.601 46.2718C34.127 46.2718 33.811 46.0348 33.89 45.6398C33.89 45.2448 34.127 45.0078 34.601 45.0078C36.102 45.0078 37.603 45.0078 39.1829 45.0078C39.1039 45.0078 39.1829 45.0078 39.2619 45.0078Z" fill="white"/>
<path d="M39.2633 27.3124C40.8433 27.3124 42.4232 27.3124 44.0032 27.3124C44.3192 27.3124 44.4772 27.3914 44.5562 27.7074C44.6352 27.9444 44.6352 28.1814 44.3982 28.3394C44.2402 28.4184 44.0032 28.4974 43.8452 28.4974C41.0013 28.4974 38.2363 28.4974 35.3924 28.4974C35.0764 28.4974 34.7604 28.4974 34.3654 28.4974C33.9704 28.4974 33.7334 28.2604 33.7334 27.8654C33.7334 27.4704 33.9704 27.2334 34.3654 27.2334C36.0244 27.3124 37.6833 27.3124 39.2633 27.3124Z" fill="white"/>
<path d="M37.2883 36.1602C38.1573 36.1602 39.1053 36.1602 39.9743 36.1602C40.3693 36.1602 40.6853 36.3972 40.6853 36.7921C40.6853 37.1871 40.3693 37.4241 39.9743 37.4241C38.1573 37.4241 36.2613 37.4241 34.4444 37.4241C33.9704 37.4241 33.7334 37.1871 33.7334 36.7921C33.7334 36.3972 33.9704 36.1602 34.4444 36.1602C35.4714 36.1602 36.3403 36.1602 37.2883 36.1602Z" fill="white"/>
<path d="M37.2871 42.875C38.235 42.875 39.104 42.875 40.052 42.875C40.447 42.875 40.763 43.112 40.763 43.507C40.763 43.902 40.526 44.139 40.131 44.139C38.235 44.139 36.4181 44.139 34.5221 44.139C34.1271 44.139 33.8111 43.823 33.8901 43.507C33.8901 43.112 34.1271 42.954 34.6011 42.954C35.3911 42.875 36.3391 42.875 37.2871 42.875Z" fill="white"/>
<path d="M37.2879 25.1006C38.2359 25.1006 39.1839 25.1006 40.0529 25.1006C40.4479 25.1006 40.6849 25.3376 40.6849 25.6536C40.6849 26.0486 40.4479 26.2856 40.0529 26.2856C38.1569 26.2856 36.3399 26.2856 34.444 26.2856C34.049 26.2856 33.733 26.0486 33.812 25.6536C33.812 25.3376 34.049 25.1006 34.444 25.1006C35.392 25.1006 36.3399 25.1006 37.2879 25.1006Z" fill="white"/>
<path d="M45.8194 36.1602C46.6094 36.1602 47.3204 36.1602 48.1104 36.1602C48.5054 36.1602 48.8214 36.3972 48.8214 36.7921C48.8214 37.1081 48.5054 37.4241 48.1104 37.4241C46.6094 37.4241 45.0294 37.4241 43.5285 37.4241C43.1335 37.4241 42.8965 37.1871 42.8965 36.7921C42.8965 36.3972 43.1335 36.1602 43.5285 36.1602C44.3185 36.1602 45.1084 36.1602 45.8194 36.1602Z" fill="white"/>
<path d="M36.7345 17.5164C36.0235 17.5164 35.2335 17.5164 34.5225 17.5164C34.0485 17.5164 33.8115 17.2794 33.8115 16.8844C33.8115 16.4894 34.0485 16.2524 34.5225 16.2524C36.0235 16.2524 37.5245 16.2524 38.9464 16.2524C39.4204 16.2524 39.6574 16.4894 39.6574 16.8844C39.6574 17.2794 39.4204 17.5164 38.9464 17.5164C38.2354 17.5164 37.5245 17.5164 36.7345 17.5164Z" fill="white"/>
<path d="M50.797 29.5244C51.587 29.5244 52.2979 29.5244 53.0879 29.5244C53.4829 29.5244 53.7989 29.7614 53.7989 30.1564C53.7989 30.5514 53.4829 30.7884 53.0879 30.7884C51.587 30.7884 50.086 30.7884 48.585 30.7884C48.19 30.7884 47.874 30.5514 47.874 30.1564C47.874 29.8404 48.19 29.5244 48.585 29.5244C49.296 29.5244 50.086 29.5244 50.797 29.5244Z" fill="white"/>
<path d="M48.2683 45.166C48.9003 45.166 49.4533 45.166 50.0853 45.166C50.4802 45.166 50.7172 45.403 50.7172 45.798C50.7172 46.114 50.4013 46.43 50.0853 46.43C48.9003 46.43 47.6363 46.43 46.4513 46.43C46.0563 46.43 45.8193 46.193 45.8193 45.798C45.8193 45.403 46.0563 45.166 46.5303 45.166C47.0043 45.166 47.6363 45.166 48.2683 45.166Z" fill="white"/>
<path d="M49.5323 39.3992C49.0583 39.3992 48.5053 39.3992 48.0313 39.3992C47.6363 39.3992 47.3203 39.1622 47.3203 38.7672C47.3203 38.3722 47.6363 38.1353 48.0313 38.1353C49.0583 38.1353 50.0853 38.1353 51.1912 38.1353C51.5862 38.1353 51.9022 38.4512 51.8232 38.7672C51.8232 39.0832 51.5072 39.3992 51.1122 39.3992C50.5592 39.3992 50.0853 39.3992 49.5323 39.3992Z" fill="white"/>
<path d="M53.0074 20.6768C53.4814 20.6768 54.0343 20.6768 54.5083 20.6768C54.9033 20.6768 55.2193 20.9138 55.2193 21.3087C55.2193 21.7037 54.9823 21.9407 54.5873 21.9407C54.1923 21.9407 53.7973 21.9407 53.4024 21.9407C52.7704 21.9407 52.1384 21.9407 51.5854 21.9407C51.1114 21.9407 50.7954 21.5457 50.8744 21.1507C50.9534 20.8348 51.1114 20.6768 51.4274 20.6768C51.9014 20.6768 52.4544 20.6768 53.0074 20.6768Z" fill="white"/>
<defs>
<linearGradient id="paint0_linear_1198_1077" x1="3.39746" y1="57.9443" x2="94.655" y2="49.0616" gradientUnits="userSpaceOnUse">
<stop offset="0.161458" stop-color="#6156D9"/>
<stop offset="0.869792" stop-color="#8A64DF"/>
</linearGradient>
<linearGradient id="paint1_linear_1198_1077" x1="47.7148" y1="65.4097" x2="84.8372" y2="62.8754" gradientUnits="userSpaceOnUse">
<stop offset="0.161458" stop-color="#6156D9"/>
<stop offset="0.869792" stop-color="#8A64DF"/>
</linearGradient>
</defs>
</svg>
