<svg width="86" height="75" viewBox="0 0 86 75" fill="none" xmlns="http://www.w3.org/2000/svg">
<path opacity="0.7" d="M85.3182 10.2697V62.8827C85.3182 69.2026 80.2623 74.2585 73.9424 74.2585H31.2832V60.7498C31.2832 57.5898 33.8112 55.0619 36.9711 55.0619H56.8787C58.4587 55.0619 59.7227 53.7979 59.7227 52.2179L59.0907 47.083C63.2776 46.767 65.0946 46.293 68.2545 46.293L72.9944 41.7901C75.3644 41.7901 75.3644 37.5242 75.3644 35.1543V0.315918C80.8153 0.315918 85.3182 4.73983 85.3182 10.2697Z" fill="url(#paint0_linear_1435_1279)"/>
<path d="M81.0516 17.7746V57.5898C81.0516 62.3297 77.2596 66.1216 72.5197 66.1216H59.722C57.352 66.1216 55.4561 64.2257 55.4561 61.8557V47.083C55.4561 40.2891 60.9859 34.8382 67.7008 34.8382C69.9918 34.8382 71.8087 33.0213 71.8087 30.7303V8.53174C76.8646 8.53174 81.0516 12.6397 81.0516 17.7746Z" fill="url(#paint1_linear_1435_1279)"/>
<path d="M8.53175 72.9947C8.13676 72.9947 7.74177 72.9947 7.34677 72.9157C6.31979 72.5997 5.29281 72.2047 4.42383 71.5728C5.37181 72.0467 6.71478 72.5207 8.53175 72.9947Z" fill="url(#paint2_linear_1435_1279)"/>
<path d="M66.5167 38.6303L54.667 58.0639L40.0522 50.954L36.1023 49.9271L29.1504 57.8269L23.6996 66.7537C20.6976 71.5727 15.0887 74.3376 9.47982 73.2316C9.16383 73.1526 8.92683 73.0736 8.61084 73.0736C6.71487 72.5996 5.4509 72.1257 4.50291 71.6517C3.79193 71.1777 3.15994 70.6247 2.60695 69.9927C1.02698 68.2547 0 65.8848 0 63.3568V33.4954C0 26.7015 4.42392 20.6186 10.9808 18.6437L53.008 5.8459C57 5 59 6.00005 60 7.00005C61 8.00005 62 11.0001 62 11.0001C63.5 15.2042 63.3969 26.315 60 27.5L60.5 40.3682L49.8481 39.5001V30.8094L51.507 40.3682L66.5167 38.6303Z" fill="url(#paint3_linear_1435_1279)"/>
<path d="M4.42331 71.5725C3.23833 70.9406 2.76434 70.3876 2.52734 69.9136C3.08033 70.5456 3.71232 71.0986 4.42331 71.5725Z" fill="url(#paint4_linear_1435_1279)"/>
<path d="M39.9722 65.1738C36.7333 65.1738 33.4943 65.1738 30.2554 65.1738C29.3864 65.1738 28.5964 64.8578 27.9644 64.2258C27.3325 63.5148 27.0955 62.6458 27.2535 61.6978C27.6484 58.9329 27.9644 56.0889 28.3594 53.324C28.8334 50.48 30.4924 48.5841 33.0993 47.4781C33.6523 47.2411 34.2053 47.1621 34.8373 47.1621C38.3922 47.1621 42.0262 47.1621 45.5811 47.1621C46.0551 47.1621 46.4501 47.2411 46.8451 47.3991C49.294 48.3471 50.953 49.9271 51.743 52.455C51.901 53.008 51.98 53.64 52.059 54.272C52.375 56.3259 52.612 58.4589 52.928 60.5129C53.007 61.1448 53.086 61.8558 53.086 62.4878C53.086 63.1988 52.691 63.7518 52.138 64.2258C51.348 64.8578 50.479 65.1738 49.373 65.1738C46.2921 65.1738 43.1322 65.1738 39.9722 65.1738Z" fill="white"/>
<path d="M43.6064 27.4125C44.7124 26.2275 46.0554 25.4376 47.5564 24.9636C47.7934 24.8846 48.0304 24.8056 48.2674 24.7266C48.4254 24.6476 48.5043 24.7266 48.5833 24.8056C49.8473 26.1485 51.1113 27.4915 52.3753 28.8345C52.4543 28.9135 52.5333 29.0715 52.5333 29.2295C52.5333 31.6784 52.5333 34.1274 52.5333 36.5763C52.5333 36.7343 52.5333 36.9713 52.6123 37.1293C52.7703 37.6823 53.2443 37.9983 53.8763 37.9983C54.5082 37.9193 54.9032 37.5243 54.9822 36.9713C54.9822 36.8133 54.9822 36.7343 54.9822 36.5763C54.9822 34.1274 54.9822 31.6784 54.9822 29.3085C54.9822 29.1505 54.9822 29.0715 54.9822 28.9135C54.1922 28.9135 53.4023 28.9135 52.6123 28.9135C52.6123 28.2025 52.5333 27.5705 52.6123 26.9385C52.6913 26.3065 53.2443 25.9115 53.9552 25.9905C54.5872 26.0695 55.0612 26.4645 55.0612 27.1755C55.0612 27.7285 55.0612 28.3605 55.1402 28.9135C55.2192 28.8345 55.2192 28.7555 55.2982 28.7555C56.4832 27.4915 57.6682 26.2275 58.8532 24.9636C59.0112 24.8056 59.0901 24.8056 59.2481 24.8846C59.9591 25.1216 60.6701 25.3586 61.3811 25.6746C63.4351 26.7015 64.699 28.3605 65.331 30.4935C65.489 31.1254 65.489 31.8364 65.647 32.4684C65.963 34.5224 66.2 36.6553 66.516 38.7093C66.595 39.3413 66.753 39.8943 66.595 40.5263C66.516 40.6843 66.516 40.8423 66.437 41.0003C65.647 42.1062 64.699 42.9752 63.1981 42.9752C57.9842 42.9752 52.7703 42.9752 47.6354 42.9752C47.5564 42.9752 47.4774 42.9752 47.3194 42.9752C47.3984 42.8172 47.3984 42.7382 47.4774 42.6592C48.5834 40.3683 49.2943 37.9983 49.1363 35.3914C48.9783 31.9154 47.4774 29.3085 44.3174 27.6495C44.0804 27.5705 43.8434 27.4915 43.6064 27.4125Z" fill="white"/>
<path d="M53.7974 7.26796C54.5084 7.26796 55.2193 7.18897 55.9303 7.26796C57.6683 7.50496 59.0113 8.53194 59.8802 10.0329C60.6702 11.2969 60.9072 12.7189 60.7492 14.2198C60.5122 16.5898 59.7222 18.7227 58.3793 20.6977C57.7473 21.6457 56.9573 22.5147 55.9303 23.0677C54.1134 24.0156 52.3754 23.7787 50.7954 22.5937C49.6894 21.8037 48.8995 20.6977 48.2675 19.5127C47.3195 17.6958 46.6875 15.7998 46.6875 13.6668C46.6875 11.3759 47.5565 9.40092 49.4524 8.05795C50.3214 7.50496 51.2694 7.18896 52.2964 7.18896C52.9284 7.18896 53.4024 7.18897 53.7974 7.26796C53.7974 7.18897 53.7974 7.18897 53.7974 7.26796Z" fill="white"/>
<path d="M40.0521 29.4663C40.8421 29.4663 41.6321 29.4663 42.3431 29.6243C44.2391 29.9403 45.582 31.1253 46.372 32.8632C47.004 34.1272 47.083 35.5492 46.925 36.9712C46.609 39.1831 45.898 41.1581 44.6341 43.0541C44.0021 44.002 43.2121 44.871 42.1061 45.424C40.2891 46.372 38.5512 46.135 36.9712 44.871C35.8652 44.002 35.0752 42.9751 34.4433 41.7111C33.4953 39.8941 32.8633 37.9981 32.8633 35.9442C32.8633 33.4952 33.8113 31.5203 35.9442 30.1773C36.6552 29.7033 37.5242 29.5453 38.3932 29.4663C39.0252 29.5453 39.4992 29.5453 40.0521 29.4663Z" fill="white"/>
<path d="M69.1225 40.5259C69.2015 40.5259 69.2805 40.5259 69.3595 40.5259C71.0975 40.5259 72.8354 40.5259 74.5734 40.5259C75.2844 40.5259 75.6004 40.7629 75.8374 41.3949C76.0744 41.9479 75.9164 42.5798 75.4424 42.9748C70.9395 46.8458 66.4366 50.7957 61.9337 54.6666C61.6177 54.9826 61.2227 55.0616 60.8277 55.1406C58.7737 55.1406 56.7198 55.1406 54.6658 55.1406C54.5078 55.1406 54.4288 55.0616 54.4288 54.9036C54.3498 54.1926 54.2708 53.4026 54.1128 52.6916C53.6388 50.7167 52.8488 48.9787 51.3479 47.5567C50.0839 46.3718 50.0839 46.3718 48.5039 45.4238C48.5829 45.4238 48.6619 45.4238 48.7409 45.4238C53.6388 45.4238 58.6157 45.4238 63.5136 45.4238C65.0936 45.4238 66.4366 44.8708 67.5425 43.7648C68.3325 42.9748 68.8065 41.9479 69.0435 40.8419C69.1225 40.6839 69.1225 40.6049 69.1225 40.5259Z" fill="white"/>
<path d="M31.5985 41.395C32.2305 42.501 32.7835 43.686 33.4154 44.713C29.4655 45.8979 27.0166 48.5049 25.9896 52.6128C25.8316 53.3238 25.6736 54.0348 25.5156 54.7458V54.8248C25.4366 54.8248 25.3576 54.8248 25.2786 54.8248C23.2246 54.8248 21.2497 54.8248 19.1957 54.8248C19.1167 54.8248 18.9587 54.8248 18.8797 54.8248C18.4847 54.7458 18.0897 54.5878 18.0107 54.1138C17.8527 53.5608 18.0107 53.0868 18.4057 52.6918C19.1167 52.0598 19.9067 51.4278 20.6177 50.7958C24.2516 47.7149 27.8066 44.555 31.4405 41.474C31.4405 41.474 31.5195 41.474 31.5985 41.395Z" fill="white"/>
<defs>
<linearGradient id="paint0_linear_1435_1279" x1="31.2832" y1="55.7729" x2="87.6549" y2="52.4866" gradientUnits="userSpaceOnUse">
<stop offset="0.161458" stop-color="#6156D9"/>
<stop offset="0.869792" stop-color="#8A64DF"/>
</linearGradient>
<linearGradient id="paint1_linear_1435_1279" x1="55.4561" y1="51.7242" x2="82.2156" y2="50.7754" gradientUnits="userSpaceOnUse">
<stop offset="0.161458" stop-color="#6156D9"/>
<stop offset="0.869792" stop-color="#8A64DF"/>
</linearGradient>
<linearGradient id="paint2_linear_1435_1279" x1="4.50535" y1="72.3215" x2="8.60309" y2="72.2048" gradientUnits="userSpaceOnUse">
<stop stop-color="#AC66F4" stop-opacity="0.8"/>
<stop offset="1" stop-color="#AC66F4" stop-opacity="0"/>
</linearGradient>
<linearGradient id="paint3_linear_1435_1279" x1="5.51735e-07" y1="56.5233" x2="69.2053" y2="51.1073" gradientUnits="userSpaceOnUse">
<stop offset="0.161458" stop-color="#6156D9"/>
<stop offset="0.319175" stop-color="#6A59DA"/>
<stop offset="0.869792" stop-color="#8A64DF"/>
</linearGradient>
<linearGradient id="paint4_linear_1435_1279" x1="2.53358" y1="70.6966" x2="4.46636" y2="70.7516" gradientUnits="userSpaceOnUse">
<stop stop-color="#AC66F4" stop-opacity="0.8"/>
<stop offset="1" stop-color="#AC66F4" stop-opacity="0"/>
</linearGradient>
</defs>
</svg>
