<svg width="102" height="102" viewBox="0 0 102 102" fill="none" xmlns="http://www.w3.org/2000/svg">
<g clipPath="url(#clip0_1626_1440)">
<path d="M60.4689 92.4351H38.3746C37.5085 92.4351 36.7988 93.1517 36.7988 94.0264C36.7988 94.9011 37.5085 95.6178 38.3746 95.6178H60.4689C61.335 95.6178 62.0446 94.9011 62.0446 94.0264C62.0446 93.1517 61.335 92.4351 60.4689 92.4351Z" fill="black"/>
<path d="M57.3118 98.8115H41.5318C40.6657 98.8115 39.9561 99.5282 39.9561 100.403C39.9561 101.278 40.6657 101.994 41.5318 101.994H57.3118C58.178 101.994 58.8876 101.278 58.8876 100.403C58.8876 99.5282 58.178 98.8115 57.3118 98.8115Z" fill="black"/>
<path d="M48.3152 65.3423H50.5224C52.5732 65.3423 54.311 63.7509 54.311 61.7589V60.1675C55.4174 59.8515 56.4399 59.3718 57.4681 58.8131L58.5745 59.9305C59.9156 61.2848 62.2848 61.2058 63.7041 59.7725L65.2799 58.1811C66.7774 56.6687 66.8556 54.3551 65.4363 53.0007L64.33 51.8834C64.8831 50.845 65.2743 49.8123 65.671 48.695H67.2468C69.2193 48.695 70.7951 47.019 70.7951 44.8689V42.6399C70.7951 40.5688 69.2193 38.8138 67.2468 38.8138H65.671C65.3581 37.6965 64.8831 36.6638 64.33 35.6254L65.4363 34.5081C66.7774 33.1537 66.6992 30.761 65.2799 29.3277L63.7041 27.7363C62.2066 26.2239 59.9156 26.1449 58.5745 27.5783L57.4681 28.6956C56.4399 28.137 55.4174 27.7419 54.311 27.3413V25.7499C54.311 23.7579 52.6514 22.1665 50.5224 22.1665H48.3152C46.2645 22.1665 44.5267 23.7579 44.5267 25.7499V27.3413C43.4203 27.6573 42.3977 28.137 41.3696 28.6956L40.2632 27.5783C38.9221 26.2239 36.5529 26.3029 35.1335 27.7363L33.5578 29.3277C32.8481 30.0443 32.3732 31.0827 32.3732 32.1154C32.3732 33.0691 32.6861 33.9494 33.3175 34.5871L34.4239 35.7044C33.8707 36.7428 33.4796 37.7755 33.0828 38.8928H31.507C29.691 38.8928 28.1152 40.6478 28.1152 42.7189V44.9479C28.1152 47.019 29.691 48.774 31.6635 48.774H33.2393C33.5522 49.8913 34.0272 50.924 34.5804 51.9624L33.474 53.0797C32.1329 54.4341 32.2111 56.8268 33.6304 58.2601L35.2062 59.8515C36.7037 61.3638 38.9947 61.4429 40.3358 60.0095L41.4422 58.8922C42.4704 59.4508 43.4929 59.8458 44.5993 60.2465V61.8379C44.5211 63.7509 46.2589 65.3423 48.3096 65.3423H48.3152ZM42.001 55.5401L40.8946 54.8234L38.056 57.6902C37.9778 57.7692 37.581 57.7692 37.3463 57.5321L35.7706 55.9408C35.5359 55.7038 35.4576 55.3821 35.6141 55.2241L38.4527 52.3574L37.7431 51.24C36.877 49.8067 36.2455 48.2943 35.927 46.6973L35.6923 45.4219H31.5909C31.4344 45.4219 31.1941 45.1849 31.1941 44.7843V42.5552C31.1941 42.1546 31.4288 41.9175 31.5909 41.9175H35.6923L35.927 40.6422C36.2399 39.0508 36.8714 37.5328 37.7431 36.0995L38.4527 34.9821L35.6141 32.1154C35.5359 32.0364 35.5359 31.9574 35.5359 31.9574C35.5359 31.7994 35.6141 31.5567 35.7706 31.4777L37.3463 29.8863C37.581 29.6493 37.9778 29.5703 38.056 29.7283L40.8946 32.5951L42.001 31.8784C43.3421 31.0037 44.8396 30.366 46.4992 30.0443L47.762 29.8073V25.6653C47.762 25.5073 47.9967 25.2646 48.3935 25.2646H50.6007C50.9974 25.2646 51.2321 25.5016 51.2321 25.6653V29.8073L52.4949 30.0443C54.0707 30.3604 55.5738 30.998 56.9931 31.8784L58.0995 32.5951L60.9381 29.7283C61.0164 29.6493 61.3349 29.6493 61.6478 29.8863L63.2236 31.4777C63.4582 31.7147 63.5365 32.0364 63.38 32.1944L60.5414 35.0611L61.2511 36.1785C62.1172 37.5328 62.7486 39.1242 63.0671 40.7212L63.3018 41.9965H67.325C67.4815 41.9965 67.7218 42.2336 67.7218 42.6342V44.8633C67.7218 45.2639 67.4871 45.5009 67.325 45.5009H63.3018L62.8268 46.7763C62.5139 48.3677 61.8825 49.8857 61.0108 51.319L60.3011 52.4364L63.1397 55.3031C63.218 55.3821 63.218 55.7038 62.9833 56.0198L61.4075 57.6112C61.1728 57.8482 60.8543 57.9272 60.6979 57.7692L57.8592 54.9024L56.7529 55.6191C55.4118 56.4938 53.9142 57.1315 52.2547 57.4531L50.9918 57.6902V61.8322C50.9918 61.9902 50.7571 62.2329 50.3604 62.2329H48.1532C47.7565 62.2329 47.5218 61.9959 47.5218 61.8322V57.6902L46.4936 57.3741C44.834 57.0581 43.3365 56.4204 41.9954 55.5401H42.001Z" fill="black"/>
<path d="M57.7083 43.8302C57.7083 39.2085 53.9979 35.4614 49.4215 35.4614C44.8451 35.4614 41.1348 39.2085 41.1348 43.8302C41.1348 48.452 44.8451 52.199 49.4215 52.199C53.9979 52.199 57.7083 48.452 57.7083 43.8302ZM44.2919 43.8302C44.2919 40.9635 46.5829 38.6498 49.4215 38.6498C52.2601 38.6498 54.5511 40.9635 54.5511 43.8302C54.5511 46.6969 52.2601 49.0106 49.4215 49.0106C46.5829 49.0106 44.2919 46.6969 44.2919 43.8302Z" fill="black"/>
<path d="M51.0025 7.96813C51.8686 7.96813 52.5783 7.25145 52.5783 6.37676V1.59137C52.5783 0.71668 51.8686 0 51.0025 0C50.1364 0 49.4268 0.71668 49.4268 1.59137V6.37112C49.4268 7.24581 50.1364 7.96249 51.0025 7.96249V7.96813Z" fill="black"/>
<path d="M32.6128 10.3611C32.8475 10.9987 33.4789 11.3148 34.0321 11.3148C34.2668 11.3148 34.4289 11.3148 34.6636 11.1567C35.4514 10.8407 35.8482 9.88139 35.5297 9.08571L33.7136 4.77998C33.4007 3.9843 32.4508 3.58363 31.6629 3.90529C30.875 4.22131 30.4783 5.18065 30.7968 5.97633L32.6128 10.3611Z" fill="black"/>
<path d="M18.6497 20.5581C18.9626 20.8741 19.3594 21.0378 19.7561 21.0378C20.1529 21.0378 20.544 20.8797 20.8625 20.5581C21.4939 19.9204 21.4939 18.9667 20.8625 18.329L17.5489 14.9827C16.9175 14.345 15.9732 14.345 15.3417 14.9827C14.7103 15.6203 14.7103 16.574 15.3417 17.2117L18.6553 20.5581H18.6497Z" fill="black"/>
<path d="M10.7592 32.4313L6.41747 30.5973C5.62959 30.2813 4.67966 30.6763 4.36674 31.472C4.05382 32.2677 4.44497 33.227 5.23285 33.543L9.5746 35.3771C9.80928 35.4561 9.97133 35.5351 10.206 35.5351C10.8374 35.5351 11.3906 35.1344 11.6253 34.5814C11.9382 33.7067 11.5471 32.7473 10.7592 32.4313Z" fill="black"/>
<path d="M8.39001 51.003C8.39001 50.1283 7.68036 49.4116 6.81425 49.4116H2.07577C1.20965 49.4116 0.5 50.1283 0.5 51.003C0.5 51.8777 1.20965 52.5944 2.07577 52.5944H6.80866C7.67477 52.5944 8.38443 51.8777 8.38443 51.003H8.39001Z" fill="black"/>
<path d="M9.57495 66.6175L5.2332 68.4516C4.44532 68.7676 4.04858 69.7269 4.36709 70.5226C4.60178 71.1603 5.2332 71.4763 5.7864 71.4763C6.02109 71.4763 6.18314 71.4763 6.41782 71.3183L10.7596 69.4843C11.5475 69.1683 11.9442 68.2089 11.6257 67.4132C11.3128 66.6175 10.3628 66.2959 9.57495 66.6175Z" fill="black"/>
<path d="M18.6495 81.4421L15.3359 84.7885C14.7044 85.4262 14.7044 86.3799 15.3359 87.0176C15.6488 87.3336 16.0455 87.4972 16.4423 87.4972C16.839 87.4972 17.2301 87.3392 17.5487 87.0176L20.8622 83.6712C21.4937 83.0335 21.4937 82.0798 20.8622 81.4421C20.2308 80.8044 19.2865 80.8044 18.655 81.4421H18.6495Z" fill="black"/>
<path d="M83.3507 81.4421C82.7193 80.8044 81.7749 80.8044 81.1435 81.4421C80.5121 82.0798 80.5121 83.0335 81.1435 83.6712L84.4571 87.0176C84.77 87.3336 85.1667 87.4972 85.5635 87.4972C85.9602 87.4972 86.3513 87.3392 86.6699 87.0176C87.3013 86.3799 87.3013 85.4262 86.6699 84.7885L83.3563 81.4421H83.3507Z" fill="black"/>
<path d="M96.767 68.4513L92.4253 66.6173C91.6374 66.3013 90.6875 66.6963 90.3746 67.492C90.0616 68.2877 90.4528 69.247 91.2407 69.563L95.5824 71.3971C95.8171 71.4761 95.9791 71.5551 96.2138 71.5551C96.8453 71.5551 97.3985 71.1544 97.6331 70.6014C98.0299 69.7267 97.6331 68.7674 96.767 68.4513Z" fill="black"/>
<path d="M99.9239 49.4058H95.191C94.3249 49.4058 93.6152 50.1224 93.6152 50.9971C93.6152 51.8718 94.3249 52.5885 95.191 52.5885H99.9239C100.79 52.5885 101.5 51.8718 101.5 50.9971C101.5 50.1224 100.79 49.4058 99.9239 49.4058Z" fill="black"/>
<path d="M91.7942 35.5408C92.0289 35.5408 92.1909 35.5408 92.4256 35.3828L96.7674 33.5488C97.5553 33.2328 97.952 32.2734 97.6335 31.4777C97.3206 30.682 96.3706 30.2814 95.5828 30.603L91.241 32.4371C90.4531 32.7531 90.0564 33.7124 90.3749 34.5081C90.6096 35.1458 91.241 35.5464 91.7942 35.5464V35.5408Z" fill="black"/>
<path d="M84.4571 14.9037L81.1435 18.2501C80.5121 18.8878 80.5121 19.8415 81.1435 20.4791C81.4564 20.7952 81.8531 20.9588 82.2499 20.9588C82.6466 20.9588 83.0378 20.8008 83.3563 20.4791L86.6699 17.1328C87.3013 16.4951 87.3013 15.5414 86.6699 14.9037C86.0384 14.266 85.0941 14.345 84.4627 14.9037H84.4571Z" fill="black"/>
<path d="M67.3362 11.2355C67.5709 11.3145 67.7329 11.3935 67.9676 11.3935C68.599 11.3935 69.1522 10.9928 69.3869 10.4398L71.203 6.05506C71.5159 5.25937 71.1247 4.30004 70.3368 3.98402C69.549 3.668 68.599 4.06302 68.2861 4.85871L66.4701 9.24344C66.1571 9.96012 66.4701 10.9195 67.3362 11.2355Z" fill="black"/>
<path d="M80.4334 62.4754C79.7238 61.3581 79.8802 60.6414 79.9585 60.4044L81.456 58.5703C82.0092 57.9327 81.931 56.979 81.2995 56.3413C81.0648 56.1833 80.9028 55.9406 80.8246 55.8616C81.456 55.224 81.8527 54.5863 81.931 53.8696C82.0092 53.1529 81.7745 52.5942 81.5342 52.2782L80.5899 50.4442C80.5117 50.2072 80.5899 50.0435 80.5899 49.9645C80.6681 49.8855 80.9028 49.8065 81.0648 49.8065C81.2269 49.8065 81.2995 49.8065 81.4616 49.7275C83.909 49.0898 85.2501 48.0515 85.7251 46.6181C86.038 45.4218 85.5686 44.3891 85.0937 43.7514L77.9915 33.4696C77.4383 32.6739 77.2037 31.6356 76.9634 30.6029V30.4449C76.8852 30.0442 76.7287 29.5702 76.6505 29.1695C72.6272 14.9826 57.5569 9.5652 44.7719 11.4782C28.4387 14.0289 16.2852 28.2102 16.2852 44.6261C16.2852 52.7523 19.364 61.1211 24.8066 67.4978C32.0652 76.0246 32.5401 78.4963 33.7248 85.1101L33.9595 86.3064C34.2724 88.1405 35.5352 89.3368 37.0383 89.3368H51.0023C51.8684 89.3368 52.5781 88.6201 52.5781 87.7455V70.1332C52.5781 69.2585 51.8684 68.5418 51.0023 68.5418C50.1362 68.5418 49.4266 69.2585 49.4266 70.1332V86.0694H37.1948C37.1166 85.9904 37.1166 85.8324 37.0383 85.6688L36.8037 84.4724C35.619 77.7006 35.0658 74.5913 27.1758 65.3478C22.2809 59.6087 19.4423 52.0412 19.4423 44.6318C19.4423 29.8072 30.4894 16.9803 45.0848 14.7513C56.4449 12.9962 69.8613 17.7816 73.4095 30.1289C73.4878 30.5295 73.6442 30.9245 73.7224 31.2462V31.4042C74.0354 32.6796 74.3539 34.1129 75.22 35.3883L82.4003 45.6701C82.4003 45.7491 82.4786 45.7491 82.4786 45.8281C82.3221 45.9861 81.8471 46.3078 80.6625 46.6238C80.1093 46.7028 78.7683 46.8608 77.9804 47.9781C77.5054 48.6158 77.036 49.6542 77.5054 51.3245C77.5054 51.4825 77.5836 51.5616 77.6619 51.7252L78.6062 53.5592C78.528 53.6382 78.2933 53.8752 77.9748 54.0389C77.8183 54.1179 77.6619 54.2759 77.4998 54.5186C76.9466 55.3932 77.1031 56.4316 78.053 57.6279L77.2651 58.5816C77.1869 58.6606 77.1087 58.7396 77.1087 58.8186C77.0304 58.9767 76.0023 61.0477 77.5054 63.762C77.4272 64.8004 77.1925 66.7924 76.0861 67.9041C75.5329 68.4628 74.745 68.6998 73.7951 68.6208H67.2461C64.2455 68.6208 63.0665 72.3679 62.5133 74.1962L62.435 74.4332C61.3286 77.9376 60.9375 81.8427 61.2504 86.1484H58.0933C57.2272 86.1484 56.5175 86.8651 56.5175 87.7398C56.5175 88.6145 57.2272 89.3312 58.0933 89.3312H62.0383C62.6697 89.3312 63.3011 89.0942 63.6979 88.5355C64.1728 87.9768 64.4075 87.2601 64.4075 86.5435C64.0108 82.4014 64.3293 78.6543 65.3519 75.3869L65.4301 75.1499C66.4583 71.9615 67.0897 71.8035 67.1679 71.8035H73.5604C75.3764 71.8825 77.0304 71.3239 78.2151 70.1275C80.6625 67.7348 80.5843 63.7508 80.5843 63.2767C80.6625 62.9607 80.5843 62.7181 80.4278 62.4811L80.4334 62.4754Z" fill="black"/>
</g>
<defs>
<clipPath id="clip0_1626_1440">
<rect width="101" height="102" fill="white" transform="translate(0.5)"/>
</clipPath>
</defs>
</svg>
