<svg width="97" height="100" viewBox="0 0 97 100" fill="none" xmlns="http://www.w3.org/2000/svg">
<g clipPath="url(#clip0_1626_1461)">
<path d="M96.455 42.1457L85.0886 22.684C84.3469 21.4088 82.9928 20.6905 81.5938 20.6682V9.00789C81.5938 8.44548 81.1274 7.98886 80.5599 8.00557V8.03341C80.3464 8.03341 80.1498 8.11137 79.9812 8.23387C79.9812 8.23387 78.7451 9.15267 76.1493 10.1327C73.5535 11.1128 69.671 12.1039 64.5412 12.1039C59.4114 12.1039 55.5233 11.1128 52.9332 10.1327C50.343 9.15267 49.1012 8.23387 49.1012 8.23387C48.736 7.94988 48.2191 7.94988 47.8539 8.23387C47.8539 8.23387 46.7808 9.13596 44.2636 10.0993C41.7521 11.0738 37.8752 12.065 32.4532 12.065C27.0313 12.065 23.1544 11.0794 20.6429 10.0993C18.1314 9.13039 17.0526 8.23387 17.0526 8.23387C16.8784 8.07796 16.648 8 16.4064 8C15.8502 8 15.4007 8.44548 15.4007 8.99675V20.6626C14.0017 20.6626 12.6476 21.4032 11.9059 22.6784L0.53944 42.1401C-0.578667 44.0613 0.0899495 46.5448 2.03961 47.6585L8.07964 51.1053C9.56858 51.9573 11.389 51.7568 12.6701 50.7657L15.4007 52.4696V59.2965C15.4007 68.6794 23.7444 76.748 31.8633 82.5503C39.9822 88.3527 48.0843 91.9165 48.0843 91.9165C48.3484 92.0334 48.6461 92.0334 48.9102 91.9165C48.9102 91.9165 57.0123 88.3527 65.1312 82.5503C73.2501 76.748 81.5938 68.6794 81.5938 59.2965V52.2914L84.3019 50.7434C85.583 51.7624 87.4147 51.9629 88.9148 51.1165L94.9549 47.664C96.9045 46.5559 97.5732 44.0724 96.455 42.1457ZM17.4178 10.7898C18.0808 11.1629 18.8056 11.5582 19.9012 11.987C22.6375 13.045 26.7784 14.0919 32.4476 14.0919C38.1168 14.0919 42.2634 13.0506 44.9996 11.987C46.9156 11.2464 47.9269 10.6116 48.5113 10.2162C49.1125 10.6005 50.1969 11.2353 52.2083 11.9926C55.0008 13.045 59.1417 14.0919 64.5356 14.0919C69.9295 14.0919 74.0648 13.0506 76.8629 11.9926C78.0428 11.5471 78.8631 11.1239 79.5711 10.7452V21.1916H79.498L73.4636 24.6385C71.9634 25.4961 71.2218 27.1666 71.4746 28.7703L68.1765 30.6524L55.4896 28.6923C55.4896 28.6923 55.4671 28.6923 55.4559 28.6923H55.4391C54.7199 28.5921 53.967 28.5921 53.2197 28.8316L49.6182 29.7838C48.8035 28.0854 47.1628 26.9216 45.3255 26.671C44.6063 26.5708 43.8534 26.5708 43.1062 26.8102L28.7674 30.6357L25.5199 28.7814C25.7727 27.1777 25.0367 25.5016 23.5365 24.6497L17.4965 21.2028H17.4234V10.7898H17.4178ZM11.9172 48.6497C11.8891 48.7499 11.8554 48.7499 11.8216 48.7944C11.7542 48.8557 11.698 48.9336 11.6531 49.0116C11.0126 49.7188 9.9675 49.9025 9.09661 49.4014L3.05659 45.949C2.05085 45.381 1.71935 44.1503 2.30369 43.1536L13.6646 23.6974C13.9567 23.1963 14.4118 22.8677 14.9175 22.7341C15.1085 22.6394 15.3052 22.6394 15.5075 22.6394V22.6729C15.6929 22.6729 15.8895 22.6729 16.0862 22.7675C16.0862 22.7675 16.0974 22.7675 16.103 22.7787C16.2323 22.7787 16.3615 22.8733 16.4795 22.9457L22.5195 26.3926C23.396 26.8937 23.7556 27.8849 23.4578 28.787C23.4185 28.865 23.3848 28.9374 23.3623 29.0209C23.3286 29.1155 23.3117 29.1267 23.278 29.1879L11.9172 48.6497ZM16.9515 50.9717L13.923 49.084L24.7557 30.5411L28.1213 32.4677C28.1213 32.4677 28.1662 32.4677 28.1887 32.4677H28.3629C28.3629 32.4677 28.3797 32.4677 28.391 32.4677H28.4528C28.4528 32.4677 28.4809 32.4677 28.4921 32.4677C28.509 32.4677 28.5258 32.4677 28.5427 32.4677C28.5595 32.4677 28.5764 32.4677 28.5933 32.4677C28.6045 32.4677 28.6213 32.4677 28.627 32.4677H28.7C28.7 32.4677 28.7169 32.4677 28.7225 32.4677H28.8686L43.6006 28.542C43.9602 28.4418 44.3198 28.3972 44.6794 28.4195L44.7075 28.6255C45.9099 28.6255 46.9999 29.3049 47.6179 30.3295L36.729 33.2139C33.7512 34.0046 31.97 37.045 32.7679 40.0019C33.5601 42.9476 36.6504 44.7183 39.6339 43.9165L56.1863 39.4394L74.5873 57.6315C75.7448 58.7787 75.7448 60.5773 74.5873 61.7299C73.4299 62.877 71.6095 62.877 70.452 61.7299L67.9855 59.2965C67.5921 58.8845 66.9404 58.8733 66.5359 59.2687C66.1313 59.664 66.1369 60.3155 66.5583 60.6998L69.0193 63.1332C70.1767 64.2858 70.1767 66.0845 69.0193 67.2316C67.8618 68.3787 66.0414 68.3787 64.8784 67.2316L62.5298 64.9095C62.3387 64.7146 62.0747 64.6032 61.805 64.6088C60.9004 64.6088 60.4509 65.6947 61.097 66.3183L63.4456 68.6459C64.603 69.793 64.603 71.5972 63.4456 72.7443C62.2882 73.8914 60.4677 73.8914 59.3047 72.7443L56.9168 70.3833C56.7257 70.1884 56.4617 70.0826 56.192 70.0826C55.2874 70.0826 54.8435 71.174 55.4896 71.7921L57.8663 74.142H57.8775C59.035 75.2891 59.035 77.0933 57.8775 78.2404C56.7201 79.3875 54.8941 79.3875 53.731 78.2404L50.0564 74.5986L52.1297 72.555C54.0513 70.645 54.0513 67.5434 52.1297 65.639C51.1633 64.6868 49.8991 64.2079 48.6293 64.2079H47.9607C48.1629 62.749 47.691 61.2121 46.556 60.0872C45.5896 59.1406 44.3254 58.6561 43.0556 58.6561H42.387C42.5893 57.1972 42.1229 55.6548 40.9879 54.5355C40.0215 53.5889 38.7574 53.11 37.4875 53.11H36.8189C37.0212 51.6455 36.5492 50.1086 35.4143 48.9893C34.4479 48.0371 33.1837 47.5582 31.9139 47.5582C30.644 47.5582 29.3799 48.0371 28.4191 48.9893L22.8454 54.4909C22.8117 54.4909 22.7948 54.5912 22.7611 54.5912L16.9515 50.9661C16.9515 50.9661 16.9515 50.9661 16.9402 50.955L16.9515 50.9717ZM29.8518 61.5684L35.4199 56.0612C36.0042 55.4933 36.7459 55.2037 37.4932 55.2037C38.2404 55.2037 38.9821 55.4933 39.5664 56.0612C40.7239 57.2084 40.7239 59.007 39.5664 60.1596L33.9928 65.6613C32.8353 66.8084 31.0149 66.8084 29.8518 65.6613C28.6944 64.5142 28.6944 62.7155 29.8518 61.5684ZM28.4247 60.1541C27.2673 61.3067 25.4412 61.3067 24.2781 60.1541C23.1207 59.007 23.1207 57.2084 24.2781 56.0557L29.8518 50.5541C30.4305 49.9861 31.1778 49.6965 31.9195 49.6965C32.6611 49.6965 33.414 49.9861 33.9928 50.5541C35.1502 51.7012 35.1502 53.4998 33.9928 54.6524L28.4247 60.1541ZM35.4199 67.0701L40.9936 61.5629C41.5723 60.9949 42.3196 60.7053 43.0612 60.7053C43.8029 60.7053 44.5558 60.9949 45.1345 61.5629C46.2919 62.7155 46.2919 64.5142 45.1345 65.6613L39.5664 71.1684C38.409 72.3155 36.5829 72.3155 35.4199 71.1684C34.2624 70.0213 34.2624 68.2172 35.4199 67.0701ZM40.9936 72.5773L46.5672 67.0701C47.146 66.5021 47.8876 66.2125 48.6349 66.2125C49.3822 66.2125 50.1238 66.5021 50.7082 67.0701C51.8656 68.2172 51.8656 70.0213 50.7082 71.1684L45.1345 76.6756C43.9771 77.8227 42.1566 77.8227 40.9936 76.6756C39.8361 75.5285 39.8361 73.7244 40.9936 72.5773ZM79.5711 59.3188C79.5711 67.4988 71.8679 75.2947 63.9457 80.9522C56.3549 86.3759 49.1125 89.6334 48.4944 89.9118C47.8764 89.6334 40.6396 86.3759 33.0432 80.9522C25.1209 75.2891 17.4178 67.4988 17.4178 59.3188V53.7559L21.7048 56.4343C21.0699 58.1661 21.452 60.1875 22.851 61.5629C23.986 62.6821 25.5423 63.1443 27.02 62.9494C26.8178 64.4139 27.2897 65.9508 28.4247 67.0701C29.5597 68.1893 31.1104 68.6515 32.5937 68.4566C32.3914 69.9155 32.8578 71.458 33.9928 72.5773C35.1277 73.6965 36.6841 74.1587 38.1618 73.9582C37.9595 75.4227 38.4315 76.9652 39.5664 78.0844C41.488 79.9889 44.6401 79.9889 46.5672 78.0844L48.6349 76.0408L52.3151 79.677C54.2367 81.5814 57.3887 81.5814 59.3103 79.677C60.4453 78.5578 60.9116 77.0153 60.7093 75.5564C62.1926 75.7568 63.749 75.2947 64.884 74.1698C66.0189 73.0506 66.4797 71.5137 66.283 70.0492C67.7663 70.2496 69.3227 69.7875 70.4576 68.6626C71.5926 67.5434 72.0533 66.0065 71.8567 64.542C73.3344 64.748 74.8907 64.2803 76.0257 63.1555C77.9417 61.2622 77.9473 58.1773 76.0594 56.2729L79.5767 53.6668V59.3244L79.5711 59.3188ZM80.2116 50.7657C80.1217 50.7991 80.0374 50.8492 79.9587 50.9104L79.734 51.0385H79.5767L74.6154 54.7081L57.2145 37.5128C57.2145 37.5128 57.1808 37.5128 57.164 37.5128C56.9786 37.3457 56.7426 37.251 56.4897 37.2455C56.3493 37.2566 56.2088 37.2845 56.0852 37.3457L39.1113 41.9397C37.1898 42.4575 35.2457 41.3494 34.7288 39.4283C34.2063 37.5128 35.3244 35.5972 37.2572 35.0849L49.2754 31.8998H49.2923L53.7535 30.7193C54.1131 30.619 54.4727 30.5856 54.8266 30.5968L54.8154 30.6636C54.9334 30.6636 55.0514 30.6636 55.1637 30.6636L68.2046 32.6793C68.2046 32.6793 68.2439 32.6793 68.2664 32.6905C68.5417 32.7183 68.817 32.6459 69.0361 32.4677L72.2388 30.6413L83.049 49.1452L80.206 50.7712L80.2116 50.7657ZM93.9435 45.9879L87.9091 49.4348C87.0326 49.9415 85.9875 49.7578 85.347 49.0506C85.3021 48.9726 85.2459 48.9002 85.1841 48.839C85.1504 48.839 85.111 48.7443 85.0829 48.6886L73.7221 29.2269C73.6884 29.1267 73.6603 29.1155 73.6378 29.071C73.6153 28.9875 73.5872 28.9151 73.5423 28.8371C73.2389 27.9295 73.6041 26.9383 74.4806 26.4371L80.5206 22.9903C80.6386 22.89 80.7622 22.8566 80.8914 22.8176C80.9027 22.8176 80.9195 22.8176 80.9308 22.8176C81.1162 22.723 81.3128 22.723 81.5039 22.723L81.4926 22.6784C81.6949 22.6673 81.8916 22.6784 82.0826 22.7731C82.5939 22.9067 83.049 23.2353 83.3355 23.7364L94.702 43.1981C95.2864 44.2005 94.9492 45.42 93.9435 45.9935V45.9879Z" fill="black"/>
</g>
<defs>
<clipPath id="clip0_1626_1461">
<rect width="97" height="100" fill="white"/>
</clipPath>
</defs>
</svg>
