<svg width="84" height="100" viewBox="0 0 84 100" fill="none" xmlns="http://www.w3.org/2000/svg">
<g clipPath="url(#clip0_1626_1465)">
<path d="M49.6553 31.0691C50.0178 31.0691 50.3859 30.9404 50.6759 30.6774L60.1518 22.0765C60.7709 21.5113 60.8211 20.5544 60.2577 19.9333C59.6944 19.3122 58.7351 19.2674 58.116 19.827L49.711 27.4598L46.8331 24.5779C46.2419 23.9847 45.2826 23.9847 44.6914 24.5779C44.1002 25.1711 44.1002 26.128 44.6914 26.7211L48.5956 30.6215C48.8912 30.9181 49.2816 31.0635 49.6664 31.0635L49.6553 31.0691Z" fill="black"/>
<path d="M31.1833 26.6819C31.886 28.0473 32.2374 28.7356 32.3378 29.3064C32.4382 29.8772 32.3378 30.6438 32.1537 32.1659C32.1035 32.552 32.0533 32.9773 31.992 33.4586C31.6741 36.0998 33.1074 38.5788 35.5503 39.6253C35.9965 39.8155 36.3925 39.9834 36.7494 40.1345C36.8164 40.1625 36.8777 40.1904 36.9391 40.2128L31.306 52.3168C31.0661 52.8316 31.1331 53.4304 31.4789 53.878C31.8247 54.3257 32.388 54.5439 32.9457 54.4488L39.1365 53.3688L42.2933 58.808C42.5666 59.2781 43.063 59.5635 43.604 59.5635C43.6263 59.5635 43.6486 59.5635 43.6709 59.5635C44.2342 59.5355 44.7362 59.1997 44.976 58.6905L50.57 46.6761L50.4585 46.6257C51.4178 46.3347 51.9811 46.1893 52.444 46.1893C53.024 46.1893 53.7603 46.4187 55.2271 46.872C55.3833 46.9223 55.545 46.9671 55.7123 47.023L59.7503 56.3962C59.9734 56.9166 60.4642 57.2691 61.0275 57.3083C61.0665 57.3083 61.1056 57.3083 61.1391 57.3083C61.6633 57.3083 62.1485 57.0397 62.4274 56.592L65.7403 51.248L71.8977 52.507C72.4499 52.6189 73.0187 52.4175 73.3757 51.981C73.7326 51.5445 73.8163 50.9458 73.5932 50.4254L69.0031 39.7708C69.109 39.726 69.215 39.6812 69.3266 39.6309C71.7694 38.5844 73.2028 36.1054 72.8849 33.4642C72.8291 32.9829 72.7733 32.5576 72.7231 32.1715C72.5335 30.6438 72.4331 29.8828 72.5391 29.312C72.6395 28.7412 72.9909 28.0529 73.6936 26.6875C73.8721 26.3406 74.0673 25.9601 74.2848 25.5292C75.4839 23.1565 74.9875 20.3362 73.0466 18.5175C72.6953 18.1874 72.3773 17.8964 72.0929 17.6278C70.9663 16.5813 70.403 16.0553 70.113 15.5573C69.8229 15.0536 69.65 14.3038 69.3098 12.8041C69.2262 12.4292 69.1258 12.0095 69.0198 11.5338C68.4119 8.94292 66.22 7.10186 63.5652 6.95637C63.08 6.92839 62.6505 6.90601 62.2657 6.88922C60.7319 6.81088 59.9622 6.77171 59.4157 6.57585C58.8691 6.37999 58.2556 5.90994 57.0286 4.98102C56.7218 4.74599 56.376 4.48858 55.9912 4.19759C53.8606 2.60276 50.9995 2.60276 48.8689 4.19759C48.4841 4.48858 48.1383 4.74599 47.8316 4.98102C46.6046 5.90994 45.9911 6.3744 45.4445 6.57585C44.8979 6.77171 44.1282 6.81088 42.5945 6.88922C42.2096 6.90601 41.7802 6.92839 41.2949 6.95637C38.6401 7.10186 36.4483 8.94292 35.8403 11.5338C35.7288 12.0039 35.634 12.4236 35.5503 12.8041C35.2101 14.3038 35.0372 15.0536 34.7472 15.5573C34.4572 16.0609 33.8938 16.5813 32.7672 17.6278C32.4828 17.8908 32.1705 18.1818 31.8135 18.5175C29.8726 20.3362 29.3762 23.1565 30.5753 25.5292C30.7929 25.9601 30.9881 26.3462 31.1665 26.6875L31.1833 26.6819ZM43.4534 54.7734L41.2224 50.9346C40.9045 50.3862 40.2743 50.0952 39.6496 50.2015L35.277 50.9682L39.5994 41.6846C39.9564 42.0819 40.358 42.703 41.0161 43.7215C41.228 44.046 41.4623 44.4098 41.7244 44.8127C42.851 46.5306 44.7083 47.5099 46.6715 47.5099C46.7273 47.5099 46.783 47.5099 46.8388 47.5043L43.4534 54.779V54.7734ZM69.6723 48.9536L65.322 48.0639C64.6974 47.9352 64.0671 48.2094 63.7325 48.7522L61.39 52.5238L59.1926 47.4259C60.7821 47.1573 62.2266 46.2452 63.1636 44.8183C63.4258 44.4154 63.66 44.0516 63.8719 43.7271C64.7085 42.4344 65.1268 41.7853 65.5674 41.416C65.7403 41.2705 65.9579 41.1362 66.2367 40.9907L69.6668 48.9648L69.6723 48.9536ZM33.905 20.7223C34.2508 20.3977 34.5631 20.1067 34.842 19.8493C37.5303 17.3536 37.7032 17.057 38.523 13.4756C38.6067 13.1063 38.7015 12.6922 38.813 12.2221C39.1142 10.9351 40.1628 10.0565 41.4846 9.97816C41.9586 9.95018 42.3825 9.9278 42.7674 9.91101C46.4317 9.72634 46.7551 9.60883 49.6832 7.39285C49.99 7.16342 50.3246 6.90601 50.7095 6.62062C51.2393 6.22331 51.8472 6.02745 52.4552 6.02745C53.0631 6.02745 53.671 6.22331 54.2009 6.62062C54.5801 6.90601 54.9203 7.16342 55.2271 7.39285C58.1552 9.60883 58.4787 9.72634 62.143 9.91101C62.5222 9.9278 62.9461 9.95018 63.4258 9.97816C64.7476 10.0509 65.7961 10.9295 66.0973 12.2221C66.2088 12.6866 66.2981 13.1007 66.3873 13.4756C67.2016 17.057 67.3745 17.3536 70.0683 19.8493C70.3472 20.1067 70.6595 20.3977 71.0053 20.7223C71.9702 21.6288 72.21 22.9774 71.6133 24.1582C71.3957 24.5835 71.2061 24.964 71.0276 25.2997C69.3544 28.5678 69.2931 28.9035 69.7504 32.5464C69.795 32.927 69.8508 33.3467 69.9066 33.8223C70.0628 35.1373 69.3768 36.3237 68.1609 36.8441C67.7203 37.0344 67.3299 37.1966 66.9785 37.3477C63.5986 38.7747 63.3309 38.9929 61.3398 42.0763C61.1335 42.3952 60.9048 42.7534 60.6427 43.1507C59.9176 44.2587 58.6348 44.7231 57.3688 44.3426C56.9114 44.2027 56.5043 44.0796 56.1418 43.9677C52.6336 42.8877 52.2934 42.8877 48.7853 43.9677C48.4228 44.0796 48.0156 44.2027 47.5583 44.3426C46.2922 44.7231 45.0039 44.2587 44.2844 43.1507C44.0223 42.7534 43.7936 42.3952 43.5872 42.0763C41.5961 38.9929 41.334 38.7691 37.9486 37.3477C37.5972 37.2022 37.2068 37.0344 36.7662 36.8441C35.5503 36.3237 34.8643 35.1373 35.0205 33.8223C35.0762 33.3467 35.132 32.927 35.1766 32.5464C35.634 28.9035 35.5726 28.5678 33.8994 25.2997C33.7265 24.9584 33.5313 24.5835 33.3138 24.1582C32.717 22.9774 32.9569 21.6288 33.9217 20.7223H33.905Z" fill="black"/>
<path d="M52.4436 39.1549C60.1068 39.1549 66.3423 32.9155 66.3423 25.2547C66.3423 17.5939 60.1068 11.3545 52.4436 11.3545C44.7804 11.3545 38.5449 17.5939 38.5449 25.2547C38.5449 32.9155 44.7804 39.1549 52.4436 39.1549ZM52.4436 14.3819C58.4392 14.3819 63.3138 19.2559 63.3138 25.2491C63.3138 31.2423 58.4392 36.122 52.4436 36.122C46.448 36.122 41.5734 31.2479 41.5734 25.2491C41.5734 19.2503 46.448 14.3819 52.4436 14.3819Z" fill="black"/>
<path d="M83.1184 63.928C82.3041 62.5682 78.9577 58.5168 70.2013 63.6202L54.992 72.4786C54.3673 72.8423 53.7315 73.1165 53.0734 73.3068C53.2853 72.9039 53.4582 72.4618 53.5865 71.9861C54.3841 68.9979 52.6161 65.881 49.5485 64.8849C49.4816 64.8625 49.4147 64.8458 49.3478 64.8346C44.9919 64.0511 40.6862 62.4899 37.2227 61.242C36.018 60.8055 34.8802 60.397 33.9097 60.078C29.9554 58.7966 26.3915 60.3746 23.43 62.087L12.2586 68.5558L11.277 66.8155C10.7862 65.9425 9.97746 65.3158 9.01258 65.0472C8.04213 64.7786 7.03264 64.9017 6.16257 65.3941L1.89592 67.8116C0.094451 68.83 -0.541363 71.13 0.479286 72.9318L13.0227 95.0972C13.5135 95.9702 14.3222 96.5969 15.2871 96.8655C15.6217 96.9607 15.9619 97.0054 16.3021 97.0054C16.9435 97.0054 17.5738 96.8431 18.1427 96.5186L22.4093 94.1011C24.2108 93.0827 24.8466 90.7828 23.8259 88.9809L22.6157 86.8377L24.9916 85.4667L44.4007 90.6708C45.4883 90.9618 46.5758 91.1073 47.6411 91.1073C49.7995 91.1073 51.8799 90.5142 53.7873 89.339L81.3839 72.3443C83.9717 70.7494 84.7972 66.7372 83.1128 63.928H83.1184ZM20.9202 91.4599L16.6535 93.8773C16.4304 94.006 16.2129 93.9724 16.1069 93.9445C15.9954 93.9165 15.7946 93.8325 15.6719 93.6087L3.12293 71.4321C2.92773 71.0908 3.05601 70.6375 3.39622 70.4472L7.66287 68.0298C7.78557 67.9571 7.90827 67.9403 8.01424 67.9403C8.0979 67.9403 8.16483 67.9515 8.21503 67.9683C8.32657 67.9962 8.52736 68.0802 8.65006 68.304L21.1934 90.4694C21.3887 90.8107 21.2604 91.264 20.9202 91.4543V91.4599ZM79.7999 69.759L52.2033 86.7537C50.0561 88.0744 47.6969 88.4045 45.1926 87.7386L25.1757 82.3721C24.7852 82.2658 24.3725 82.3218 24.0267 82.5232L21.1265 84.1964L13.7645 71.1859L24.9581 64.7059C27.4624 63.2565 30.1674 62.0422 32.9783 62.9543C33.8986 63.2509 34.9638 63.637 36.1964 64.0847C39.738 65.3662 44.133 66.9554 48.7008 67.7892C50.2011 68.3208 51.0377 69.7646 50.6528 71.1915C50.1509 73.0661 48.5781 73.3012 47.3232 73.1557C45.0923 72.6968 42.9729 72.0924 40.7252 71.4489C39.6544 71.1411 38.5501 70.8278 37.4179 70.5256C36.6092 70.3074 35.7781 70.7886 35.5606 71.6C35.3431 72.4114 35.8228 73.2396 36.6315 73.4578C37.7414 73.7544 38.8345 74.0678 39.8942 74.37C42.2199 75.0359 44.4118 75.6626 46.7822 76.1439L46.8435 76.1551L48.7342 76.4628C51.601 76.9217 54.1498 76.474 56.5146 75.0974L71.724 66.2391C76.0129 63.7434 79.298 63.458 80.5138 65.4893C81.3448 66.8771 80.9823 69.0371 79.7943 69.7701L79.7999 69.759Z" fill="black"/>
<path d="M7.09478 70.8838C6.26376 71.0069 5.68372 71.7791 5.80642 72.6129C5.92912 73.4467 6.70437 74.0231 7.53539 73.8999C8.36641 73.7768 8.94645 73.0046 8.82375 72.1708C8.70105 71.337 7.9258 70.7606 7.09478 70.8838Z" fill="black"/>
</g>
<defs>
<clipPath id="clip0_1626_1465">
<rect width="84" height="100" fill="white"/>
</clipPath>
</defs>
</svg>
