<svg width="92" height="100" viewBox="0 0 92 100" fill="none" xmlns="http://www.w3.org/2000/svg">
<g clipPath="url(#clip0_1626_1473)">
<path d="M14.2249 22.7309C11.9647 22.7309 10.1554 20.9029 10.1836 18.6823C10.1836 17.7515 9.42833 17.0001 8.49268 17.0001C7.55704 17.0001 6.80176 17.7515 6.80176 18.6823C6.80176 22.7309 10.1216 26.0618 14.2193 26.0618C18.317 26.0618 21.6368 22.6692 21.6368 18.6207C21.6368 14.5721 18.317 11.2412 14.2193 11.2412C13.2836 11.2412 12.5284 11.9926 12.5284 12.9235C12.5284 13.8543 13.2836 14.6057 14.2193 14.6057C16.4795 14.6057 18.2888 16.4674 18.2888 18.6879C18.2888 20.9085 16.4795 22.7365 14.2193 22.7365L14.2249 22.7309Z" fill="black"/>
<path d="M89.4991 91.6411H88.2929L90.7053 89.2411C91.7593 88.1589 91.7593 86.4206 90.7053 85.372L76.2309 70.972C75.1769 69.9514 73.3676 69.9514 72.3418 70.972L71.0003 72.3065L66.9196 68.2467C71.0454 63.2897 71.9022 56.5215 69.4954 50.8131H72.556C73.4916 50.8131 74.2469 50.0617 74.2469 49.1308C74.2469 48.2 73.4916 47.4486 72.556 47.4486H72.1051V16.2486C72.1051 15.3178 71.3498 14.5664 70.4141 14.5664C69.4785 14.5664 68.7232 15.3178 68.7232 16.2486V47.4486H67.5959C67.0718 46.7252 66.4799 46.0299 65.8261 45.3794C65.1948 44.757 64.5297 44.1907 63.8364 43.6804V21.172C63.8364 20.2411 63.0812 19.4897 62.1455 19.4897C61.2099 19.4897 60.4546 20.2411 60.4546 21.172V41.7738C58.8877 41.1065 57.2418 40.686 55.5678 40.5065V24.7664C55.5678 23.8355 54.8125 23.0841 53.8769 23.0841C52.9412 23.0841 52.186 23.8355 52.186 24.7664V40.4729C50.5176 40.6187 48.8718 41.0112 47.2992 41.6393V29.5664C47.2992 28.6355 46.5439 27.8841 45.6083 27.8841C44.6726 27.8841 43.9173 28.6355 43.9173 29.5664V43.4673C43.1113 44.028 42.3448 44.6617 41.6233 45.3738C40.9695 46.0243 40.3777 46.7196 39.8535 47.443H39.0024V25.6916C39.0024 24.7607 38.2471 24.0093 37.3115 24.0093C36.3758 24.0093 35.6205 24.7607 35.6205 25.6916V47.443H34.5045C33.5689 47.443 32.8136 48.1944 32.8136 49.1252C32.8136 50.0561 33.5689 50.8075 34.5045 50.8075H37.9596C35.3556 56.9925 36.5731 64.4112 41.6233 69.4355C44.9714 72.7664 49.3452 74.415 53.7191 74.415C57.5575 74.415 61.4015 73.1421 64.5466 70.5738L68.633 74.6393L67.3198 75.9458C66.7787 76.4561 66.5081 77.1458 66.5081 77.8636C66.5081 78.5813 66.8125 79.271 67.3198 79.7813L79.2351 91.6299H15.91V30.6206C15.91 29.6897 15.1547 28.9383 14.219 28.9383C14.1514 28.9383 14.0838 28.9495 14.0218 28.9607C8.38535 28.8542 3.84803 24.2841 3.84803 18.6486C3.84803 13.0131 8.49244 8.33084 14.2247 8.33084C19.9569 8.33084 24.6013 12.9514 24.6013 18.6486V84.0766C24.6013 85.0075 25.3566 85.7589 26.2923 85.7589H64.9243C65.8599 85.7589 66.6152 85.0075 66.6152 84.1103C66.6152 83.1794 65.8599 82.428 64.9243 82.428H27.9437V18.6486C27.9437 14.5271 26.1006 10.8318 23.1922 8.33084H69.1121C74.8444 8.33084 79.4888 12.9514 79.4888 18.6486V68.628C79.4888 69.5589 80.2441 70.3103 81.1797 70.3103C82.1154 70.3103 82.8706 69.5589 82.8706 68.6617V18.6486C82.8706 11.1178 76.7157 5 69.146 5H14.2247C6.65497 5 0.5 11.1178 0.5 18.6486C0.5 25.6075 5.75878 31.3607 12.5338 32.2131V91.6355H5.92787C4.99223 91.6355 4.23695 92.3869 4.23695 93.3178C4.23695 94.2486 4.99223 95 5.92787 95H89.4991C90.4347 95 91.1562 94.2486 91.19 93.3178C91.19 92.3869 90.4347 91.6355 89.4991 91.6355V91.6411ZM44.0188 67.1028C38.6529 61.7645 38.6529 53.0953 44.0188 47.7514C46.7017 45.0822 50.202 43.7589 53.7304 43.7589C56.3006 43.7589 58.8539 44.471 61.1028 45.8841C61.193 45.957 61.2888 46.0187 61.3959 46.0692C62.123 46.5514 62.8219 47.1121 63.4701 47.7514C64.1014 48.3794 64.6537 49.0579 65.1328 49.7645C65.2061 49.9383 65.3075 50.0953 65.4315 50.2355C68.712 55.5121 68.0638 62.5215 63.4701 67.0972C58.1042 72.4355 49.3847 72.4355 44.0188 67.0972V67.1028ZM74.2695 73.7028L87.904 87.2953L83.7443 91.4336L70.1098 77.8748L74.2695 73.7028Z" fill="black"/>
<path d="M46.2791 50.0617C45.614 50.6897 45.614 51.7439 46.2791 52.4C46.9442 53.0561 47.9982 53.0617 48.6633 52.4C51.4702 49.6075 55.9906 49.6075 58.7976 52.4C59.1301 52.7308 59.5529 52.8822 59.9756 52.8822C60.3983 52.8822 60.8211 52.7308 61.1536 52.4C61.8187 51.772 61.8187 50.7178 61.1536 50.0617C57.0503 45.9794 50.388 45.9794 46.2847 50.0617H46.2791Z" fill="black"/>
</g>
<defs>
<clipPath id="clip0_1626_1473">
<rect width="91" height="100" fill="white" transform="translate(0.5)"/>
</clipPath>
</defs>
</svg>
