<svg width="100" height="102" viewBox="0 0 100 102" fill="none" xmlns="http://www.w3.org/2000/svg">
<g clipPath="url(#clip0_1626_1479)">
<path d="M97.9385 45.406C97.5816 45.1032 97.1114 44.9742 96.6525 45.0471L91.6671 45.8378C90.5171 36.4444 86.1945 27.6454 79.3962 20.9102C72.5923 14.175 63.7092 9.90169 54.2143 8.76326L55.0131 3.82821C55.0867 3.37396 54.9564 2.90289 54.6505 2.55519C54.3446 2.20189 53.9027 2 53.4381 2H44.572C44.1018 2 43.6599 2.20189 43.3597 2.55519C43.0537 2.9085 42.9234 3.37396 42.9971 3.82821L43.7959 8.76326C34.3066 9.90169 25.4179 14.1806 18.6139 20.9102C11.81 27.6454 7.49306 36.4388 6.34302 45.8378L1.35761 45.0471C0.89306 44.9742 0.422845 45.1032 0.0716006 45.406C-0.285309 45.7088 -0.489258 46.1463 -0.489258 46.6061V55.3827C-0.489258 55.8481 -0.285309 56.2856 0.0716006 56.5828C0.360528 56.8295 0.728768 56.9585 1.10834 56.9585C1.19332 56.9585 1.2783 56.9529 1.36327 56.9361L6.34868 56.1454C7.49872 65.5388 11.8213 74.3377 18.6196 81.073C25.4235 87.8082 34.3066 92.0815 43.8016 93.2199L43.0028 98.155C42.9291 98.6092 43.0594 99.0803 43.3653 99.428C43.6713 99.7813 44.1131 99.9832 44.5777 99.9832H53.4438C53.914 99.9832 54.3559 99.7813 54.6562 99.428C54.9621 99.0747 55.0924 98.6092 55.0187 98.155L54.2199 93.2199C63.7092 92.0815 72.5979 87.8026 79.4019 81.073C86.2058 74.3377 90.5228 65.5444 91.6728 56.1454L96.6582 56.9361C96.7432 56.9473 96.8282 56.9585 96.9131 56.9585C97.2927 56.9585 97.6553 56.8239 97.9499 56.5828C98.3068 56.2799 98.5107 55.8425 98.5107 55.3827V46.6061C98.5107 46.1407 98.3068 45.7032 97.9499 45.406H97.9385ZM53.7044 11.8925C72.0428 14.018 86.3588 28.1894 88.5059 46.3425L83.0107 47.2118C81.2488 31.5206 68.6776 19.0764 52.8263 17.3323L53.7044 11.8869V11.8925ZM51.5573 5.16292L48.9966 21.0056L46.4359 5.16292H51.5573ZM44.2888 11.8925L45.1669 17.3379C29.3156 19.082 16.7444 31.5262 14.9825 47.2174L9.48156 46.3482C11.6287 28.195 25.9447 14.0236 44.2831 11.8981L44.2888 11.8925ZM2.6946 53.532V48.4624L18.6989 50.9972L2.6946 53.532ZM44.2944 90.1075C25.9561 87.982 11.64 73.8106 9.49289 55.6575L14.9882 54.7882C16.7501 70.4794 29.3212 82.9236 45.1726 84.6677L44.2944 90.1131V90.1075ZM46.4416 96.8371L49.0022 80.9945L51.5629 96.8371H46.4416ZM50.9738 73.1825C50.8151 72.2179 49.988 71.5225 49.0022 71.5225C48.0165 71.5225 47.1894 72.2235 47.0307 73.1825L45.6768 81.544C31.1851 80.0187 19.6846 68.6344 18.1437 54.2891L26.5906 52.9488C27.565 52.7974 28.2675 51.973 28.2675 50.9972C28.2675 50.0214 27.5593 49.2026 26.5906 49.0456L18.1437 47.7053C19.6846 33.36 31.1851 21.9757 45.6768 20.4504L47.0307 28.8119C47.1894 29.7765 48.0165 30.4719 49.0022 30.4719C49.988 30.4719 50.8151 29.7709 50.9738 28.8119L52.3277 20.4504C66.8194 21.9757 78.3198 33.36 79.8608 47.7053L71.4139 49.0456C70.4395 49.2026 69.737 50.0214 69.737 50.9972C69.737 51.973 70.4452 52.7918 71.4139 52.9488L79.8608 54.2891C78.3198 68.6344 66.8194 80.0187 52.3277 81.544L50.9738 73.1825ZM53.7101 90.1075L52.8319 84.6621C68.6833 82.918 81.2544 70.4738 83.0163 54.7826L88.5116 55.6518C86.3645 73.805 72.0484 87.9764 53.7101 90.1019V90.1075ZM95.3099 53.532L79.3056 50.9972L95.3099 48.4624V53.532Z" fill="black"/>
<path d="M55.1329 51.4459C57.4443 49.6457 58.9343 46.8529 58.9343 43.7181C58.9343 38.2951 54.4757 33.8872 49.0031 33.8872C43.5305 33.8872 39.0719 38.3007 39.0719 43.7181C39.0719 46.8529 40.5619 49.6457 42.8733 51.4459C36.5169 53.7003 31.7808 59.3756 31.0216 66.3688C30.9707 66.8174 31.1179 67.2605 31.4239 67.5914C31.7298 67.9222 32.1604 68.1129 32.6136 68.1129H65.404C65.8572 68.1129 66.2877 67.9222 66.5937 67.5914C66.8939 67.2605 67.0412 66.8118 66.9959 66.3688C66.2424 59.37 61.5006 53.7003 55.1499 51.4459H55.1329ZM42.2615 43.7181C42.2615 40.0392 45.2867 37.0445 49.0031 37.0445C52.7195 37.0445 55.7447 40.0392 55.7447 43.7181C55.7447 47.3969 52.7195 50.3916 49.0031 50.3916C45.2867 50.3916 42.2615 47.3969 42.2615 43.7181ZM34.4888 64.9556C36.024 58.3437 41.9725 53.5489 48.9974 53.5489C56.0223 53.5489 61.9765 58.3437 63.5061 64.9556H34.4831H34.4888Z" fill="black"/>
</g>
<defs>
<clipPath id="clip0_1626_1479">
<rect width="99" height="102" fill="white" transform="translate(0.5)"/>
</clipPath>
</defs>
</svg>
