<svg width="66" height="66" viewBox="0 0 66 66" fill="none" xmlns="http://www.w3.org/2000/svg">
<g clip-path="url(#clip0_1633_1640)">
<path d="M60.0263 5.78061H52.6444C52.5252 5.4683 52.264 5.21845 51.9233 5.12759L32.753 0.0340704C32.5713 -0.0113568 32.3839 -0.0113568 32.2079 0.0340704L13.0319 5.12759C12.6912 5.21845 12.43 5.46262 12.3108 5.78061H5.97367C2.6802 5.78061 0 8.46081 0 11.7543V45.5351C0 48.8285 2.6802 51.5087 5.97367 51.5087H21.8959V57.1814H15.485C12.589 57.1814 10.2325 59.1575 10.2325 61.5936V64.9381C10.2325 65.5287 10.7095 66 11.2943 66H54.6886C55.2792 66 55.7505 65.523 55.7505 64.9381V61.5936C55.7505 59.1632 53.394 57.1814 50.498 57.1814H44.0871V51.5087H60.0093C63.3028 51.5087 65.983 48.8285 65.983 45.5351V11.7543C65.983 8.46081 63.3028 5.78061 60.0093 5.78061H60.0263ZM50.4923 17.285L51.6337 17.9437V21.9186L51.134 21.5438C50.9466 21.4019 50.7194 21.3281 50.4923 21.3281C50.2652 21.3281 50.0437 21.4019 49.8506 21.5438L49.3509 21.9186V17.9437L50.4923 17.285ZM49.4304 15.4396L47.761 16.4049C47.4316 16.5923 47.2272 16.9443 47.2272 17.3248V24.048C47.2272 24.4512 47.4544 24.8203 47.8178 25.002C48.1812 25.1837 48.6127 25.1439 48.9307 24.8998L50.4923 23.7243L52.0539 24.8998C52.2412 25.0417 52.4684 25.1155 52.6955 25.1155C52.8602 25.1155 53.0192 25.0758 53.1725 25.002C53.5359 24.8203 53.7631 24.4512 53.7631 24.048V17.3248C53.7631 16.9443 53.5586 16.5923 53.2293 16.4049L51.5598 15.4396V12.0155H59.7708V41.1059H6.23488V12.0155H18.3015V18.239C18.3015 18.7557 18.6706 19.193 19.1759 19.2838C20.4536 19.5166 21.6006 19.7324 22.6227 19.9312L17.8245 27.0292C17.7052 27.2052 17.6428 27.4153 17.6428 27.6254V30.4305C16.1096 30.8905 14.991 32.3101 14.991 33.9909C14.991 36.0408 16.6547 37.7046 18.7046 37.7046C20.7545 37.7046 22.4183 36.0408 22.4183 33.9909C22.4183 32.3101 21.2997 30.8905 19.7665 30.4305V27.9491L24.8941 20.3684C25.6209 20.5104 26.2796 20.6353 26.8815 20.7489V30.4305C25.3484 30.8905 24.2297 32.3101 24.2297 33.9909C24.2297 36.0408 25.8935 37.7046 27.9434 37.7046C29.9933 37.7046 31.6571 36.0408 31.6571 33.9909C31.6571 32.3101 30.5384 30.8905 29.0052 30.4305V21.1236C30.3567 21.3394 31.4129 21.4473 32.4691 21.4473C33.5253 21.4473 34.5814 21.3394 35.9329 21.1236V30.4305C34.3997 30.8905 33.2811 32.3101 33.2811 33.9909C33.2811 36.0408 34.9449 37.7046 36.9948 37.7046C39.0447 37.7046 40.7084 36.0408 40.7084 33.9909C40.7084 32.3158 39.5898 30.8905 38.0566 30.4305V20.7489C38.6585 20.6353 39.3172 20.5104 40.044 20.3684L45.1716 27.9491V30.4305C43.6385 30.8905 42.5198 32.3101 42.5198 33.9909C42.5198 36.0408 44.1836 37.7046 46.2335 37.7046C48.2834 37.7046 49.9472 36.0408 49.9472 33.9909C49.9472 32.3101 48.8285 30.8905 47.2954 30.4305V27.6254C47.2954 27.4153 47.2329 27.2052 47.1137 27.0292L42.3154 19.9312C43.3432 19.7381 44.4902 19.5166 45.7622 19.2838C46.2676 19.193 46.6367 18.7501 46.6367 18.239V8.58574L49.4077 7.84754V15.4396H49.4304ZM20.4422 17.3532V9.15357L32.2135 12.2824C32.3044 12.3051 32.3952 12.3164 32.4861 12.3164C32.577 12.3164 32.6678 12.3051 32.7587 12.2824L44.53 9.15357V17.3532C42.6788 17.6939 41.1173 17.9948 39.834 18.2447C34.9354 19.1911 30.0368 19.1911 25.1383 18.2447C23.8549 17.9948 22.2934 17.6939 20.4422 17.3532ZM18.716 32.4066C19.5905 32.4066 20.3003 33.1164 20.3003 33.9909C20.3003 34.8654 19.5905 35.5752 18.716 35.5752C17.8415 35.5752 17.1317 34.8654 17.1317 33.9909C17.1317 33.1164 17.8415 32.4066 18.716 32.4066ZM27.9604 32.4066C28.8349 32.4066 29.5447 33.1164 29.5447 33.9909C29.5447 34.8654 28.8349 35.5752 27.9604 35.5752C27.086 35.5752 26.3762 34.8654 26.3762 33.9909C26.3762 33.1164 27.086 32.4066 27.9604 32.4066ZM37.0118 32.4066C37.8863 32.4066 38.5961 33.1164 38.5961 33.9909C38.5961 34.8654 37.8863 35.5752 37.0118 35.5752C36.1373 35.5752 35.4275 34.8654 35.4275 33.9909C35.4275 33.1164 36.1373 32.4066 37.0118 32.4066ZM46.2562 32.4066C47.1307 32.4066 47.8405 33.1164 47.8405 33.9909C47.8405 34.8654 47.1307 35.5752 46.2562 35.5752C45.3817 35.5752 44.6719 34.8654 44.6719 33.9909C44.6719 33.1164 45.3817 32.4066 46.2562 32.4066ZM32.4747 2.16347L47.4998 6.15538L32.4747 10.1473L17.4497 6.15538L32.4747 2.16347ZM50.5093 59.3052C52.2015 59.3052 53.6325 60.35 53.6325 61.5879V63.8706H12.3675V61.5879C12.3675 60.35 13.7985 59.3052 15.4907 59.3052H50.5093ZM41.969 57.1758H24.0253V51.5031H41.969V57.1758ZM63.8649 45.5294C63.8649 47.6474 62.1387 49.3737 60.0206 49.3737H5.97367C3.85563 49.3737 2.1294 47.6474 2.1294 45.5294V11.7543C2.1294 9.63624 3.85563 7.91001 5.97367 7.91001H15.7519L18.3071 8.58574V9.88609H5.84875C4.8891 9.88609 4.10548 10.6697 4.10548 11.6294V42.1678C4.10548 42.7583 4.58247 43.2296 5.16734 43.2296H60.827C61.4175 43.2296 61.8888 42.7526 61.8888 42.1678V11.6294C61.8888 10.6697 61.1052 9.88609 60.1456 9.88609H51.5542V7.91001H60.0263C62.1444 7.91001 63.8706 9.63624 63.8706 11.7543V45.5351L63.8649 45.5294Z" fill="white"/>
</g>
<defs>
<clipPath id="clip0_1633_1640">
<rect width="66" height="66" fill="white"/>
</clipPath>
</defs>
</svg>
