<svg width="90" height="101" viewBox="0 0 90 101" fill="none" xmlns="http://www.w3.org/2000/svg">
<g clipPath="url(#clip0_1626_1484)">
<path d="M68.548 5.88526L65.4912 4.74316L62.457 12.7211L65.5138 13.8632L68.548 5.88526Z" fill="black"/>
<path d="M29.1699 12.5309L24.6158 4.41309L21.7617 5.98627L26.3159 14.1041L29.1699 12.5309Z" fill="black"/>
<path d="M9.50133 21.1133L2.80803 14.479L0.5 16.7632L7.19892 23.3975L9.50133 21.1133Z" fill="black"/>
<path d="M89.5004 16.7969L87.1923 14.5127L80.499 21.1469L82.8071 23.4311L89.5004 16.7969Z" fill="black"/>
<path d="M48.2767 2H45.0117V11.6966H48.2767V2Z" fill="black"/>
<path d="M29.863 41.8785L30.7918 38.7825C26.6768 37.5676 23.8002 33.7438 23.8002 29.4834C23.8002 24.1368 28.1911 19.7867 33.5896 19.7867C38.9882 19.7867 43.379 24.1368 43.379 29.4834H46.6441C46.6441 22.3509 40.7896 16.5508 33.5896 16.5508C26.3897 16.5508 20.5352 22.3509 20.5352 29.4834C20.5352 35.1603 24.3687 40.2605 29.863 41.8785Z" fill="black"/>
<path d="M33.5889 42.4159C34.8555 42.4159 36.1108 42.2367 37.3155 41.8784L36.3867 38.7769C35.4803 39.04 34.5402 39.1799 33.5889 39.1799V42.4159Z" fill="black"/>
<path d="M23.7999 65.0507H27.0649C27.0649 63.763 26.8792 62.6993 26.4513 61.4956L23.3721 62.5705C23.6817 63.4327 23.7999 64.1269 23.7999 65.0507Z" fill="black"/>
<path d="M59.6983 19.7809C65.0968 19.7809 69.4877 24.1309 69.4877 29.4775C69.4877 33.738 66.6111 37.5618 62.496 38.7767L63.4249 41.8726C68.9135 40.2547 72.7527 35.16 72.7527 29.4775C72.7527 22.345 66.8982 16.5449 59.6983 16.5449C56.4501 16.5449 53.3371 17.7374 50.9277 19.8984L53.1176 22.2946C54.9189 20.6766 57.2551 19.7809 59.6926 19.7809H59.6983Z" fill="black"/>
<path d="M59.6983 42.4159V39.1799C58.7469 39.1799 57.8068 39.0456 56.9005 38.7769L55.9717 41.8784C57.1764 42.2311 58.4317 42.4159 59.6983 42.4159Z" fill="black"/>
<path d="M69.9043 62.6042L66.825 61.5293C66.3972 62.7386 66.2227 63.7575 66.2227 65.0452H69.4877C69.4877 64.1214 69.6003 63.4608 69.9043 62.6042Z" fill="black"/>
<path d="M82.6828 54.548C84.6869 52.3421 85.8071 49.4981 85.8071 46.4581C85.8071 40.5685 80.7914 35.9497 74.3852 35.9497V39.1856C78.9618 39.1856 82.5421 42.3824 82.5421 46.4581C82.5421 48.9159 81.5401 51.2056 79.7725 52.8796C79.2546 52.6333 78.7367 52.4149 78.23 52.2246C78.0893 52.1686 77.9429 52.1182 77.7966 52.0622C76.7326 51.5304 76.0177 50.2595 76.0177 48.8823C76.0177 48.1936 76.2372 47.533 76.6425 46.9788L74.0024 45.0753C73.1861 46.1894 72.7527 47.505 72.7527 48.8879C72.7527 49.4197 72.8146 49.9348 72.9215 50.4386C71.9195 50.1531 70.8556 49.89 69.7072 49.6605L69.0598 52.8292C72.1954 53.4563 74.7342 54.3688 77.0648 55.2478C81.4162 56.8881 85.8015 60.5944 85.8015 65.0508C85.8015 69.5072 82.1424 73.1351 77.6446 73.1351C74.0868 73.1351 71.1877 71.198 70.0787 68.0852L67.0051 69.1601C68.5926 73.6053 72.6682 76.3654 77.6446 76.3654C78.1963 76.3654 78.7367 76.315 79.2715 76.2422C79.2715 76.287 79.2715 76.3318 79.2715 76.3654C79.2715 81.712 74.8806 86.0676 69.482 86.0676C64.0835 86.0676 59.6926 81.7176 59.6926 76.3654C59.6926 75.4193 59.8277 74.4899 60.0979 73.5941L56.968 72.6704C56.6133 73.8629 56.4276 75.1057 56.4276 76.3598C56.4276 77.6139 56.5964 78.7168 56.9061 79.8197C56.208 79.6741 55.4931 79.5958 54.7725 79.5902C53.3877 79.607 52.0761 79.8813 50.8827 80.3963L52.1887 83.358C52.9824 83.0165 53.8662 82.8373 54.8232 82.8205C56.5964 82.8373 58.2458 83.4587 59.473 84.6736C60.6946 85.8885 61.3532 87.5177 61.3251 89.2588C61.2688 92.8978 58.3978 95.7531 54.8007 95.7531C51.2035 95.7531 48.2819 92.8643 48.2763 89.3036C48.2763 89.298 48.2763 89.2924 48.2763 89.2868V61.7869C48.2932 60.2641 51.0797 58.5677 54.8007 58.5677C55.7971 58.5677 56.7541 58.6853 57.6491 58.9148L58.4823 55.7908C57.317 55.4885 56.0785 55.3318 54.8007 55.3318C52.2675 55.3318 49.9988 55.942 48.2763 56.9497V39.1632H45.0112V56.9497C43.2887 55.942 41.0144 55.3318 38.4812 55.3318C37.2033 55.3318 35.9649 55.4829 34.7996 55.7908L35.6328 58.9148C36.5278 58.6853 37.4848 58.5677 38.4812 58.5677C42.2135 58.5677 45.0056 60.2753 45.0056 61.798V89.2812C45.0056 89.2812 45.0056 89.2924 45.0056 89.298C44.9944 92.8587 42.0784 95.7475 38.4812 95.7475C34.884 95.7475 32.0131 92.8979 31.9568 89.2532C31.9286 87.5121 32.5873 85.8829 33.8088 84.668C35.036 83.4475 36.7417 82.8037 38.4643 82.8093C39.41 82.8205 40.2995 82.9997 41.0932 83.3468L42.3992 80.3851C41.2002 79.8701 39.8885 79.5958 38.5037 79.579H38.3686C37.6875 79.579 37.0232 79.6517 36.3758 79.7805C36.6798 78.6832 36.8487 77.5355 36.8487 76.343C36.8487 75.0889 36.6686 73.8461 36.3083 72.6536L33.1784 73.5773C33.4486 74.4675 33.5837 75.4025 33.5837 76.3486C33.5837 81.6952 29.1928 86.0509 23.7942 86.0509C18.3957 86.0509 14.0048 81.7008 14.0048 76.3486C14.0048 76.3094 14.0048 76.2702 14.0048 76.2199C14.5396 76.2982 15.0744 76.3486 15.6317 76.3486C20.5405 76.3486 24.74 73.4598 26.3387 68.9866L23.2594 67.9116C22.1336 71.0748 19.1388 73.1183 15.6317 73.1183C11.1338 73.1183 7.47475 69.5296 7.47475 65.034C7.47475 60.5384 11.8656 56.8714 16.2115 55.231L16.3748 55.1694C18.8404 54.24 20.7882 53.501 23.7154 52.9188L23.0737 49.75C22.0829 49.946 21.1991 50.1643 20.366 50.3939C20.4729 49.9012 20.5292 49.3917 20.5292 48.8711C20.5292 48.1936 20.4223 47.5218 20.214 46.8836L17.1066 47.8745C17.2135 48.1936 17.2642 48.5296 17.2642 48.8711C17.2642 50.2371 16.5549 51.5024 15.5022 52.0398C15.4065 52.079 15.3108 52.1126 15.2095 52.1518L15.0462 52.2134C14.5396 52.4037 14.0273 52.6277 13.5094 52.874C11.7362 51.2001 10.7341 48.9103 10.7341 46.4469C10.7341 42.3656 14.32 39.1744 18.8911 39.1744V35.9385C12.4849 35.9385 7.46912 40.5573 7.46912 46.4469C7.46912 49.4981 8.59499 52.3533 10.6103 54.5592C7.13136 56.9833 4.2041 60.6224 4.2041 65.0396C4.2041 69.4568 6.92308 73.4878 10.8242 75.2905C10.7736 75.6656 10.7341 76.0407 10.7341 76.3542C10.7341 83.4867 16.5887 89.2868 23.7886 89.2868C25.5337 89.2868 27.1944 88.9397 28.7199 88.3239C28.6918 88.6486 28.6805 88.9789 28.6861 89.3148C28.7706 94.7398 33.0714 98.989 38.4756 98.989C41.8757 98.989 44.8761 97.2591 46.6325 94.639C48.3889 97.2591 51.3893 98.989 54.7894 98.989C60.1936 98.989 64.4944 94.7398 64.5789 89.3148C64.5789 88.9845 64.5732 88.6542 64.5451 88.3294C66.065 88.9453 67.7313 89.2924 69.4764 89.2924C76.6707 89.2924 82.5309 83.4923 82.5309 76.3598C82.5309 76.0687 82.5083 75.688 82.4802 75.3073C86.3588 73.5438 89.0609 69.7144 89.0609 65.0396C89.0609 60.3648 86.1505 56.9105 82.6772 54.5368L82.6828 54.548Z" fill="black"/>
</g>
<defs>
<clipPath id="clip0_1626_1484">
<rect width="89" height="101" fill="white" transform="translate(0.5)"/>
</clipPath>
</defs>
</svg>
