<svg width="69" height="70" viewBox="0 0 69 70" fill="none" xmlns="http://www.w3.org/2000/svg">
<g clip-path="url(#clip0_396_508)">
<path d="M55.4906 35.5344C55.348 35.3443 55.1523 35.2007 54.928 35.1218C54.7038 35.0429 54.4613 35.0323 54.231 35.0913C54.0008 35.1503 53.7932 35.2763 53.6345 35.4533C53.4759 35.6303 53.3733 35.8504 53.3397 36.0857L52.6733 40.7608C52.6571 40.8207 52.6361 40.8792 52.6106 40.9358C53.8363 39.3081 54.8256 37.5151 55.549 35.6103L55.4906 35.5344Z" fill="white"/>
<path d="M51.482 41.7906C51.4254 41.7908 51.3689 41.7874 51.3128 41.7804L44.1674 40.7596C44.011 40.7374 43.8605 40.6846 43.7245 40.6042C43.5885 40.5238 43.4697 40.4174 43.3749 40.291C43.2801 40.1647 43.2111 40.0208 43.172 39.8678C43.1328 39.7147 43.1242 39.5555 43.1467 39.3991L43.8131 34.7239C43.8461 34.489 43.8089 34.2496 43.7061 34.0358C43.6033 33.822 43.4395 33.6435 43.2354 33.5226C43.0312 33.4018 42.7959 33.344 42.559 33.3567C42.3221 33.3694 42.0943 33.4519 41.9042 33.5938L38.1259 36.4257C37.9997 36.5205 37.856 36.5894 37.703 36.6286C37.5501 36.6678 37.391 36.6765 37.2347 36.6541C37.0784 36.6318 36.9281 36.5788 36.7922 36.4984C36.6564 36.4179 36.5378 36.3114 36.4431 36.1851L32.1165 30.4163C32.0218 30.29 31.9528 30.1463 31.9136 29.9934C31.8745 29.8405 31.8658 29.6813 31.8881 29.525C31.9105 29.3688 31.9634 29.2184 32.0439 29.0826C32.1243 28.9468 32.2308 28.8281 32.3571 28.7335L36.134 25.9016C36.3242 25.759 36.4678 25.5632 36.5466 25.339C36.6255 25.1148 36.6361 24.8722 36.5771 24.6419C36.5181 24.4117 36.3921 24.2041 36.2151 24.0455C36.0382 23.8868 35.8181 23.7842 35.5828 23.7507L30.9076 23.0828C30.7514 23.0606 30.601 23.0079 30.4651 22.9276C30.3292 22.8472 30.2105 22.7409 30.1157 22.6147C30.0209 22.4885 29.9519 22.3449 29.9126 22.192C29.8734 22.0391 29.8646 21.88 29.8869 21.7237L30.9076 14.5871C30.9298 14.4308 30.9826 14.2804 31.0629 14.1445C31.1432 14.0086 31.2495 13.8899 31.3757 13.7951C31.5019 13.7003 31.6456 13.6313 31.7985 13.5921C31.9513 13.5528 32.1105 13.5441 32.2667 13.5663L36.9419 14.2342C37.1775 14.2677 37.4177 14.2301 37.6318 14.1262C37.8459 14.0223 38.0241 13.8568 38.1434 13.6509C38.2682 13.4475 38.3282 13.2109 38.3155 12.9726C38.3027 12.7343 38.2178 12.5055 38.072 12.3166L35.2415 8.5412C35.1468 8.41493 35.0778 8.27122 35.0387 8.1183C34.9995 7.96537 34.9908 7.80622 35.0131 7.64994C35.0355 7.49366 35.0884 7.34332 35.1689 7.2075C35.2494 7.07168 35.3558 6.95305 35.4822 6.85839L36.1632 6.34801C35.0591 6.2946 33.9526 6.32433 32.8529 6.43696C28.4148 6.94378 24.2423 8.81217 20.9087 11.7855C17.575 14.7589 15.2436 18.6914 14.2347 23.043C13.2257 27.3945 13.5887 31.9518 15.2737 36.0888C16.9588 40.2258 19.8833 43.7396 23.6456 46.1478C24.6303 46.7583 25.4452 47.6072 26.0148 48.616C26.5845 49.6249 26.8906 50.7611 26.9048 51.9195V56.7755C26.9048 57.7315 27.2846 58.6484 27.9606 59.3244C28.6366 60.0005 29.5535 60.3802 30.5095 60.3802H40.1237C41.0798 60.3802 41.9967 60.0005 42.6727 59.3244C43.3487 58.6484 43.7285 57.7315 43.7285 56.7755V52.0245C43.7437 50.8387 44.0564 49.6757 44.6381 48.6423C45.2198 47.6088 46.0518 46.738 47.0577 46.1099C48.9522 44.8809 50.6441 43.3647 52.0726 41.6156C51.8943 41.7243 51.6907 41.7846 51.482 41.7906ZM36.5292 56.7799H34.126V53.1751H36.5292V56.7799ZM34.126 50.7719C34.1257 49.2196 33.6546 47.704 32.7749 46.4251C31.8951 45.1462 30.6481 44.1643 29.1986 43.609C26.2981 42.4753 23.7692 40.5588 21.8935 38.0728C20.0178 35.5869 18.8689 32.6291 18.5747 29.5289C18.2805 26.4286 18.8526 23.3076 20.2273 20.5132C21.602 17.7189 23.7253 15.3609 26.3609 13.7019L27.6353 15.7347C25.3756 17.1563 23.5548 19.1773 22.3758 21.5726C21.1969 23.9679 20.706 26.6434 20.9578 29.3013C21.2097 31.9591 22.1944 34.4948 23.8023 36.626C25.4102 38.7572 27.5782 40.4002 30.0648 41.3721C31.9666 42.1005 33.6026 43.3889 34.7566 45.067C35.9106 46.7451 36.5282 48.7339 36.5277 50.7704L34.126 50.7719Z" fill="white"/>
<path d="M30.5168 66.394V67.5956C30.5168 68.233 30.77 68.8443 31.2207 69.295C31.6714 69.7456 32.2827 69.9988 32.92 69.9988H37.7322C38.3696 69.9988 38.9809 69.7456 39.4315 69.295C39.8822 68.8443 40.1354 68.233 40.1354 67.5956V66.394H30.5168Z" fill="white"/>
<path d="M23.0084 47.1652C22.2965 46.7037 21.611 46.2028 20.9551 45.6647C20.3844 46.7652 19.5391 47.6997 18.501 48.3775C17.463 49.0552 16.2675 49.4533 15.0303 49.5332C13.7932 49.6131 12.5564 49.372 11.4398 48.8334C10.3232 48.2947 9.36469 47.4767 8.65719 46.4587C7.94968 45.4407 7.51717 44.2571 7.40156 43.0228C7.28596 41.7885 7.49118 40.5452 7.99735 39.4135C8.50351 38.2819 9.29344 37.3001 10.2906 36.5635C11.2877 35.8269 12.4583 35.3603 13.6887 35.2091C13.2475 33.8824 12.9287 32.5181 12.7365 31.1333L12.5265 32.1336C12.4452 32.521 12.2694 32.8823 12.0148 33.1854C11.7603 33.4885 11.4348 33.724 11.0673 33.871C10.6998 34.0181 10.3017 34.072 9.90828 34.0282C9.5149 33.9843 9.13844 33.844 8.81236 33.6196L6.31294 31.9033L4.12557 34.0906L5.8463 36.5929C6.07099 36.919 6.21165 37.2954 6.25578 37.6889C6.29991 38.0824 6.24613 38.4807 6.09923 38.8483C5.95233 39.216 5.71686 39.5417 5.41375 39.7965C5.11064 40.0512 4.74928 40.2271 4.36181 40.3085L1.36658 40.94V43.7952L4.36181 44.4266C4.74939 44.5082 5.11082 44.6842 5.41395 44.9391C5.71707 45.194 5.95249 45.5199 6.09926 45.8878C6.24603 46.2557 6.2996 46.6541 6.25522 47.0477C6.21083 47.4412 6.06986 47.8178 5.84484 48.1437L4.12557 50.6329L6.31294 52.8203L8.80944 51.0995C9.13545 50.8748 9.51193 50.7342 9.90541 50.6901C10.2989 50.6459 10.6972 50.6997 11.0648 50.8466C11.4325 50.9935 11.7582 51.229 12.013 51.5321C12.2677 51.8352 12.4436 52.1966 12.525 52.584L13.155 55.5851H16.0117L16.6417 52.5899C16.7231 52.2024 16.899 51.841 17.1537 51.5379C17.4085 51.2348 17.7342 50.9993 18.1019 50.8524C18.4695 50.7055 18.8678 50.6518 19.2613 50.6959C19.6548 50.74 20.0313 50.8807 20.3573 51.1054L22.8538 52.8217L25.4319 50.2436C25.0007 48.97 24.1451 47.8833 23.0084 47.1652Z" fill="white"/>
<path d="M40.1354 61.5874H30.5212V63.9906H40.1354V61.5874Z" fill="white"/>
<path d="M65.3338 20.719C64.628 20.6181 63.9679 20.3102 63.4372 19.8341C62.9064 19.3581 62.5286 18.7353 62.3518 18.0446C62.1749 17.3539 62.2069 16.6263 62.4436 15.9537C62.6803 15.2812 63.1111 14.694 63.6816 14.2663L66.4975 12.1533L63.613 8.30935L60.7972 10.4209C60.2272 10.849 59.543 11.0985 58.8312 11.1378C58.1194 11.1771 57.4119 11.0045 56.7982 10.6418C56.1845 10.279 55.6921 9.74249 55.3833 9.09995C55.0745 8.45741 54.9632 7.73774 55.0634 7.03193L55.5606 3.54673L50.8024 2.86719L50.3051 6.35239C50.2042 7.0582 49.8963 7.71823 49.4203 8.24902C48.9442 8.77981 48.3215 9.15752 47.6308 9.33437C46.9401 9.51122 46.2124 9.47928 45.5399 9.24258C44.8673 9.00587 44.2801 8.57504 43.8524 8.00457L41.7394 5.18433L37.894 8.06874L40.0056 10.8846C40.4338 11.455 40.6831 12.1397 40.7221 12.8519C40.761 13.5641 40.5878 14.2718 40.2244 14.8856C39.8609 15.4993 39.3235 15.9914 38.6803 16.2996C38.037 16.6078 37.3168 16.7182 36.6108 16.617L33.1256 16.1197L32.4431 20.8779L35.9283 21.3752C36.6341 21.4761 37.2942 21.784 37.825 22.2601C38.3558 22.7361 38.7335 23.3589 38.9103 24.0496C39.0872 24.7403 39.0552 25.4679 38.8185 26.1404C38.5818 26.813 38.151 27.4002 37.5805 27.8279L34.7661 29.9409L37.6505 33.7863L40.4664 31.6748C41.0368 31.2466 41.7215 30.9972 42.4337 30.9583C43.1459 30.9193 43.8536 31.0925 44.4673 31.456C45.0811 31.8194 45.5732 32.3568 45.8814 33C46.1896 33.6433 46.3 34.3635 46.1987 35.0696L45.7015 38.5548L50.4699 39.2372L50.9672 35.752C51.0681 35.0462 51.376 34.3862 51.8521 33.8554C52.3281 33.3246 52.9508 32.9469 53.6415 32.77C54.3322 32.5932 55.0599 32.6251 55.7324 32.8618C56.405 33.0985 56.9922 33.5294 57.4199 34.0998L59.5329 36.9142L63.3783 34.0298L61.2594 31.2038C60.8317 30.6336 60.5825 29.9495 60.5435 29.2377C60.5045 28.526 60.6773 27.8187 61.0402 27.2052C61.403 26.5917 61.9396 26.0996 62.5821 25.791C63.2246 25.4824 63.9442 25.3712 64.6499 25.4714L68.1351 25.9687L68.8146 21.2104L65.3338 20.719ZM50.6332 28.2581C49.207 28.2581 47.8129 27.8352 46.627 27.0428C45.4412 26.2505 44.5169 25.1243 43.9711 23.8066C43.4254 22.489 43.2826 21.0391 43.5608 19.6403C43.839 18.2415 44.5258 16.9566 45.5343 15.9481C46.5428 14.9397 47.8276 14.2529 49.2264 13.9746C50.6252 13.6964 52.0751 13.8392 53.3928 14.385C54.7104 14.9308 55.8366 15.855 56.629 17.0409C57.4213 18.2267 57.8442 19.6209 57.8442 21.0471C57.8439 22.9593 57.084 24.7931 55.7317 26.1451C54.3794 27.4971 52.5455 28.2581 50.6332 28.2581Z" fill="white"/>
<path d="M66.5732 44.7637H58.1606V47.1669H66.5732V44.7637Z" fill="white"/>
<path d="M57.7287 51.0508L56.1907 52.8965L63.3985 58.903L64.9366 57.0574L57.7287 51.0508Z" fill="white"/>
<path d="M53.3544 54.3779H50.9512V62.7905H53.3544V54.3779Z" fill="white"/>
<path d="M9.7998 18.3608L0.185425 20.7642L0.767878 23.0942L10.3823 20.6908L9.7998 18.3608Z" fill="white"/>
<path d="M3.57716 6.53181L2.18176 8.48682L10.5965 14.4929L11.9919 12.5379L3.57716 6.53181Z" fill="white"/>
<path d="M14.8071 -0.000774599L12.4784 0.595215L14.9394 10.2109L17.2681 9.61494L14.8071 -0.000774599Z" fill="white"/>
</g>
<defs>
<clipPath id="clip0_396_508">
<rect width="68.6293" height="70" fill="white" transform="translate(0.185425)"/>
</clipPath>
</defs>
</svg>
