<svg width="63" height="70" viewBox="0 0 63 70" fill="none" xmlns="http://www.w3.org/2000/svg">
<g clip-path="url(#clip0_396_538)">
<path d="M51.2577 45.2354C49.8462 47.1821 47.9937 48.7668 45.8519 49.8597C43.71 50.9525 41.3397 51.5225 38.9352 51.5228H31.8354C30.6705 51.523 29.5338 51.1644 28.5798 50.4958C27.6258 49.8273 26.9008 48.8813 26.5033 47.7863C25.5169 47.4912 24.5576 47.112 23.636 46.653C21.6347 45.6519 19.8225 44.3106 18.2806 42.689C13.195 43.8113 8.64495 46.636 5.38294 50.6957C2.12093 54.7555 0.342405 59.8071 0.341553 65.015V66.4443C0.341553 67.3877 0.716326 68.2925 1.38342 68.9596C2.05052 69.6267 2.95531 70.0014 3.89873 70.0014H59.0867C60.0301 70.0014 60.9349 69.6267 61.602 68.9596C62.2691 68.2925 62.6438 67.3877 62.6438 66.4443V65.015C62.6462 61.0093 61.5955 57.0734 59.5971 53.6018C57.5987 50.1303 54.7228 47.245 51.2577 45.2354Z" fill="white"/>
<path d="M14.5003 35.3573C15.2261 35.3568 15.9384 35.1611 16.5627 34.7909C17.187 34.4206 17.7002 33.8894 18.0488 33.2527L18.1042 33.3986L18.1202 33.4423C18.8597 35.5471 20.0363 37.4715 21.5727 39.0891C23.109 40.7066 24.9703 41.9807 27.0343 42.8275C27.5442 42.0146 28.2523 41.3446 29.0921 40.8803C29.9319 40.416 30.8759 40.1727 31.8355 40.1731H38.9353C39.6179 40.169 40.2879 39.9892 40.8809 39.651C41.8314 38.948 42.6148 38.0436 43.175 37.0024C43.8923 35.8149 44.487 34.5576 44.95 33.2498C45.2278 33.7545 45.6095 34.1944 46.07 34.5406V36.2819C46.0666 38.1728 45.3139 39.9851 43.9769 41.3221C42.6399 42.6591 40.8275 43.4118 38.9367 43.4152H31.837C31.1924 43.4152 30.5742 43.6713 30.1183 44.1271C29.6625 44.5829 29.4065 45.2012 29.4065 45.8458C29.4065 46.4904 29.6625 47.1086 30.1183 47.5644C30.5742 48.0202 31.1924 48.2763 31.837 48.2763H38.9367C42.1168 48.2728 45.1656 47.008 47.4142 44.7594C49.6628 42.5108 50.9276 39.462 50.9311 36.2819V34.5478C51.4345 34.1709 51.8432 33.6817 52.1245 33.1191C52.4057 32.5565 52.5519 31.9361 52.5514 31.3072V21.1694C52.5517 20.5278 52.3994 19.8954 52.107 19.3243C51.8146 18.7532 51.3905 18.2598 50.8698 17.885C50.4821 13.0142 48.2735 8.46835 44.684 5.15321C41.0945 1.83807 36.3877 -0.00292969 31.5015 -0.00292969C26.6154 -0.00292969 21.9086 1.83807 18.3191 5.15321C14.7296 8.46835 12.5209 13.0142 12.1333 17.885C11.6125 18.2598 11.1885 18.7532 10.8961 19.3243C10.6037 19.8954 10.4513 20.5278 10.4517 21.1694V31.3072C10.452 32.3809 10.8787 33.4107 11.6378 34.1701C12.397 34.9295 13.4265 35.3565 14.5003 35.3573ZM31.5001 4.86099C35.1132 4.86456 38.5963 6.20913 41.2746 8.63418C43.953 11.0592 45.6358 14.3921 45.9971 17.9871C45.517 18.3648 45.1281 18.8458 44.8595 19.3945C42.5668 13.4148 37.4477 9.24657 31.5001 9.24657C25.4242 9.24657 20.3881 13.5548 18.1494 19.3712L18.1406 19.3945C17.8716 18.8457 17.4822 18.3646 17.0016 17.9871C17.3629 14.3919 19.046 11.0588 21.7246 8.63369C24.4033 6.2086 27.8867 4.8642 31.5001 4.86099Z" fill="white"/>
</g>
<defs>
<clipPath id="clip0_396_538">
<rect width="62.3023" height="70" fill="white" transform="translate(0.348877)"/>
</clipPath>
</defs>
</svg>
