<svg width="81" height="70" viewBox="0 0 81 70" fill="none" xmlns="http://www.w3.org/2000/svg">
<g clip-path="url(#clip0_396_500)">
<path d="M13.0769 37.5662L8.11768 42.5254C7.46004 43.1831 7.09058 44.075 7.09058 45.0051C7.09058 45.9351 7.46004 46.8271 8.11768 47.4847C8.77532 48.1423 9.66726 48.5118 10.5973 48.5118C11.5274 48.5118 12.4193 48.1423 13.0769 47.4847L18.0362 42.5254C18.3618 42.1998 18.6201 41.8132 18.7964 41.3878C18.9726 40.9623 19.0633 40.5063 19.0633 40.0458C19.0633 39.5853 18.9726 39.1293 18.7964 38.7038C18.6201 38.2784 18.3618 37.8918 18.0362 37.5662C17.7106 37.2405 17.324 36.9822 16.8985 36.806C16.4731 36.6298 16.0171 36.5391 15.5566 36.5391C15.0961 36.5391 14.6401 36.6298 14.2146 36.806C13.7892 36.9822 13.4026 37.2405 13.0769 37.5662Z" fill="white"/>
<path d="M29.6139 54.0947L24.6546 59.054C24.0049 59.7132 23.6423 60.6026 23.6458 61.5281C23.6492 62.4537 24.0185 63.3403 24.6731 63.9947C25.3277 64.6491 26.2145 65.018 27.14 65.0212C28.0656 65.0244 28.9548 64.6614 29.6139 64.0116L34.5732 59.0523C34.8988 58.7267 35.1571 58.3401 35.3333 57.9146C35.5095 57.4892 35.6002 57.0331 35.6002 56.5726C35.6002 56.1121 35.5095 55.6561 35.3333 55.2307C35.1571 54.8052 34.8988 54.4186 34.5732 54.093C34.2475 53.7674 33.8609 53.5091 33.4355 53.3328C33.01 53.1566 32.554 53.0659 32.0935 53.0659C31.633 53.0659 31.177 53.1566 30.7515 53.3328C30.3261 53.5091 29.9395 53.7674 29.6139 54.093V54.0947Z" fill="white"/>
<path d="M41.1783 68.9724L42.8308 67.3199C43.4884 66.6622 43.8579 65.7702 43.8579 64.8402C43.8579 63.9102 43.4884 63.0182 42.8308 62.3606C42.1732 61.703 41.2812 61.3335 40.3512 61.3335C39.4211 61.3335 38.5292 61.703 37.8715 62.3606L36.219 64.0131C35.5614 64.6707 35.1919 65.5627 35.1919 66.4928C35.1919 67.4228 35.5614 68.3147 36.219 68.9724C36.8766 69.63 37.7686 69.9995 38.6986 69.9995C39.6287 69.9995 40.5206 69.63 41.1783 68.9724Z" fill="white"/>
<path d="M24.6479 42.5237L16.3835 50.788C16.0579 51.1136 15.7996 51.5002 15.6234 51.9257C15.4471 52.3511 15.3564 52.8071 15.3564 53.2676C15.3564 54.1977 15.7259 55.0896 16.3835 55.7473C17.0412 56.4049 17.9331 56.7743 18.8632 56.7743C19.7932 56.7743 20.6852 56.4049 21.3428 55.7473L29.6088 47.4829C29.9344 47.1573 30.1927 46.7707 30.369 46.3452C30.5452 45.9198 30.6359 45.4638 30.6359 45.0033C30.6359 44.5428 30.5452 44.0868 30.369 43.6613C30.1927 43.2359 29.9344 42.8493 29.6088 42.5237C29.2832 42.198 28.8966 41.9397 28.4712 41.7635C28.0457 41.5873 27.5897 41.4966 27.1292 41.4966C26.6687 41.4966 26.2127 41.5873 25.7872 41.7635C25.3618 41.9397 24.9735 42.198 24.6479 42.5237Z" fill="white"/>
<path d="M30.4334 6.98602L24.4301 0.919522C24.213 0.702312 23.9553 0.530005 23.6716 0.412444C23.3879 0.294884 23.0838 0.234375 22.7767 0.234375C22.4696 0.234375 22.1655 0.294884 21.8819 0.412444C21.5982 0.530005 21.3404 0.702312 21.1233 0.919522L1.28793 20.7549C1.07072 20.972 0.898413 21.2298 0.780853 21.5134C0.663292 21.7971 0.602783 22.1012 0.602783 22.4083C0.602783 22.7154 0.663292 23.0195 0.780853 23.3032C0.898413 23.5868 1.07072 23.8446 1.28793 24.0617L5.34113 28.1764C6.62494 29.4593 7.59255 31.0234 8.1674 32.745L8.94711 35.0858L9.77837 34.2545C11.3142 32.7228 13.3948 31.8626 15.5639 31.8626C17.733 31.8626 19.8136 32.7228 21.3494 34.2545C22.3152 35.2367 23.0139 36.4493 23.3794 37.7774C24.9138 36.9717 26.6657 36.6777 28.3791 36.9384C30.0925 37.199 31.6777 38.0006 32.9032 39.2261C34.1287 40.4516 34.9303 42.0368 35.1909 43.7502C35.4516 45.4636 35.1576 47.2155 34.3519 48.75C36.076 49.2246 37.5924 50.2608 38.6611 51.6945C39.7298 53.1282 40.2897 54.8774 40.2522 56.6652C41.3423 56.6487 42.4245 56.8513 43.4349 57.2608C44.4452 57.6703 45.3631 58.2785 46.1341 59.0492L49.4409 62.3543C50.0985 63.0119 50.9905 63.3814 51.9205 63.3814C52.8506 63.3814 53.7425 63.0119 54.4001 62.3543C55.0578 61.6966 55.4272 60.8047 55.4272 59.8746C55.4272 58.9446 55.0578 58.0526 54.4001 57.395L48.6146 51.6095C48.3975 51.3925 48.2252 51.1348 48.1077 50.8512C47.9901 50.5676 47.9296 50.2637 47.9295 49.9567C47.9294 49.6497 47.9898 49.3457 48.1072 49.0621C48.2246 48.7784 48.3968 48.5207 48.6138 48.3036C48.8308 48.0864 49.0884 47.9142 49.372 47.7966C49.6556 47.6791 49.9596 47.6186 50.2666 47.6185C50.5735 47.6184 50.8775 47.6788 51.1612 47.7962C51.4448 47.9136 51.7026 48.0857 51.9197 48.3027L57.7052 54.0883C58.3629 54.7459 59.2548 55.1154 60.1848 55.1154C61.1149 55.1154 62.0068 54.7459 62.6645 54.0883C63.3221 53.4306 63.6916 52.5387 63.6916 51.6086C63.6916 50.6786 63.3221 49.7866 62.6645 49.129L56.8789 43.3435C56.4407 42.905 56.1945 42.3103 56.1947 41.6903C56.1948 41.0704 56.4413 40.4758 56.8798 40.0376C57.3183 39.5993 57.9129 39.3531 58.5329 39.3533C59.1529 39.3535 59.7474 39.5999 60.1857 40.0384L65.9712 45.8239C66.2905 46.174 66.6775 46.4558 67.1088 46.6521C67.54 46.8485 68.0066 46.9554 68.4803 46.9664C68.954 46.9774 69.4251 46.8922 69.865 46.7161C70.3049 46.54 70.7045 46.2765 71.0397 45.9416C71.375 45.6067 71.6388 45.2074 71.8154 44.7676C71.992 44.3279 72.0776 43.857 72.0671 43.3832C72.0565 42.9095 71.9501 42.4428 71.7542 42.0114C71.5583 41.5799 71.2769 41.1927 70.9272 40.873L56.7094 26.6552C54.461 28.1376 51.7703 28.7995 49.0907 28.5294C46.4112 28.2593 43.9067 27.0736 41.9995 25.1722C41.5609 24.7345 40.9666 24.4886 40.3469 24.4886C39.7273 24.4886 39.133 24.7345 38.6944 25.1722C36.5006 27.3609 33.5282 28.5901 30.4292 28.5901C27.3303 28.5901 24.3579 27.3609 22.1641 25.1722C20.8511 23.8561 20.1137 22.0729 20.1137 20.2138C20.1137 18.3547 20.8511 16.5715 22.1641 15.2554L30.4334 6.98602Z" fill="white"/>
<path d="M59.8764 0.685147C59.6593 0.467937 59.4016 0.29563 59.1179 0.178069C58.8342 0.0605089 58.5301 0 58.223 0C57.9159 0 57.6119 0.0605089 57.3282 0.178069C57.0445 0.29563 56.7868 0.467937 56.5697 0.685147L51.6254 5.62945C51.1954 6.0592 50.6851 6.40005 50.1234 6.63253C49.5617 6.86501 48.9598 6.98458 48.3519 6.9844H39.9495C38.0902 6.98447 36.3069 7.723 34.9919 9.0376L25.4757 18.5538C25.2557 18.7693 25.0809 19.0265 24.9616 19.3104C24.8422 19.5943 24.7808 19.8992 24.7808 20.2072C24.7808 20.5151 24.8422 20.82 24.9616 21.1039C25.0809 21.3878 25.2557 21.6451 25.4757 21.8605C26.1263 22.5127 26.8992 23.03 27.75 23.3831C28.6009 23.7361 29.513 23.9178 30.4342 23.9178C31.3553 23.9178 32.2675 23.7361 33.1183 23.3831C33.9691 23.03 34.742 22.5127 35.3926 21.8605C36.5756 20.6805 38.1405 19.9608 39.8063 19.8307C41.4721 19.7006 43.1297 20.1686 44.4815 21.1507C46.1638 22.5323 48.2903 23.2564 50.4661 23.1885C52.6419 23.1207 54.7192 22.2654 56.312 20.7816L56.8822 20.2113L72.9654 36.2945C73.1886 35.4752 73.1914 34.6115 72.9736 33.7907C72.813 33.0113 72.8377 32.2052 73.0456 31.437C73.2535 30.6689 73.6389 29.9604 74.1707 29.3684L79.7101 23.829C80.1483 23.3906 80.3945 22.7962 80.3945 22.1764C80.3945 21.5566 80.1483 20.9622 79.7101 20.5239L59.8764 0.685147Z" fill="white"/>
</g>
<defs>
<clipPath id="clip0_396_500">
<rect width="79.7938" height="70" fill="white" transform="translate(0.603027)"/>
</clipPath>
</defs>
</svg>
