<svg width="73" height="70" viewBox="0 0 73 70" fill="none" xmlns="http://www.w3.org/2000/svg">
<g clip-path="url(#clip0_396_478)">
<path d="M11.3524 69.9998V49.1172L34.216 53.2263V57.6738H38.372V53.2263L61.2341 49.1172V69.9998H11.3524ZM11.3524 44.9421V33.0245H25.9006V27.646L27.0498 27.0795C29.9416 25.7069 33.0869 24.9337 36.2924 24.8075C39.4978 24.9333 42.6433 25.7065 45.5349 27.0795L46.6845 27.646V33.0245H61.2327V44.9421L36.2924 49.4231L11.3524 44.9421ZM30.0581 30.2604V33.0231H42.5284V30.2604C40.547 29.4497 38.4353 28.9938 36.2924 28.9137C34.1498 28.9932 32.0388 29.4491 30.0581 30.2604ZM60.8251 27.1642L53.8919 29.3104L53.8134 22.1284L49.6067 16.2728L56.493 13.9804L60.827 8.21554L65.1624 13.9804L72.0483 16.2728L67.8416 22.1284L67.7631 29.3104L60.8251 27.1642ZM12.1743 27.1642L5.23962 29.3104L5.16115 22.1284L0.954468 16.2728L7.84037 13.9804L12.1758 8.21554L16.5098 13.9804L23.396 16.2728L19.1893 22.1284L19.1109 29.3104L12.1743 27.1642ZM36.2909 18.9476L29.3562 21.0934L29.2792 13.9114L25.0696 8.05578L31.9569 5.76198L36.2909 -0.00146484L40.6263 5.76198L47.5126 8.05578L43.303 13.9114L43.226 21.0934L36.2909 18.9476Z" fill="white"/>
</g>
<defs>
<clipPath id="clip0_396_478">
<rect width="71.0938" height="70" fill="white" transform="translate(0.953125)"/>
</clipPath>
</defs>
</svg>
