<svg width="57" height="70" viewBox="0 0 57 70" fill="none" xmlns="http://www.w3.org/2000/svg">
<g clip-path="url(#clip0_396_491)">
<path d="M55.0441 0H38.1482C37.828 0 37.5208 0.127226 37.2944 0.353691C37.0679 0.580155 36.9407 0.887307 36.9407 1.20758V6.03496H34.527C33.8868 6.03496 33.2729 6.28926 32.8202 6.74191C32.3676 7.19457 32.1133 7.8085 32.1133 8.44865C32.1133 9.0888 32.3676 9.70274 32.8202 10.1554C33.2729 10.608 33.8868 10.8623 34.527 10.8623H36.9407V16.8973H41.768C41.768 15.617 42.2767 14.3891 43.182 13.4838C44.0873 12.5785 45.3151 12.0699 46.5954 12.0699C47.8757 12.0699 49.1036 12.5785 50.0089 13.4838C50.9142 14.3891 51.4228 15.617 51.4228 16.8973H55.0441C55.3644 16.8973 55.6715 16.7701 55.898 16.5436C56.1244 16.3172 56.2517 16.01 56.2517 15.6897V1.20758C56.2517 0.887307 56.1244 0.580155 55.898 0.353691C55.6715 0.127226 55.3644 0 55.0441 0Z" fill="white"/>
<path d="M22.4569 70.0002C23.8472 69.9982 25.1944 69.517 26.2713 68.6377C27.3483 67.7584 28.0893 66.5347 28.3693 65.1729H16.543C16.8231 66.5349 17.5643 67.7588 18.6415 68.6381C19.7188 69.5175 21.0663 69.9986 22.4569 70.0002Z" fill="white"/>
<path d="M12.8021 21.7234C14.0821 21.7245 15.3093 22.2335 16.2143 23.1386C17.1194 24.0436 17.6283 25.2708 17.6295 26.5508H22.4511V22.9309C21.1708 22.9309 19.9429 22.4223 19.0376 21.517C18.1323 20.6117 17.6237 19.3839 17.6237 18.1036C17.6237 16.8233 18.1323 15.5954 19.0376 14.6901C19.9429 13.7848 21.1708 13.2762 22.4511 13.2762V7.24121H21.6285C16.3636 7.24926 11.2951 9.24126 7.43352 12.8201C3.57196 16.3989 1.20104 21.3016 0.793457 26.5508H7.97474C7.9759 25.2708 8.48487 24.0436 9.38993 23.1386C10.295 22.2335 11.5222 21.7245 12.8021 21.7234Z" fill="white"/>
<path d="M14.0083 53.104H22.4599V43.4492C21.1796 43.4492 19.9517 42.9406 19.0464 42.0353C18.1411 41.13 17.6325 39.9021 17.6325 38.6218C17.6325 37.3415 18.1411 36.1136 19.0464 35.2083C19.9517 34.303 21.1796 33.7944 22.4599 33.7944V28.9656H15.2159V26.5519C15.2159 25.9117 14.9616 25.2978 14.5089 24.8451C14.0563 24.3925 13.4423 24.1382 12.8022 24.1382C12.162 24.1382 11.5481 24.3925 11.0954 24.8451C10.6428 25.2978 10.3885 25.9117 10.3885 26.5519V28.9656H0.749756C0.860471 31.9217 1.59998 34.8203 2.919 37.4681C4.23802 40.116 6.10626 42.4523 8.39919 44.3213L14.0083 48.911V53.104Z" fill="white"/>
<path d="M36.9391 26.5519C36.9391 25.9117 36.6848 25.2978 36.2321 24.8451C35.7795 24.3925 35.1655 24.1382 34.5254 24.1382C33.8852 24.1382 33.2713 24.3925 32.8186 24.8451C32.366 25.2978 32.1117 25.9117 32.1117 26.5519V28.9656H24.8706V36.2066H22.4569C21.8168 36.2066 21.2028 36.4609 20.7502 36.9136C20.2975 37.3663 20.0432 37.9802 20.0432 38.6203C20.0432 39.2605 20.2975 39.8744 20.7502 40.3271C21.2028 40.7797 21.8168 41.034 22.4569 41.034H24.8706V53.1025H30.9056V48.911L36.5147 44.3213C38.8074 42.4521 40.6755 40.1157 41.9945 37.4679C43.3135 34.8201 44.0531 31.9216 44.1641 28.9656H36.9391V26.5519Z" fill="white"/>
<path d="M29.698 60.344H15.2158C15.0538 60.3384 14.8923 60.3654 14.741 60.4235C14.5897 60.4816 14.4516 60.5696 14.335 60.6822C14.2184 60.7949 14.1256 60.9298 14.0623 61.079C13.9989 61.2283 13.9663 61.3887 13.9663 61.5508C13.9663 61.7129 13.9989 61.8734 14.0623 62.0226C14.1256 62.1719 14.2184 62.3068 14.335 62.4194C14.4516 62.5321 14.5897 62.62 14.741 62.6782C14.8923 62.7363 15.0538 62.7633 15.2158 62.7577H29.698C30.0108 62.7468 30.3072 62.6149 30.5246 62.3898C30.7421 62.1646 30.8636 61.8638 30.8636 61.5508C30.8636 61.2378 30.7421 60.9371 30.5246 60.7119C30.3072 60.4868 30.0108 60.3549 29.698 60.344Z" fill="white"/>
<path d="M32.1116 55.5166H12.8021C12.4893 55.5275 12.1929 55.6594 11.9755 55.8845C11.758 56.1097 11.6365 56.4104 11.6365 56.7234C11.6365 57.0365 11.758 57.3372 11.9755 57.5624C12.1929 57.7875 12.4893 57.9194 12.8021 57.9303H32.1116C32.4244 57.9194 32.7208 57.7875 32.9383 57.5624C33.1557 57.3372 33.2772 57.0365 33.2772 56.7234C33.2772 56.4104 33.1557 56.1097 32.9383 55.8845C32.7208 55.6594 32.4244 55.5275 32.1116 55.5166Z" fill="white"/>
</g>
<defs>
<clipPath id="clip0_396_491">
<rect width="55.5003" height="70" fill="white" transform="translate(0.749756)"/>
</clipPath>
</defs>
</svg>
