<svg width="71" height="70" viewBox="0 0 71 70" fill="none" xmlns="http://www.w3.org/2000/svg">
<g clip-path="url(#clip0_396_534)">
<path d="M69.0642 0.00562149C55.3988 -0.239394 39.8155 6.90397 29.9507 17.9851C20.421 18.1847 11.3357 22.0532 4.58725 28.7847C4.39465 28.9755 4.25904 29.2163 4.19567 29.4799C4.1323 29.7435 4.14367 30.0196 4.22849 30.2771C4.31332 30.5346 4.46825 30.7634 4.67589 30.9377C4.88353 31.112 5.13566 31.225 5.40397 31.264L16.6455 32.8683L15.2571 34.4317C15.0088 34.7099 14.8765 35.0726 14.8874 35.4453C14.8982 35.818 15.0514 36.1723 15.3154 36.4356L34.0606 55.1822C34.3242 55.4458 34.6788 55.5984 35.0515 55.6088C35.4241 55.6191 35.7866 55.4863 36.0644 55.2376L37.6191 53.8492L39.2234 65.0907C39.2746 65.3555 39.3982 65.6009 39.5804 65.7997C39.7627 65.9985 39.9966 66.1428 40.2559 66.2166C40.3907 66.2599 40.5315 66.2816 40.673 66.2808C41.0956 66.2749 41.4998 66.1068 41.8019 65.8112C48.4862 59.0771 52.3225 50.0289 52.5155 40.5425C63.6082 30.6544 70.8085 15.077 70.4905 1.42904C70.4816 1.05383 70.3284 0.696503 70.0627 0.431385C69.7971 0.166267 69.4394 0.0137725 69.0642 0.00562149ZM55.6248 25.1839C54.6049 26.2035 53.3056 26.8978 51.8911 27.179C50.4766 27.4602 49.0105 27.3157 47.6782 26.7637C46.3458 26.2118 45.2071 25.2771 44.4059 24.078C43.6047 22.8788 43.1771 21.469 43.1771 20.0269C43.1771 18.5847 43.6047 17.1749 44.4059 15.9758C45.2071 14.7766 46.3458 13.842 47.6782 13.29C49.0105 12.738 50.4766 12.5935 51.8911 12.8747C53.3056 13.1559 54.6049 13.8503 55.6248 14.8699C56.305 15.5455 56.8447 16.3489 57.2131 17.234C57.5814 18.119 57.771 19.0682 57.771 20.0269C57.771 20.9855 57.5814 21.9347 57.2131 22.8198C56.8447 23.7048 56.305 24.5083 55.6248 25.1839Z" fill="white"/>
<path d="M8.44325 49.3046C5.32223 52.4256 1.03737 66.5257 0.559012 68.1212C0.492944 68.3392 0.478873 68.5697 0.517926 68.7941C0.556979 69.0186 0.64807 69.2308 0.783897 69.4137C0.919725 69.5966 1.09651 69.7451 1.30009 69.8474C1.50366 69.9496 1.72836 70.0028 1.95618 70.0026C2.09839 70.0022 2.23983 69.9816 2.37621 69.9413C3.97172 69.4629 18.0718 65.1781 21.1899 62.0571C22.027 61.2199 22.6911 60.2261 23.1442 59.1323C23.5972 58.0385 23.8304 56.8662 23.8304 55.6823C23.8304 54.4984 23.5972 53.3261 23.1442 52.2323C22.6911 51.1385 22.027 50.1447 21.1899 49.3075C20.3527 48.4704 19.3589 47.8063 18.2651 47.3532C17.1713 46.9002 15.999 46.667 14.8151 46.667C13.6312 46.667 12.4589 46.9002 11.3651 47.3532C10.2713 47.8063 9.27748 48.4704 8.44034 49.3075L8.44325 49.3046Z" fill="white"/>
</g>
<defs>
<clipPath id="clip0_396_534">
<rect width="70.0044" height="70" fill="white" transform="translate(0.497803)"/>
</clipPath>
</defs>
</svg>
