<svg width="69" height="70" viewBox="0 0 69 70" fill="none" xmlns="http://www.w3.org/2000/svg">
<g clip-path="url(#clip0_396_522)">
<path d="M0.312256 45.3911H8.51426V69.9986H0.312256V45.3911Z" fill="white"/>
<path d="M28.0364 28.7127H42.3112C44.525 25.6268 49.5288 21.2662 49.5288 14.3577C49.4907 10.5758 47.9616 6.96175 45.2738 4.30091C42.586 1.64006 38.9567 0.147461 35.1746 0.147461C31.3924 0.147461 27.7631 1.64006 25.0753 4.30091C22.3875 6.96175 20.8584 10.5758 20.8203 14.3577C20.8189 21.2049 25.7191 25.4838 28.0364 28.7127ZM32.5225 12.9081L35.1738 15.5595L37.8252 12.9081L40.7245 15.8074L37.2243 19.3075V24.6103H33.1233V19.309L29.6232 15.8088L32.5225 12.9081Z" fill="white"/>
<path d="M35.1722 41.016C36.8031 41.014 38.3667 40.3653 39.5199 39.2121C40.6731 38.0589 41.3218 36.4954 41.3238 34.8645V32.814H29.0193V34.8645C29.0212 36.4956 29.6701 38.0594 30.8237 39.2126C31.9772 40.3659 33.5411 41.0144 35.1722 41.016Z" fill="white"/>
<path d="M8.51562 13.1284H16.7176V17.2294H8.51562V13.1284Z" fill="white"/>
<path d="M53.6296 13.1284H61.8316V17.2294H53.6296V13.1284Z" fill="white"/>
<path d="M11.062 26.728L18.1637 22.6278L20.2149 26.1805L13.1132 30.2808L11.062 26.728Z" fill="white"/>
<path d="M50.1282 4.09961L57.2299 -0.000665665L59.2811 3.55207L52.1794 7.65234L50.1282 4.09961Z" fill="white"/>
<path d="M11.0605 3.55566L13.1118 0.00293173L20.2135 4.10321L18.1622 7.65594L11.0605 3.55566Z" fill="white"/>
<path d="M50.1267 26.1768L52.1779 22.624L59.2796 26.7243L57.2284 30.277L50.1267 26.1768Z" fill="white"/>
<path d="M66.8369 39.3314C65.3781 38.6088 63.6925 38.4936 62.149 39.011C60.6055 39.5285 59.3298 40.6363 58.6013 42.0921L50.7887 57.697H24.9212V53.5945H49.5287C49.5287 51.4192 48.6645 49.333 47.1264 47.7948C45.5882 46.2566 43.502 45.3925 41.3267 45.3925H31.8908C29.2964 43.0752 26.0371 41.6353 22.5769 41.2776C19.1167 40.9199 15.6318 41.6627 12.6182 43.4003V66.3496H55.6408L68.6978 40.2444L66.8369 39.3314Z" fill="white"/>
</g>
<defs>
<clipPath id="clip0_396_522">
<rect width="68.3753" height="70" fill="white" transform="translate(0.312256)"/>
</clipPath>
</defs>
</svg>
