<svg width="71" height="70" viewBox="0 0 71 70" fill="none" xmlns="http://www.w3.org/2000/svg">
<g clip-path="url(#clip0_396_480)">
<path d="M28.5641 27.6138C28.1065 27.6123 27.6546 27.5111 27.2401 27.3173C26.8255 27.1234 26.4581 26.8416 26.1635 26.4914C25.8689 26.1412 25.6541 25.7311 25.5341 25.2894C25.414 24.8478 25.3916 24.3854 25.4684 23.9342L26.5115 17.849L22.091 13.5389C21.6705 13.1294 21.3731 12.6105 21.2324 12.0407C21.0916 11.471 21.1132 10.8732 21.2946 10.3151C21.476 9.75697 21.81 9.26077 22.2588 8.88266C22.7077 8.50454 23.2533 8.25962 23.8342 8.1756L29.9441 7.28802L32.6766 1.75188C32.9365 1.22597 33.3382 0.78321 33.8365 0.473633C34.3347 0.164057 34.9096 0 35.4962 0C36.0828 0 36.6578 0.164057 37.156 0.473633C37.6543 0.78321 38.056 1.22597 38.3159 1.75188L41.0571 7.28947L47.167 8.17705C47.7479 8.26107 48.2936 8.506 48.7424 8.88411C49.1912 9.26222 49.5252 9.75842 49.7066 10.3165C49.888 10.8747 49.9096 11.4724 49.7688 12.0422C49.6281 12.6119 49.3307 13.1309 48.9102 13.5403L44.4898 17.8504L45.5328 23.9357C45.6324 24.5141 45.5681 25.1089 45.3471 25.6527C45.1262 26.1964 44.7574 26.6675 44.2825 27.0125C43.8077 27.3575 43.2457 27.5626 42.6602 27.6047C42.0748 27.6468 41.4893 27.5242 40.9699 27.2507L35.505 24.3773L30.04 27.2507C29.5851 27.4905 29.0784 27.6152 28.5641 27.6138Z" fill="white"/>
<path d="M17.6503 33.3274C17.1788 33.3265 16.7147 33.2108 16.2979 32.9904L12.258 30.868L8.21957 32.9904C7.7402 33.2415 7.20023 33.3537 6.66052 33.3144C6.1208 33.2751 5.60279 33.0858 5.16485 32.768C4.72692 32.4501 4.38646 32.0162 4.18186 31.5152C3.97725 31.0143 3.91663 30.4661 4.00681 29.9325L4.77818 25.4292L1.50821 22.2508C1.12191 21.8723 0.848927 21.3934 0.719995 20.8682C0.591064 20.3429 0.611301 19.7921 0.778428 19.2778C0.945556 18.7634 1.25294 18.3059 1.66598 17.9568C2.07902 17.6076 2.58131 17.3807 3.11632 17.3015L7.63123 16.6449L9.65045 12.5542C9.89111 12.0699 10.2621 11.6625 10.7218 11.3776C11.1814 11.0928 11.7114 10.9419 12.2522 10.9419C12.7929 10.9419 13.3229 11.0928 13.7826 11.3776C14.2422 11.6625 14.6133 12.0699 14.8539 12.5542L16.8731 16.6449L21.3881 17.3015C21.924 17.3789 22.4277 17.6045 22.8422 17.953C23.2568 18.3014 23.5657 18.7587 23.7341 19.2734C23.9026 19.7881 23.9238 20.3396 23.7955 20.8657C23.6671 21.3918 23.3943 21.8715 23.0078 22.2508L19.7349 25.4351L20.5063 29.9383C20.5775 30.3547 20.557 30.7816 20.4463 31.1893C20.3356 31.597 20.1373 31.9756 19.8653 32.2988C19.5933 32.622 19.254 32.882 18.8712 33.0606C18.4884 33.2393 18.0713 33.3323 17.6489 33.3332L17.6503 33.3274Z" fill="white"/>
<path d="M64.1328 33.3274C63.6613 33.3264 63.1972 33.2108 62.7804 32.9904L58.7419 30.8665L54.7035 32.9904C54.2241 33.2414 53.6841 33.3536 53.1444 33.3143C52.6047 33.275 52.0867 33.0858 51.6488 32.7679C51.2108 32.45 50.8704 32.0162 50.6658 31.5152C50.4612 31.0142 50.4005 30.466 50.4907 29.9325L51.2621 25.4292L47.995 22.2449C47.6087 21.8664 47.3357 21.3876 47.2068 20.8623C47.0779 20.3371 47.0981 19.7863 47.2652 19.2719C47.4324 18.7576 47.7398 18.3 48.1528 17.9509C48.5659 17.6018 49.0681 17.3748 49.6031 17.2957L54.1181 16.6391L56.1373 12.5483C56.378 12.0641 56.749 11.6566 57.2086 11.3718C57.6683 11.0869 58.1983 10.936 58.739 10.936C59.2798 10.936 59.8098 11.0869 60.2694 11.3718C60.729 11.6566 61.1001 12.0641 61.3408 12.5483L63.36 16.6391L67.8749 17.2957C68.4099 17.3748 68.9122 17.6018 69.3252 17.9509C69.7383 18.3 70.0456 18.7576 70.2128 19.2719C70.3799 19.7863 70.4001 20.3371 70.2712 20.8623C70.1423 21.3876 69.8693 21.8664 69.483 22.2449L66.2174 25.435L66.9888 29.9383C67.0599 30.3547 67.0394 30.7816 66.9287 31.1893C66.818 31.5969 66.6198 31.9755 66.3478 32.2987C66.0758 32.6219 65.7365 32.8819 65.3537 33.0606C64.9709 33.2392 64.5538 33.3323 64.1313 33.3332L64.1328 33.3274Z" fill="white"/>
<path d="M18.2472 56.2114C16.2361 58.0459 13.6123 59.0628 10.8902 59.0628C8.16809 59.0628 5.5442 58.0459 3.53311 56.2114C2.63774 56.8419 1.90717 57.6785 1.40303 58.6506C0.898889 59.6227 0.635977 60.7019 0.636475 61.797V67.949C0.636475 68.493 0.852581 69.0148 1.23725 69.3994C1.62192 69.7841 2.14365 70.0002 2.68765 70.0002H19.0927C19.6367 70.0002 20.1584 69.7841 20.5431 69.3994C20.9278 69.0148 21.1439 68.493 21.1439 67.949V61.797C21.1444 60.7019 20.8815 59.6227 20.3773 58.6506C19.8732 57.6785 19.1426 56.8419 18.2472 56.2114Z" fill="white"/>
<path d="M10.891 54.9592C9.53889 54.9592 8.21716 54.5583 7.09294 53.8071C5.96872 53.0559 5.09249 51.9882 4.57507 50.7391C4.05765 49.4899 3.92227 48.1153 4.18605 46.7892C4.44983 45.4631 5.10092 44.245 6.05699 43.2889C7.01306 42.3329 8.23117 41.6818 9.55728 41.418C10.8834 41.1542 12.2579 41.2896 13.5071 41.807C14.7563 42.3244 15.824 43.2007 16.5751 44.3249C17.3263 45.4491 17.7273 46.7708 17.7273 48.1229C17.7253 49.9354 17.0045 51.6732 15.7228 52.9548C14.4412 54.2364 12.7035 54.9573 10.891 54.9592Z" fill="white"/>
<path d="M67.4667 56.2114C65.4556 58.0459 62.8317 59.0628 60.1097 59.0628C57.3876 59.0628 54.7637 58.0459 52.7526 56.2114C51.8572 56.8419 51.1266 57.6785 50.6225 58.6506C50.1184 59.6227 49.8555 60.7019 49.856 61.797V67.949C49.856 68.493 50.0721 69.0148 50.4567 69.3994C50.8414 69.7841 51.3631 70.0002 51.9071 70.0002H68.3136C68.8576 70.0002 69.3794 69.7841 69.764 69.3994C70.1487 69.0148 70.3648 68.493 70.3648 67.949V61.797C70.3652 60.7018 70.102 59.6225 69.5976 58.6504C69.0932 57.6783 68.3623 56.8417 67.4667 56.2114Z" fill="white"/>
<path d="M60.109 54.9592C58.7569 54.9592 57.4352 54.5583 56.311 53.8071C55.1867 53.0559 54.3105 51.9882 53.7931 50.7391C53.2757 49.4899 53.1403 48.1153 53.4041 46.7892C53.6678 45.4631 54.3189 44.245 55.275 43.2889C56.2311 42.3329 57.4492 41.6818 58.7753 41.418C60.1014 41.1542 61.4759 41.2896 62.7251 41.807C63.9743 42.3244 65.042 43.2007 65.7932 44.3249C66.5443 45.4491 66.9453 46.7708 66.9453 48.1229C66.9433 49.9354 66.2225 51.6732 64.9409 52.9548C63.6592 54.2364 61.9215 54.9573 60.109 54.9592Z" fill="white"/>
<path d="M42.8586 56.2114C40.8475 58.0459 38.2236 59.0628 35.5015 59.0628C32.7794 59.0628 30.1555 58.0459 28.1444 56.2114C27.2491 56.8419 26.5185 57.6785 26.0143 58.6506C25.5102 59.6227 25.2473 60.7019 25.2478 61.797V67.949C25.2478 68.493 25.4639 69.0148 25.8486 69.3994C26.2332 69.7841 26.755 70.0002 27.299 70.0002H43.7055C44.2495 70.0002 44.7712 69.7841 45.1559 69.3994C45.5406 69.0148 45.7566 68.493 45.7566 67.949V61.797C45.757 60.7018 45.4939 59.6225 44.9895 58.6504C44.4851 57.6783 43.7542 56.8417 42.8586 56.2114Z" fill="white"/>
<path d="M35.5006 54.9592C34.1485 54.9592 32.8268 54.5583 31.7026 53.8071C30.5783 53.0559 29.7021 51.9882 29.1847 50.7391C28.6673 49.4899 28.5319 48.1153 28.7957 46.7892C29.0594 45.4631 29.7105 44.245 30.6666 43.2889C31.6227 42.3329 32.8408 41.6818 34.1669 41.418C35.493 41.1542 36.8676 41.2896 38.1167 41.807C39.3659 42.3244 40.4336 43.2007 41.1848 44.3249C41.9359 45.4491 42.3369 46.7708 42.3369 48.1229C42.335 49.9354 41.6141 51.6732 40.3325 52.9548C39.0508 54.2364 37.3131 54.9573 35.5006 54.9592Z" fill="white"/>
</g>
<defs>
<clipPath id="clip0_396_480">
<rect width="69.7269" height="70" fill="white" transform="translate(0.636475)"/>
</clipPath>
</defs>
</svg>
