<svg width="84" height="66" viewBox="0 0 84 66" fill="none" xmlns="http://www.w3.org/2000/svg">
<g clip-path="url(#clip0_1633_1633)">
<path d="M33.4444 24.6817C33.3594 24.4857 33.2613 24.2962 33.1371 24.1132C33.0194 23.9368 32.8821 23.7669 32.7252 23.6166C32.5682 23.4663 32.4048 23.3291 32.2282 23.2049C32.0452 23.0873 31.8555 22.9828 31.6594 22.9043C31.4567 22.8194 31.254 22.7606 31.0382 22.7148C30.8225 22.6691 30.6132 22.6495 30.3975 22.6495H28.2986V20.5585C28.2986 20.3428 28.279 20.1272 28.2332 19.9181C28.194 19.709 28.1286 19.4999 28.0436 19.3039C27.9586 19.1078 27.8605 18.9183 27.7363 18.7354C27.6186 18.559 27.4813 18.3891 27.3244 18.2388C27.174 18.0885 27.004 17.9513 26.8274 17.8271C26.6444 17.7095 26.4547 17.6049 26.2586 17.52C26.0559 17.435 25.8532 17.3762 25.6374 17.3305C25.4282 17.2913 25.2124 17.2651 24.9967 17.2651H21.4005C21.1847 17.2651 20.9689 17.2847 20.7597 17.3305C20.5505 17.3697 20.3412 17.435 20.1386 17.52C19.9359 17.6049 19.7462 17.7029 19.5697 17.8271C19.3866 17.9447 19.2232 18.0819 19.0728 18.2388C18.9224 18.3891 18.7851 18.559 18.6609 18.7354C18.5432 18.9118 18.4385 19.1013 18.3535 19.3039C18.2685 19.4999 18.2097 19.709 18.1639 19.9181C18.1247 20.1272 18.0985 20.3428 18.0985 20.5585V22.6495H15.9997C15.7839 22.6495 15.5682 22.6691 15.3589 22.7148C15.1497 22.7541 14.9405 22.8194 14.7378 22.9043C14.5351 22.9893 14.3455 23.0873 14.1689 23.2049C13.9924 23.3225 13.8224 23.4598 13.672 23.6166C13.5216 23.7734 13.3843 23.9368 13.2601 24.1132C13.1424 24.2896 13.0378 24.4791 12.9528 24.6817C12.8678 24.8777 12.8089 25.0868 12.7631 25.2959C12.7174 25.505 12.6978 25.7207 12.6978 25.9363V29.5237C12.6978 29.7393 12.7174 29.955 12.7631 30.1641C12.8089 30.3732 12.8678 30.5823 12.9528 30.7783C13.0378 30.9744 13.1358 31.1639 13.2601 31.3468C13.3778 31.5232 13.5151 31.6931 13.672 31.8434C13.8289 31.9937 13.9924 32.1309 14.1689 32.2551C14.352 32.3727 14.5416 32.4773 14.7378 32.5622C14.9405 32.6472 15.1431 32.706 15.3589 32.7517C15.5682 32.7909 15.7839 32.8171 15.9997 32.8171H18.0985V34.9081C18.0985 35.1237 18.1182 35.3394 18.1639 35.5485C18.2032 35.7576 18.2685 35.9667 18.3535 36.1627C18.4385 36.3587 18.5366 36.5482 18.6609 36.7312C18.7786 36.9076 18.9159 37.0775 19.0728 37.2278C19.2232 37.3781 19.3932 37.5153 19.5697 37.6395C19.7528 37.7571 19.9424 37.8616 20.1386 37.9401C20.3412 38.025 20.5439 38.0838 20.7597 38.1296C20.9689 38.1688 21.1847 38.1949 21.4005 38.1949H24.9967C25.2124 38.1949 25.4282 38.1753 25.6374 38.1296C25.8467 38.0903 26.0559 38.025 26.2586 37.9401C26.4613 37.8551 26.6509 37.7571 26.8274 37.6395C27.0105 37.5218 27.174 37.3846 27.3244 37.2278C27.4747 37.0775 27.6121 36.9076 27.7363 36.7312C27.854 36.5548 27.9586 36.3653 28.0436 36.1627C28.1286 35.9667 28.1874 35.7576 28.2332 35.5485C28.2724 35.3394 28.2986 35.1237 28.2986 34.9081V32.8171H30.3975C30.6132 32.8171 30.829 32.7975 31.0382 32.7517C31.2475 32.7125 31.4567 32.6472 31.6594 32.5622C31.8621 32.4773 32.0517 32.3793 32.2282 32.2551C32.4113 32.1375 32.5748 32.0003 32.7252 31.8434C32.8755 31.6866 33.0128 31.5232 33.1371 31.3468C33.2613 31.1704 33.3594 30.9809 33.4444 30.7783C33.5294 30.5823 33.5882 30.3732 33.634 30.1641C33.6732 29.955 33.6994 29.7393 33.6994 29.5237V25.9363C33.6994 25.7207 33.6798 25.505 33.634 25.2959C33.5882 25.0868 33.5294 24.8777 33.4444 24.6817ZM30.6982 29.5237C30.6982 29.6087 30.6721 29.674 30.6132 29.7328C30.5544 29.7916 30.4825 29.8178 30.404 29.8178H26.8078C26.6117 29.8178 26.4155 29.857 26.2324 29.9288C26.0494 30.0007 25.8859 30.1118 25.7486 30.2556C25.6113 30.3928 25.5001 30.5562 25.4217 30.7391C25.3432 30.9221 25.3105 31.1116 25.3105 31.3076V34.895C25.3105 34.98 25.2844 35.0453 25.2255 35.1041C25.1667 35.1629 25.0947 35.1891 25.0163 35.1891H21.4201C21.3351 35.1891 21.2697 35.1629 21.2109 35.1041C21.152 35.0453 21.1259 34.9734 21.1259 34.895V31.3076C21.1259 31.1116 21.0866 30.9221 21.0147 30.7391C20.9363 30.5562 20.8316 30.3928 20.6878 30.2556C20.5505 30.1183 20.387 30.0073 20.2039 29.9288C20.0209 29.8504 19.8312 29.8178 19.6286 29.8178H16.0324C15.9474 29.8178 15.882 29.7916 15.8232 29.7328C15.7643 29.674 15.7382 29.6021 15.7382 29.5237V25.9363C15.7382 25.8514 15.7643 25.786 15.8232 25.7272C15.882 25.6684 15.9539 25.6423 16.0324 25.6423H19.6286C19.8247 25.6423 20.0209 25.6031 20.2039 25.5312C20.387 25.4528 20.5505 25.3482 20.6878 25.2045C20.8251 25.0672 20.9363 24.9039 21.0147 24.7209C21.0932 24.5379 21.1259 24.3485 21.1259 24.1524V20.565C21.1259 20.4801 21.152 20.4147 21.2109 20.3559C21.2697 20.2971 21.3416 20.271 21.4201 20.271H25.0163C25.1013 20.271 25.1667 20.2971 25.2255 20.3559C25.2844 20.4147 25.3105 20.4866 25.3105 20.565V24.1524C25.3105 24.3485 25.3497 24.5379 25.4217 24.7209C25.5001 24.9039 25.6047 25.0672 25.7486 25.2045C25.8859 25.3417 26.0494 25.4528 26.2324 25.5312C26.4155 25.6096 26.6051 25.6423 26.8078 25.6423H30.404C30.489 25.6423 30.5544 25.6684 30.6132 25.7272C30.6721 25.786 30.6982 25.8579 30.6982 25.9363V29.5237Z" fill="white"/>
<path d="M59.6247 31.3794C59.2977 31.3794 58.9708 31.4055 58.6504 31.4643C58.33 31.5232 58.0162 31.6146 57.7089 31.7323C57.4016 31.8564 57.1139 32.0002 56.8393 32.1831C56.5646 32.3596 56.3096 32.5621 56.0743 32.7908C55.8389 33.0195 55.6296 33.2678 55.44 33.5358C55.2569 33.8037 55.0935 34.0912 54.9627 34.3852C54.8319 34.6793 54.7339 34.9929 54.6619 35.3131C54.59 35.6333 54.5573 35.9535 54.5508 36.2802C54.5508 36.6069 54.5704 36.9271 54.6292 37.2538C54.6881 37.574 54.7731 37.8877 54.8973 38.1948C55.015 38.5019 55.1654 38.7894 55.3419 39.0639C55.5185 39.3383 55.7212 39.5932 55.9435 39.8284C56.1723 40.0636 56.4143 40.2727 56.6823 40.4622C56.9504 40.6517 57.2316 40.8086 57.5323 40.9393C57.8331 41.0699 58.1404 41.1745 58.4608 41.2464C58.7812 41.3183 59.1016 41.3575 59.4285 41.364C66.0128 41.2398 66.2612 31.6669 59.6116 31.3859L59.6247 31.3794ZM61.3508 37.1493C61.2462 37.3911 61.1024 37.6067 60.9127 37.7897C60.7231 37.9726 60.5073 38.1164 60.2654 38.2209C60.0235 38.319 59.7685 38.3712 59.5004 38.3712C59.2389 38.3712 58.9839 38.3124 58.742 38.2013C58.5 38.0968 58.2843 37.9465 58.1012 37.757C57.9181 37.5675 57.7743 37.3519 57.6762 37.1036C57.5781 36.8618 57.5323 36.6069 57.5323 36.339C57.5323 36.0776 57.5912 35.8228 57.6893 35.581C57.7939 35.3393 57.9377 35.1236 58.1273 34.9407C58.317 34.7577 58.5327 34.6139 58.7746 34.5094C59.0166 34.4114 59.2716 34.3591 59.5396 34.3591C59.8012 34.3591 60.0562 34.4244 60.2981 34.529C60.54 34.6335 60.7558 34.7838 60.9389 34.9733C61.122 35.1628 61.2658 35.3785 61.3639 35.6268C61.462 35.8685 61.5077 36.1234 61.5077 36.3913C61.5077 36.6527 61.4554 36.9075 61.3508 37.1493Z" fill="white"/>
<path d="M55.4531 29.6347C55.5773 29.3341 55.6754 29.027 55.7408 28.7134C55.8062 28.3997 55.8389 28.073 55.8454 27.7528C55.8454 27.4261 55.8193 27.1059 55.7604 26.7923C55.7016 26.4721 55.61 26.1649 55.4923 25.8644C55.3746 25.5638 55.2242 25.2763 55.0477 25.0084C54.8712 24.7339 54.6685 24.4856 54.4462 24.2504C54.2239 24.0151 53.9754 23.806 53.7073 23.6231C53.4392 23.4401 53.1581 23.2833 52.8639 23.1526C52.5696 23.0219 52.2623 22.9239 51.9419 22.852C51.6281 22.7801 51.3012 22.7409 50.9808 22.7344C44.3507 22.7932 44.233 32.5948 50.8762 32.6863C51.2031 32.6863 51.5235 32.6536 51.8438 32.5883C52.1642 32.5229 52.4715 32.4315 52.7723 32.3073C53.0731 32.1832 53.3542 32.0329 53.6289 31.8499C53.9035 31.6669 54.1519 31.4644 54.3808 31.2357C54.6096 31.007 54.8189 30.7586 55.0019 30.4907C55.185 30.2228 55.3354 29.9418 55.4662 29.6413L55.4531 29.6347ZM52.7396 28.5173C52.6285 28.7591 52.4781 28.9748 52.2819 29.1577C52.0858 29.3407 51.8635 29.4779 51.6085 29.5694C51.3535 29.6609 51.0985 29.7001 50.8304 29.687C50.5688 29.6739 50.3204 29.6151 50.085 29.504C49.8496 29.393 49.6404 29.2427 49.4638 29.0532C49.2873 28.8637 49.15 28.648 49.0585 28.3997C48.9669 28.1579 48.9211 27.9031 48.9277 27.6483C48.9342 27.3869 48.9931 27.1386 49.0977 26.9033C49.2023 26.6681 49.3461 26.4525 49.5358 26.276C49.7254 26.0931 49.9346 25.9558 50.1765 25.8578C50.4185 25.7598 50.6669 25.7141 50.9285 25.7141C51.1965 25.7141 51.4515 25.7663 51.7 25.8709C51.9485 25.9754 52.1642 26.1257 52.3473 26.3152C52.5304 26.5047 52.6742 26.7269 52.7723 26.9752C52.8704 27.2235 52.9162 27.4849 52.9096 27.7528C52.9031 28.0207 52.8442 28.2756 52.7331 28.5173H52.7396Z" fill="white"/>
<path d="M68.2555 22.728C61.632 22.8979 61.4882 32.5231 68.1836 32.68C74.7613 32.5689 74.7678 22.9437 68.2555 22.728ZM69.9882 28.4914C69.8836 28.7332 69.7397 28.9423 69.5501 29.1252C69.3605 29.3082 69.1447 29.4454 68.9028 29.5434C68.6609 29.6414 68.4059 29.6872 68.1443 29.6872C67.8828 29.6807 67.6278 29.6218 67.3924 29.5173C67.1505 29.4127 66.9413 29.2625 66.7582 29.073C66.5751 28.8835 66.4378 28.6678 66.3397 28.4195C66.2416 28.1777 66.1959 27.9229 66.2024 27.6615C66.2024 27.4001 66.2612 27.1453 66.3659 26.9101C66.4705 26.6683 66.6143 26.4592 66.8039 26.2762C66.9936 26.0933 67.2093 25.956 67.4513 25.858C67.6932 25.76 67.9482 25.7143 68.2097 25.7143C68.4713 25.7208 68.7263 25.7796 68.9616 25.8842C69.2036 25.9887 69.4128 26.139 69.5959 26.3285C69.779 26.518 69.9163 26.7336 70.0143 26.9819C70.1124 27.2237 70.1582 27.4786 70.1517 27.7399C70.1517 28.0013 70.0928 28.2561 69.9882 28.4914Z" fill="white"/>
<path d="M54.9429 20.9442C55.0606 21.2447 55.211 21.5388 55.3875 21.8132C55.5641 22.0877 55.7668 22.3425 55.9956 22.5778C56.2245 22.813 56.4729 23.0221 56.741 23.2116C57.0091 23.4011 57.2902 23.5579 57.591 23.6886C57.8918 23.8193 58.1991 23.9238 58.5195 23.9957C58.8399 24.0676 59.1603 24.1068 59.4872 24.1199C59.8141 24.1199 60.141 24.0872 60.4614 24.0219C60.7818 23.9565 61.0956 23.865 61.3964 23.7409C61.6972 23.6167 61.9849 23.4664 62.2595 23.2835C62.5341 23.1005 62.7826 22.8979 63.018 22.6692C63.2533 22.4405 63.456 22.1922 63.6457 21.9178C63.8287 21.6499 63.9857 21.3624 64.1164 21.0618C64.2472 20.7612 64.3387 20.4541 64.4107 20.1339C64.476 19.8137 64.5153 19.4935 64.5153 19.1668C64.5153 18.8401 64.4891 18.5133 64.4303 18.1932C64.3714 17.873 64.2799 17.5593 64.1622 17.2587C64.0445 16.9582 63.8941 16.6641 63.7176 16.3897C63.541 16.1152 63.3383 15.8604 63.1095 15.6251C62.8806 15.3899 62.6322 15.1808 62.3641 14.9913C62.096 14.8018 61.8149 14.645 61.5141 14.5143C61.2133 14.3836 60.906 14.279 60.5856 14.2072C60.2653 14.1353 59.9449 14.0961 59.6179 14.083C59.291 14.083 58.9641 14.1157 58.6437 14.181C58.3233 14.2464 58.0095 14.3379 57.7087 14.462C57.4079 14.5862 57.1202 14.7365 56.8456 14.9194C56.571 15.1024 56.3225 15.3049 56.0872 15.5337C55.8518 15.7624 55.6491 16.0107 55.4595 16.2851C55.2764 16.553 55.1195 16.8405 54.9887 17.1411C54.8579 17.4417 54.7664 17.7488 54.6945 18.069C54.6225 18.3892 54.5898 18.7094 54.5898 19.0361C54.5898 19.3628 54.616 19.6895 54.6748 20.0097C54.7337 20.3299 54.8252 20.6436 54.9429 20.9442ZM57.591 18.6898C57.676 18.2912 57.8591 17.9514 58.1468 17.6639C58.441 17.3894 58.781 17.213 59.1799 17.1411C59.5787 17.0692 59.9579 17.1084 60.3306 17.2653C60.7033 17.4221 60.9976 17.6639 61.2264 18.0037C61.4487 18.3369 61.5664 18.7028 61.5664 19.108C61.5533 19.3759 61.4945 19.6242 61.3899 19.8725C61.2853 20.1143 61.1349 20.3299 60.9453 20.5194C60.7556 20.7089 60.5399 20.8527 60.2979 20.9638C60.056 21.0683 59.801 21.1271 59.5329 21.1402C59.1276 21.1336 58.7549 21.0095 58.4214 20.7808C58.0879 20.5521 57.846 20.245 57.6956 19.866C57.5452 19.487 57.5126 19.1014 57.591 18.7028V18.6898Z" fill="white"/>
<path d="M81.45 27.6418C78.998 17.1149 72.0672 2.57578 58.356 5.34638C51.7587 6.33308 43.9125 9.82246 37.6094 8.02549C34.0067 7.11721 30.3778 6.36575 26.8013 5.59469C6.38155 1.14474 0.856524 28.5893 0.032674 45.0953C-0.477328 56.1384 5.16539 65.2932 17.0785 58.8829C20.6943 56.8572 23.9962 54.4134 26.9909 51.5578C28.9524 49.6236 31.2605 48.271 33.9086 47.4934C41.7613 45.5265 50.9741 45.7552 57.4014 51.8715C63.4234 57.9289 77.9584 67.5541 82.7446 54.2631C85.0592 45.6507 83.9084 38.0773 81.4434 27.6418H81.45ZM71.4461 57.5368C62.3903 54.8185 57.6564 45.2064 48.4829 44.0302C40.1529 42.7233 31.4894 43.2003 24.9574 49.3622C22.1524 52.0479 19.0531 54.3415 15.6662 56.2495C-5.19158 66.9006 5.04116 24.5445 9.25848 17.9643C16.3527 4.2878 24.2643 8.03856 36.8705 10.9202C41.0944 12.1814 46.7371 11.2404 51.556 9.90087C59.2714 7.80332 66.7449 6.14358 72.1457 13.7496C78.9784 20.9898 88.4723 62.6206 71.4461 57.5368Z" fill="white"/>
</g>
<defs>
<clipPath id="clip0_1633_1633">
<rect width="84" height="66" fill="white"/>
</clipPath>
</defs>
</svg>
