        <svg xmlns="http://www.w3.org/2000/svg" xmlns:xlink="http://www.w3.org/1999/xlink" viewBox="0 0 1080 560" width="1080" height="560" preserveAspectRatio="xMidYMid slice" style="width: 100%; height: 100%; transform: translate3d(0px, 0px, 0px); content-visibility: visible;"><defs><clipPath id="__lottie_element_2"><rect width="1080" height="560" x="0" y="0"></rect></clipPath><linearGradient id="__lottie_element_6" spreadMethod="pad" gradientUnits="userSpaceOnUse" x1="-0.1340000033378601" y1="58.73899841308594" x2="-0.1340000033378601" y2="-72.90599822998047"><stop offset="0%" stop-color="rgb(157,204,237)" stop-opacity="0.30000001192092896"></stop><stop offset="50%" stop-color="rgb(79,103,120)" stop-opacity="0.25"></stop><stop offset="99%" stop-color="rgb(0,1,2)" stop-opacity="0.20000000298023224"></stop></linearGradient><linearGradient id="__lottie_element_10" spreadMethod="pad" gradientUnits="userSpaceOnUse" x1="-0.6299999952316284" y1="58.73899841308594" x2="-0.6299999952316284" y2="-72.90599822998047"><stop offset="0%" stop-color="rgb(233,179,39)" stop-opacity="0.6000000238418579"></stop><stop offset="50%" stop-color="rgb(233,179,39)" stop-opacity="0.4000000059604645"></stop><stop offset="99%" stop-color="rgb(233,179,39)" stop-opacity="0.20000000298023224"></stop></linearGradient><linearGradient id="__lottie_element_14" spreadMethod="pad" gradientUnits="userSpaceOnUse" x1="0.9229999780654907" y1="61.58300018310547" x2="0.9229999780654907" y2="-70.5790023803711"><stop offset="0%" stop-color="rgb(181,89,220)" stop-opacity="0.30000001192092896"></stop><stop offset="50%" stop-color="rgb(91,45,111)" stop-opacity="0.25"></stop><stop offset="99%" stop-color="rgb(0,1,2)" stop-opacity="0.20000000298023224"></stop></linearGradient><linearGradient id="__lottie_element_18" spreadMethod="pad" gradientUnits="userSpaceOnUse" x1="-0.26600000262260437" y1="58.58300018310547" x2="-0.26600000262260437" y2="-73.06199645996094"><stop offset="0%" stop-color="rgb(140,141,252)" stop-opacity="0.30000001192092896"></stop><stop offset="50%" stop-color="rgb(70,71,127)" stop-opacity="0.25"></stop><stop offset="99%" stop-color="rgb(0,1,2)" stop-opacity="0.20000000298023224"></stop></linearGradient><linearGradient id="__lottie_element_22" spreadMethod="pad" gradientUnits="userSpaceOnUse" x1="-0.8820000290870667" y1="58.138999938964844" x2="-0.8820000290870667" y2="-105.77799987792969"><stop offset="0%" stop-color="rgb(31,116,240)" stop-opacity="0.30000001192092896"></stop><stop offset="50%" stop-color="rgb(16,58,121)" stop-opacity="0.15000000596046448"></stop><stop offset="99%" stop-color="rgb(0,1,2)" stop-opacity="0"></stop></linearGradient></defs><g clip-path="url(#__lottie_element_2)"><g transform="matrix(1,0,0,1,272.9309997558594,477.9840087890625)" opacity="0.19" style="display: block;"><g opacity="1" transform="matrix(1,0,0,1,0,0)"><path stroke-linecap="round" stroke-linejoin="miter" fill-opacity="0" stroke-miterlimit="4" stroke="rgb(249,250,251)" stroke-opacity="1" stroke-width="14" d=" M-123.87000274658203,-45.72100067138672 C-123.87000274658203,-45.72100067138672 -49.499000549316406,-45.72100067138672 -49.499000549316406,-45.72100067138672 C-42.5880012512207,-45.72100067138672 -36.03300094604492,-42.645999908447266 -31.60300064086914,-37.32699966430664 C-31.60300064086914,-37.32699966430664 30.566999435424805,37.32699966430664 30.566999435424805,37.32699966430664 C34.99700164794922,42.645999908447266 41.55099868774414,45.72100067138672 48.4630012512207,45.72100067138672 C48.4630012512207,45.72100067138672 123.87000274658203,45.72100067138672 123.87000274658203,45.72100067138672"></path></g></g><g transform="matrix(1,0,0,1,805.1539916992188,477.9840087890625)" opacity="0.19" style="display: block;"><g opacity="1" transform="matrix(1,0,0,1,0,0)"><path stroke-linecap="round" stroke-linejoin="miter" fill-opacity="0" stroke-miterlimit="4" stroke="rgb(249,250,251)" stroke-opacity="1" stroke-width="14" d=" M123.87000274658203,-45.72100067138672 C123.87000274658203,-45.72100067138672 49.49800109863281,-45.72100067138672 49.49800109863281,-45.72100067138672 C42.5880012512207,-45.72100067138672 36.03200149536133,-42.645999908447266 31.601999282836914,-37.32699966430664 C31.601999282836914,-37.32699966430664 -30.566999435424805,37.32699966430664 -30.566999435424805,37.32699966430664 C-34.99700164794922,42.645999908447266 -41.551998138427734,45.72100067138672 -48.4630012512207,45.72100067138672 C-48.4630012512207,45.72100067138672 -123.87000274658203,45.72100067138672 -123.87000274658203,45.72100067138672"></path></g></g><g transform="matrix(1,0,0,1,744.3709716796875,300.18798828125)" opacity="0.19" style="display: block;"><g opacity="1" transform="matrix(1,0,0,1,0,0)"><path stroke-linecap="round" stroke-linejoin="miter" fill-opacity="0" stroke-miterlimit="4" stroke="rgb(249,250,251)" stroke-opacity="1" stroke-width="14" d=" M59.28200149536133,-65.43499755859375 C59.28200149536133,-65.43499755859375 14.060999870300293,46.722999572753906 14.060999870300293,46.722999572753906 C9.50100040435791,58.03200149536133 -1.4459999799728394,65.43499755859375 -13.607999801635742,65.43499755859375 C-13.607999801635742,65.43499755859375 -59.28200149536133,65.43499755859375 -59.28200149536133,65.43499755859375"></path></g></g><g transform="matrix(1,0,0,1,331.33099365234375,300.18798828125)" opacity="0.19" style="display: block;"><g opacity="1" transform="matrix(1,0,0,1,0,0)"><path stroke-linecap="round" stroke-linejoin="miter" fill-opacity="0" stroke-miterlimit="4" stroke="rgb(249,250,251)" stroke-opacity="1" stroke-width="14" d=" M-59.28200149536133,-65.43499755859375 C-59.28200149536133,-65.43499755859375 -14.062000274658203,46.722999572753906 -14.062000274658203,46.722999572753906 C-9.50100040435791,58.03200149536133 1.4450000524520874,65.43499755859375 13.607999801635742,65.43499755859375 C13.607999801635742,65.43499755859375 59.28200149536133,65.43499755859375 59.28200149536133,65.43499755859375"></path></g></g><g transform="matrix(1,0,0,1,539.0430297851562,242.48300170898438)" opacity="0.19" style="display: block;"><g opacity="1" transform="matrix(1,0,0,1,0,0)"><path stroke-linecap="round" stroke-linejoin="miter" fill-opacity="0" stroke-miterlimit="4" stroke="rgb(249,250,251)" stroke-opacity="1" stroke-width="14" d=" M0,-74.88099670410156 C0,-74.88099670410156 0,0 0,0 C0,0 0,37.441001892089844 0,37.441001892089844 C0,37.441001892089844 0,74.88099670410156 0,74.88099670410156"></path></g></g><g transform="matrix(1,0,0,1,272.9309997558594,477.9840087890625)" opacity="1" style="display: block;"><g opacity="1" transform="matrix(1,0,0,1,0,0)"><path stroke-linecap="round" stroke-linejoin="miter" fill-opacity="0" stroke-miterlimit="4" stroke-dasharray=" 18.61 18.6" stroke-dashoffset="-108.77758026123047" stroke="rgb(40,160,240)" stroke-opacity="1" stroke-width="2.791" d=" M-123.87000274658203,-45.72100067138672 C-123.87000274658203,-45.72100067138672 -49.499000549316406,-45.72100067138672 -49.499000549316406,-45.72100067138672 C-42.5880012512207,-45.72100067138672 -36.03300094604492,-42.645999908447266 -31.60300064086914,-37.32699966430664 C-31.60300064086914,-37.32699966430664 30.566999435424805,37.32699966430664 30.566999435424805,37.32699966430664 C34.99700164794922,42.645999908447266 41.55099868774414,45.72100067138672 48.4630012512207,45.72100067138672 C48.4630012512207,45.72100067138672 123.87000274658203,45.72100067138672 123.87000274658203,45.72100067138672"></path></g></g><g transform="matrix(1,0,0,1,805.1539916992188,477.9840087890625)" opacity="1" style="display: block;"><g opacity="1" transform="matrix(1,0,0,1,0,0)"><path stroke-linecap="round" stroke-linejoin="miter" fill-opacity="0" stroke-miterlimit="4" stroke-dasharray=" 18.61 18.6" stroke-dashoffset="-107.470947265625" stroke="rgb(247,144,9)" stroke-opacity="1" stroke-width="2.791" d=" M123.87000274658203,-45.72100067138672 C123.87000274658203,-45.72100067138672 49.49800109863281,-45.72100067138672 49.49800109863281,-45.72100067138672 C42.5880012512207,-45.72100067138672 36.03200149536133,-42.645999908447266 31.601999282836914,-37.32699966430664 C31.601999282836914,-37.32699966430664 -30.566999435424805,37.32699966430664 -30.566999435424805,37.32699966430664 C-34.99700164794922,42.645999908447266 -41.551998138427734,45.72100067138672 -48.4630012512207,45.72100067138672 C-48.4630012512207,45.72100067138672 -123.87000274658203,45.72100067138672 -123.87000274658203,45.72100067138672"></path></g></g><g transform="matrix(1,0,0,1,744.3709716796875,300.18798828125)" opacity="1" style="display: block;"><g opacity="1" transform="matrix(1,0,0,1,0,0)"><path stroke-linecap="round" stroke-linejoin="miter" fill-opacity="0" stroke-miterlimit="4" stroke-dasharray=" 18.61 18.6" stroke-dashoffset="-102.79759979248047" stroke="rgb(242,53,53)" stroke-opacity="1" stroke-width="2.791" d=" M59.28200149536133,-65.43499755859375 C59.28200149536133,-65.43499755859375 14.060999870300293,46.722999572753906 14.060999870300293,46.722999572753906 C9.50100040435791,58.03200149536133 -1.4459999799728394,65.43499755859375 -13.607999801635742,65.43499755859375 C-13.607999801635742,65.43499755859375 -59.28200149536133,65.43499755859375 -59.28200149536133,65.43499755859375"></path></g></g><g transform="matrix(1,0,0,1,331.33099365234375,300.18798828125)" opacity="1" style="display: block;"><g opacity="1" transform="matrix(1,0,0,1,0,0)"><path stroke-linecap="round" stroke-linejoin="miter" fill-opacity="0" stroke-miterlimit="4" stroke-dasharray=" 18.61 18.6" stroke-dashoffset="-103.77758026123047" stroke="rgb(127,86,217)" stroke-opacity="1" stroke-width="2.791" d=" M-59.28200149536133,-65.43499755859375 C-59.28200149536133,-65.43499755859375 -14.062000274658203,46.722999572753906 -14.062000274658203,46.722999572753906 C-9.50100040435791,58.03200149536133 1.4450000524520874,65.43499755859375 13.607999801635742,65.43499755859375 C13.607999801635742,65.43499755859375 59.28200149536133,65.43499755859375 59.28200149536133,65.43499755859375"></path></g></g><g transform="matrix(1,0,0,1,537.9240112304688,242.48300170898438)" opacity="1" style="display: block;"><g opacity="1" transform="matrix(1,0,0,1,0,0)"><path stroke-linecap="round" stroke-linejoin="miter" fill-opacity="0" stroke-miterlimit="4" stroke-dasharray=" 22.33 22" stroke-dashoffset="-122.33710479736328" stroke="rgb(32,116,241)" stroke-opacity="1" stroke-width="2.791" d=" M0,-74.88099670410156 C0,-74.88099670410156 0,0 0,0 C0,0 0,37.441001892089844 0,37.441001892089844 C0,37.441001892089844 0,74.88099670410156 0,74.88099670410156"></path></g></g><g transform="matrix(1,0,0,1,0,30)" opacity="1" style="display: block;"><g opacity="1" transform="matrix(1,0,0,1,537.9240112304688,59.70600128173828)"><path fill="url(#__lottie_element_22)" fill-opacity="1" d=" M0,-50.198001861572266 C27.724000930786133,-50.198001861572266 50.198001861572266,-27.724000930786133 50.198001861572266,0 C50.198001861572266,27.724000930786133 27.724000930786133,50.198001861572266 0,50.198001861572266 C-27.724000930786133,50.198001861572266 -50.198001861572266,27.724000930786133 -50.198001861572266,0 C-50.198001861572266,-27.724000930786133 -27.724000930786133,-50.198001861572266 0,-50.198001861572266z"></path></g><g opacity="1" transform="matrix(1,0,0,1,0,0)"><g opacity="1" transform="matrix(1,0,0,1,549.677978515625,41.23500061035156)"><path fill="rgb(31,116,240)" fill-opacity="1" d=" M-11.760000228881836,-19.170000076293945 C-11.760000228881836,-19.170000076293945 -11.760000228881836,8.659000396728516 -11.760000228881836,8.659000396728516 C-11.760000228881836,8.659000396728516 11.760000228881836,19.170000076293945 11.760000228881836,19.170000076293945 C11.760000228881836,19.170000076293945 -11.760000228881836,-19.170000076293945 -11.760000228881836,-19.170000076293945z"></path></g><g opacity="1" transform="matrix(1,0,0,1,526.156005859375,41.23500061035156)"><path fill="rgb(31,116,240)" fill-opacity="1" d=" M11.76200008392334,-19.170000076293945 C11.76200008392334,-19.170000076293945 -11.76200008392334,19.170000076293945 -11.76200008392334,19.170000076293945 C-11.76200008392334,19.170000076293945 11.76200008392334,8.659000396728516 11.76200008392334,8.659000396728516 C11.76200008392334,8.659000396728516 11.76200008392334,-19.170000076293945 11.76200008392334,-19.170000076293945z"></path></g><g opacity="1" transform="matrix(1,0,0,1,549.6859741210938,81.06500244140625)"><path fill="rgb(46,133,237)" fill-opacity="1" d=" M-11.767999649047852,-2.628000020980835 C-11.767999649047852,-2.628000020980835 -11.767999649047852,16.281999588012695 -11.767999649047852,16.281999588012695 C-11.767999649047852,16.281999588012695 11.767999649047852,-16.281999588012695 11.767999649047852,-16.281999588012695 C11.767999649047852,-16.281999588012695 -11.767999649047852,-2.628000020980835 -11.767999649047852,-2.628000020980835z"></path></g><g opacity="1" transform="matrix(1,0,0,1,526.156005859375,81.06500244140625)"><path fill="rgb(31,116,240)" fill-opacity="1" d=" M11.76200008392334,16.281999588012695 C11.76200008392334,16.281999588012695 11.76200008392334,-2.63100004196167 11.76200008392334,-2.63100004196167 C11.76200008392334,-2.63100004196167 -11.76200008392334,-16.281999588012695 -11.76200008392334,-16.281999588012695 C-11.76200008392334,-16.281999588012695 11.76200008392334,16.281999588012695 11.76200008392334,16.281999588012695z"></path></g><g opacity="1" transform="matrix(1,0,0,1,549.677978515625,61.98099899291992)"><path fill="rgb(31,116,240)" fill-opacity="1" d=" M-11.760000228881836,12.081000328063965 C-11.760000228881836,12.081000328063965 11.760000228881836,-1.5770000219345093 11.760000228881836,-1.5770000219345093 C11.760000228881836,-1.5770000219345093 -11.760000228881836,-12.081000328063965 -11.760000228881836,-12.081000328063965 C-11.760000228881836,-12.081000328063965 -11.760000228881836,12.081000328063965 -11.760000228881836,12.081000328063965 C-11.760000228881836,12.081000328063965 -11.760000228881836,12.081000328063965 -11.760000228881836,12.081000328063965z"></path></g><g opacity="1" transform="matrix(1,0,0,1,526.155029296875,61.98099899291992)"><path fill="rgb(31,116,240)" fill-opacity="1" d=" M-11.76200008392334,-1.5770000219345093 C-11.76200008392334,-1.5770000219345093 11.76200008392334,12.081000328063965 11.76200008392334,12.081000328063965 C11.76200008392334,12.081000328063965 11.76200008392334,-12.081000328063965 11.76200008392334,-12.081000328063965 C11.76200008392334,-12.081000328063965 -11.76200008392334,-1.5770000219345093 -11.76200008392334,-1.5770000219345093z"></path></g></g></g><g transform="matrix(1,0,0,1,0,30)" opacity="1" style="display: block;"><g opacity="1" transform="matrix(1,0,0,1,1005.3079833984375,402.2619934082031)"><path fill="url(#__lottie_element_18)" fill-opacity="1" d=" M50.198001861572266,0 C50.198001861572266,27.724000930786133 27.724000930786133,50.198001861572266 0,50.198001861572266 C-27.724000930786133,50.198001861572266 -50.198001861572266,27.724000930786133 -50.198001861572266,0 C-50.198001861572266,-27.724000930786133 -27.724000930786133,-50.198001861572266 0,-50.198001861572266 C27.724000930786133,-50.198001861572266 50.198001861572266,-27.724000930786133 50.198001861572266,0z"></path></g><g opacity="1" transform="matrix(1,0,0,1,0,0)"><g opacity="1" transform="matrix(1,0,0,1,1020.7960205078125,402.2619934082031)"><path fill="rgb(78,82,154)" fill-opacity="1" d=" M20.135000228881836,0.004000000189989805 C20.135000228881836,0.004000000189989805 -0.0729999989271164,-20.14299964904785 -0.0729999989271164,-20.14299964904785 C-0.0729999989271164,-20.14299964904785 -0.0729999989271164,-5.392000198364258 -0.0729999989271164,-5.392000198364258 C-0.0729999989271164,-5.392000198364258 -20.135000228881836,9.376999855041504 -20.135000228881836,9.376999855041504 C-20.135000228881836,9.376999855041504 -0.0729999989271164,9.394000053405762 -0.0729999989271164,9.394000053405762 C-0.0729999989271164,9.394000053405762 -0.0729999989271164,20.14299964904785 -0.0729999989271164,20.14299964904785 C-0.0729999989271164,20.14299964904785 20.135000228881836,0.004000000189989805 20.135000228881836,0.004000000189989805z"></path></g><g opacity="1" transform="matrix(1,0,0,1,989.8209838867188,402.25799560546875)"><path fill="rgb(140,141,252)" fill-opacity="1" d=" M-20.135000228881836,0 C-20.135000228881836,0 0.0729999989271164,20.138999938964844 0.0729999989271164,20.138999938964844 C0.0729999989271164,20.138999938964844 0.0729999989271164,5.506999969482422 0.0729999989271164,5.506999969482422 C0.0729999989271164,5.506999969482422 20.135000228881836,-9.380999565124512 20.135000228881836,-9.380999565124512 C20.135000228881836,-9.380999565124512 0.0729999989271164,-9.39799976348877 0.0729999989271164,-9.39799976348877 C0.0729999989271164,-9.39799976348877 0.0729999989271164,-20.138999938964844 0.0729999989271164,-20.138999938964844 C0.0729999989271164,-20.138999938964844 -20.135000228881836,0 -20.135000228881836,0z"></path></g></g></g><g transform="matrix(1,0,0,1,0,30)" opacity="1" style="display: block;"><g opacity="1" transform="matrix(1,0,0,1,75.11900329589844,402.2619934082031)"><path fill="url(#__lottie_element_14)" fill-opacity="1" d=" M-0.019999999552965164,-50.198001861572266 C-0.019999999552965164,-50.198001861572266 -0.019999999552965164,-50.198001861572266 -0.019999999552965164,-50.198001861572266 C27.716999053955078,-50.198001861572266 50.198001861572266,-27.72100067138672 50.198001861572266,0.009999999776482582 C50.198001861572266,0.009999999776482582 50.198001861572266,0.009999999776482582 50.198001861572266,0.009999999776482582 C50.198001861572266,27.740999221801758 27.716999053955078,50.198001861572266 0,50.198001861572266 C0,50.198001861572266 0,50.198001861572266 0,50.198001861572266 C-27.73699951171875,50.198001861572266 -50.198001861572266,27.72100067138672 -50.198001861572266,0.009999999776482582 C-50.198001861572266,0.009999999776482582 -50.198001861572266,0.009999999776482582 -50.198001861572266,0.009999999776482582 C-50.21799850463867,-27.72100067138672 -27.73699951171875,-50.198001861572266 -0.019999999552965164,-50.198001861572266z"></path></g><g opacity="1" transform="matrix(1,0,0,1,75.11900329589844,402.2619934082031)"><path fill="rgb(130,88,220)" fill-opacity="1" d=" M30.510000228881836,-3.1549999713897705 C30.510000228881836,-3.1549999713897705 16.733999252319336,-11.189000129699707 16.733999252319336,-11.189000129699707 C15.538999557495117,-11.875 14.01099967956543,-11.875 12.659000396728516,-11.189000129699707 C12.659000396728516,-11.189000129699707 3.134999990463257,-5.545000076293945 3.134999990463257,-5.545000076293945 C3.134999990463257,-5.545000076293945 -3.3310000896453857,-1.9600000381469727 -3.3310000896453857,-1.9600000381469727 C-3.3310000896453857,-1.9600000381469727 -12.678000450134277,3.6640000343322754 -12.678000450134277,3.6640000343322754 C-13.873000144958496,4.349999904632568 -15.402000427246094,4.349999904632568 -16.753999710083008,3.6640000343322754 C-16.753999710083008,3.6640000343322754 -24.062999725341797,-0.7839999794960022 -24.062999725341797,-0.7839999794960022 C-25.257999420166016,-1.4700000286102295 -26.10099983215332,-2.8420000076293945 -26.10099983215332,-4.369999885559082 C-26.10099983215332,-4.369999885559082 -26.10099983215332,-12.913000106811523 -26.10099983215332,-12.913000106811523 C-26.10099983215332,-14.28499984741211 -25.415000915527344,-15.63700008392334 -24.062999725341797,-16.499000549316406 C-24.062999725341797,-16.499000549316406 -16.753999710083008,-20.770999908447266 -16.753999710083008,-20.770999908447266 C-15.559000015258789,-21.457000732421875 -14.029999732971191,-21.457000732421875 -12.678000450134277,-20.770999908447266 C-12.678000450134277,-20.770999908447266 -5.36899995803833,-16.322999954223633 -5.36899995803833,-16.322999954223633 C-4.173999786376953,-15.63700008392334 -3.3310000896453857,-14.265000343322754 -3.3310000896453857,-12.737000465393066 C-3.3310000896453857,-12.737000465393066 -3.3310000896453857,-7.093999862670898 -3.3310000896453857,-7.093999862670898 C-3.3310000896453857,-7.093999862670898 3.134999990463257,-10.855999946594238 3.134999990463257,-10.855999946594238 C3.134999990463257,-10.855999946594238 3.134999990463257,-16.6560001373291 3.134999990463257,-16.6560001373291 C3.134999990463257,-18.027999877929688 2.4489998817443848,-19.3799991607666 1.097000002861023,-20.242000579833984 C1.097000002861023,-20.242000579833984 -12.501999855041504,-28.275999069213867 -12.501999855041504,-28.275999069213867 C-13.696999549865723,-28.961999893188477 -15.22599983215332,-28.961999893188477 -16.577999114990234,-28.275999069213867 C-16.577999114990234,-28.275999069213867 -30.510000228881836,-20.06599998474121 -30.510000228881836,-20.06599998474121 C-31.86199951171875,-19.3799991607666 -32.54800033569336,-18.007999420166016 -32.54800033569336,-16.6560001373291 C-32.54800033569336,-16.6560001373291 -32.54800033569336,-0.6069999933242798 -32.54800033569336,-0.6069999933242798 C-32.54800033569336,0.7649999856948853 -31.86199951171875,2.115999937057495 -30.510000228881836,2.9779999256134033 C-30.510000228881836,2.9779999256134033 -16.733999252319336,11.012999534606934 -16.733999252319336,11.012999534606934 C-15.538999557495117,11.699000358581543 -14.01099967956543,11.699000358581543 -12.659000396728516,11.012999534606934 C-12.659000396728516,11.012999534606934 -3.312000036239624,5.545000076293945 -3.312000036239624,5.545000076293945 C-3.312000036239624,5.545000076293945 3.1549999713897705,1.7829999923706055 3.1549999713897705,1.7829999923706055 C3.1549999713897705,1.7829999923706055 12.501999855041504,-3.684000015258789 12.501999855041504,-3.684000015258789 C13.696999549865723,-4.369999885559082 15.22599983215332,-4.369999885559082 16.577999114990234,-3.684000015258789 C16.577999114990234,-3.684000015258789 23.886999130249023,0.5879999995231628 23.886999130249023,0.5879999995231628 C25.082000732421875,1.2740000486373901 25.924999237060547,2.6459999084472656 25.924999237060547,4.173999786376953 C25.924999237060547,4.173999786376953 25.924999237060547,12.717000007629395 25.924999237060547,12.717000007629395 C25.924999237060547,14.08899974822998 25.23900032043457,15.440999984741211 23.886999130249023,16.30299949645996 C23.886999130249023,16.30299949645996 16.753999710083008,20.575000762939453 16.753999710083008,20.575000762939453 C15.559000015258789,21.26099967956543 14.029999732971191,21.26099967956543 12.678000450134277,20.575000762939453 C12.678000450134277,20.575000762939453 5.349999904632568,16.30299949645996 5.349999904632568,16.30299949645996 C4.15500020980835,15.616999626159668 3.312000036239624,14.244999885559082 3.312000036239624,12.717000007629395 C3.312000036239624,12.717000007629395 3.312000036239624,7.25 3.312000036239624,7.25 C3.312000036239624,7.25 -3.1549999713897705,11.012999534606934 -3.1549999713897705,11.012999534606934 C-3.1549999713897705,11.012999534606934 -3.1549999713897705,16.6560001373291 -3.1549999713897705,16.6560001373291 C-3.1549999713897705,18.027999877929688 -2.4690001010894775,19.3799991607666 -1.1169999837875366,20.242000579833984 C-1.1169999837875366,20.242000579833984 12.659000396728516,28.275999069213867 12.659000396728516,28.275999069213867 C13.854000091552734,28.961999893188477 15.381999969482422,28.961999893188477 16.733999252319336,28.275999069213867 C16.733999252319336,28.275999069213867 30.510000228881836,20.242000579833984 30.510000228881836,20.242000579833984 C31.704999923706055,19.555999755859375 32.54800033569336,18.18400001525879 32.54800033569336,16.6560001373291 C32.54800033569336,16.6560001373291 32.54800033569336,0.4309999942779541 32.54800033569336,0.4309999942779541 C32.54800033569336,-0.9409999847412109 31.86199951171875,-2.2929999828338623 30.510000228881836,-3.1549999713897705z"></path></g></g><g transform="matrix(1,0,0,1,0,30)" opacity="1" style="display: block;"><g opacity="1" transform="matrix(1,0,0,1,229.6719970703125,155.1060028076172)"><path fill="url(#__lottie_element_10)" fill-opacity="1" d=" M50.198001861572266,0 C50.198001861572266,27.724000930786133 27.724000930786133,50.198001861572266 0,50.198001861572266 C-27.724000930786133,50.198001861572266 -50.198001861572266,27.724000930786133 -50.198001861572266,0 C-50.198001861572266,-27.724000930786133 -27.724000930786133,-50.198001861572266 0,-50.198001861572266 C27.724000930786133,-50.198001861572266 50.198001861572266,-27.724000930786133 50.198001861572266,0z"></path></g><g opacity="1" transform="matrix(1,0,0,1,0,0)"><g opacity="1" transform="matrix(1,0,0,1,229.6719970703125,139.26499938964844)"><path fill="rgb(255,255,255)" fill-opacity="1" d=" M-6.019999980926514,0 C-6.019999980926514,0 0,3.484999895095825 0,3.484999895095825 C0,3.484999895095825 6.019999980926514,0 6.019999980926514,0 C6.019999980926514,0 0,-3.484999895095825 0,-3.484999895095825 C0,-3.484999895095825 -6.019999980926514,0 -6.019999980926514,0z"></path></g><g opacity="1" transform="matrix(1,0,0,1,208.28599548339844,142.90899658203125)"><path fill="rgb(255,255,255)" fill-opacity="1" d=" M-0.15800000727176666,-0.15800000727176666 C-0.15800000727176666,-0.15800000727176666 6.177999973297119,-3.6429998874664307 6.177999973297119,-3.6429998874664307 C6.177999973297119,-3.6429998874664307 0.15800000727176666,-7.127999782562256 0.15800000727176666,-7.127999782562256 C0.15800000727176666,-7.127999782562256 -6.177999973297119,-3.6429998874664307 -6.177999973297119,-3.6429998874664307 C-6.177999973297119,-3.6429998874664307 -6.177999973297119,3.6429998874664307 -6.177999973297119,3.6429998874664307 C-6.177999973297119,3.6429998874664307 -0.15800000727176666,7.127999782562256 -0.15800000727176666,7.127999782562256 C-0.15800000727176666,7.127999782562256 -0.15800000727176666,-0.15800000727176666 -0.15800000727176666,-0.15800000727176666z"></path></g><g opacity="1" transform="matrix(1,0,0,1,215.88999938964844,163.02699279785156)"><path fill="rgb(255,255,255)" fill-opacity="1" d=" M3.009999990463257,-1.9010000228881836 C3.009999990463257,-1.9010000228881836 -3.009999990463257,-5.386000156402588 -3.009999990463257,-5.386000156402588 C-3.009999990463257,-5.386000156402588 -3.009999990463257,1.9010000228881836 -3.009999990463257,1.9010000228881836 C-3.009999990463257,1.9010000228881836 3.009999990463257,5.386000156402588 3.009999990463257,5.386000156402588 C3.009999990463257,5.386000156402588 3.009999990463257,-1.9010000228881836 3.009999990463257,-1.9010000228881836z"></path></g><g opacity="1" transform="matrix(1,0,0,1,250.8990020751953,142.90899658203125)"><path fill="rgb(255,255,255)" fill-opacity="1" d=" M0,-0.15800000727176666 C0,-0.15800000727176666 0,7.127999782562256 0,7.127999782562256 C0,7.127999782562256 6.019999980926514,3.6429998874664307 6.019999980926514,3.6429998874664307 C6.019999980926514,3.6429998874664307 6.019999980926514,-3.6429998874664307 6.019999980926514,-3.6429998874664307 C6.019999980926514,-3.6429998874664307 0,-7.127999782562256 0,-7.127999782562256 C0,-7.127999782562256 -6.019999980926514,-3.6429998874664307 -6.019999980926514,-3.6429998874664307 C-6.019999980926514,-3.6429998874664307 0,-0.15800000727176666 0,-0.15800000727176666z"></path></g><g opacity="1" transform="matrix(1,0,0,1,229.6719970703125,130.0780029296875)"><path fill="rgb(255,255,255)" fill-opacity="1" d=" M0,0.6340000033378601 C0,0.6340000033378601 10.772000312805176,6.6529998779296875 10.772000312805176,6.6529998779296875 C10.772000312805176,6.6529998779296875 16.79199981689453,3.1679999828338623 16.79199981689453,3.1679999828338623 C16.79199981689453,3.1679999828338623 0,-6.6529998779296875 0,-6.6529998779296875 C0,-6.6529998779296875 -16.79199981689453,3.1679999828338623 -16.79199981689453,3.1679999828338623 C-16.79199981689453,3.1679999828338623 -10.772000312805176,6.6529998779296875 -10.772000312805176,6.6529998779296875 C-10.772000312805176,6.6529998779296875 0,0.6340000033378601 0,0.6340000033378601z"></path></g><g opacity="1" transform="matrix(1,0,0,1,229.6719970703125,181.4029998779297)"><path fill="rgb(255,255,255)" fill-opacity="1" d=" M-6.019999980926514,-5.386000156402588 C-6.019999980926514,-5.386000156402588 -6.019999980926514,1.9010000228881836 -6.019999980926514,1.9010000228881836 C-6.019999980926514,1.9010000228881836 0,5.386000156402588 0,5.386000156402588 C0,5.386000156402588 6.019999980926514,1.9010000228881836 6.019999980926514,1.9010000228881836 C6.019999980926514,1.9010000228881836 6.019999980926514,-5.386000156402588 6.019999980926514,-5.386000156402588 C6.019999980926514,-5.386000156402588 0,-1.9010000228881836 0,-1.9010000228881836 C0,-1.9010000228881836 -6.019999980926514,-5.386000156402588 -6.019999980926514,-5.386000156402588z"></path></g><g opacity="1" transform="matrix(1,0,0,1,248.83900451660156,166.19500732421875)"><path fill="rgb(255,255,255)" fill-opacity="1" d=" M2.059000015258789,-11.08899974822998 C2.059000015258789,-11.08899974822998 2.059000015258789,1.2669999599456787 2.059000015258789,1.2669999599456787 C2.059000015258789,1.2669999599456787 -8.395999908447266,7.2870001792907715 -8.395999908447266,7.2870001792907715 C-8.395999908447266,7.2870001792907715 -8.395999908447266,14.574000358581543 -8.395999908447266,14.574000358581543 C-8.395999908447266,14.574000358581543 8.395999908447266,4.751999855041504 8.395999908447266,4.751999855041504 C8.395999908447266,4.751999855041504 8.395999908447266,-14.574000358581543 8.395999908447266,-14.574000358581543 C8.395999908447266,-14.574000358581543 2.059000015258789,-11.08899974822998 2.059000015258789,-11.08899974822998z"></path></g><g opacity="1" transform="matrix(1,0,0,1,210.8209991455078,166.19500732421875)"><path fill="rgb(255,255,255)" fill-opacity="1" d=" M-2.375999927520752,-11.08899974822998 C-2.375999927520752,-11.08899974822998 -8.395999908447266,-14.574000358581543 -8.395999908447266,-14.574000358581543 C-8.395999908447266,-14.574000358581543 -8.395999908447266,4.751999855041504 -8.395999908447266,4.751999855041504 C-8.395999908447266,4.751999855041504 8.395999908447266,14.574000358581543 8.395999908447266,14.574000358581543 C8.395999908447266,14.574000358581543 8.395999908447266,7.2870001792907715 8.395999908447266,7.2870001792907715 C8.395999908447266,7.2870001792907715 -2.375999927520752,1.2669999599456787 -2.375999927520752,1.2669999599456787 C-2.375999927520752,1.2669999599456787 -2.375999927520752,-11.08899974822998 -2.375999927520752,-11.08899974822998z"></path></g><g opacity="1" transform="matrix(1,0,0,1,243.4530029296875,163.02699279785156)"><path fill="rgb(255,255,255)" fill-opacity="1" d=" M3.009999990463257,1.9010000228881836 C3.009999990463257,1.9010000228881836 3.009999990463257,-5.386000156402588 3.009999990463257,-5.386000156402588 C3.009999990463257,-5.386000156402588 -3.009999990463257,-1.9010000228881836 -3.009999990463257,-1.9010000228881836 C-3.009999990463257,-1.9010000228881836 -3.009999990463257,5.386000156402588 -3.009999990463257,5.386000156402588 C-3.009999990463257,5.386000156402588 3.009999990463257,1.9010000228881836 3.009999990463257,1.9010000228881836z"></path></g><g opacity="1" transform="matrix(1,0,0,1,229.6719970703125,158.11599731445312)"><path fill="rgb(255,255,255)" fill-opacity="1" d=" M16.79199981689453,-12.831000328063965 C16.79199981689453,-12.831000328063965 10.772000312805176,-16.31599998474121 10.772000312805176,-16.31599998474121 C10.772000312805176,-16.31599998474121 0,-10.29699993133545 0,-10.29699993133545 C0,-10.29699993133545 -10.772000312805176,-16.31599998474121 -10.772000312805176,-16.31599998474121 C-10.772000312805176,-16.31599998474121 -16.79199981689453,-12.831000328063965 -16.79199981689453,-12.831000328063965 C-16.79199981689453,-12.831000328063965 -16.79199981689453,-5.544000148773193 -16.79199981689453,-5.544000148773193 C-16.79199981689453,-5.544000148773193 -6.019999980926514,0.4749999940395355 -6.019999980926514,0.4749999940395355 C-6.019999980926514,0.4749999940395355 -6.019999980926514,12.831000328063965 -6.019999980926514,12.831000328063965 C-6.019999980926514,12.831000328063965 0,16.31599998474121 0,16.31599998474121 C0,16.31599998474121 6.019999980926514,12.831000328063965 6.019999980926514,12.831000328063965 C6.019999980926514,12.831000328063965 6.019999980926514,0.4749999940395355 6.019999980926514,0.4749999940395355 C6.019999980926514,0.4749999940395355 16.79199981689453,-5.544000148773193 16.79199981689453,-5.544000148773193 C16.79199981689453,-5.544000148773193 16.79199981689453,-12.831000328063965 16.79199981689453,-12.831000328063965z"></path></g></g></g><g transform="matrix(1,0,0,1,0,30)" opacity="1" style="display: block;"><g opacity="1" transform="matrix(1,0,0,1,846.176025390625,155.1060028076172)"><path fill="url(#__lottie_element_6)" fill-opacity="1" d=" M50.198001861572266,0 C50.198001861572266,27.724000930786133 27.724000930786133,50.198001861572266 0,50.198001861572266 C-27.724000930786133,50.198001861572266 -50.198001861572266,27.724000930786133 -50.198001861572266,0 C-50.198001861572266,-27.724000930786133 -27.724000930786133,-50.198001861572266 0,-50.198001861572266 C27.724000930786133,-50.198001861572266 50.198001861572266,-27.724000930786133 50.198001861572266,0z"></path></g><g opacity="1" transform="matrix(1,0,0,1,0,0)"><g opacity="1" transform="matrix(1,0,0,1,846.1729736328125,155.10400390625)"><path fill="rgb(33,49,71)" fill-opacity="1" d=" M-25.60300064086914,-12.253999710083008 C-25.60300064086914,-12.253999710083008 -25.60300064086914,12.253999710083008 -25.60300064086914,12.253999710083008 C-25.60300064086914,13.819000244140625 -24.766000747680664,15.265000343322754 -23.41200065612793,16.045000076293945 C-23.41200065612793,16.045000076293945 -2.187999963760376,28.301000595092773 -2.187999963760376,28.301000595092773 C-0.8339999914169312,29.08099937438965 0.8339999914169312,29.08099937438965 2.187999963760376,28.301000595092773 C2.187999963760376,28.301000595092773 23.41200065612793,16.045000076293945 23.41200065612793,16.045000076293945 C24.766000747680664,15.265000343322754 25.60300064086914,13.819000244140625 25.60300064086914,12.253999710083008 C25.60300064086914,12.253999710083008 25.60300064086914,-12.253999710083008 25.60300064086914,-12.253999710083008 C25.60300064086914,-13.819000244140625 24.766000747680664,-15.265000343322754 23.41200065612793,-16.045000076293945 C23.41200065612793,-16.045000076293945 2.187999963760376,-28.301000595092773 2.187999963760376,-28.301000595092773 C0.8339999914169312,-29.08099937438965 -0.8339999914169312,-29.08099937438965 -2.187999963760376,-28.301000595092773 C-2.187999963760376,-28.301000595092773 -23.41699981689453,-16.045000076293945 -23.41699981689453,-16.045000076293945 C-24.770999908447266,-15.265000343322754 -25.60300064086914,-13.819000244140625 -25.60300064086914,-12.253999710083008 C-25.60300064086914,-12.253999710083008 -25.60300064086914,-12.253999710083008 -25.60300064086914,-12.253999710083008z"></path></g><g opacity="1" transform="matrix(1,0,0,1,0,0)"><g opacity="1" transform="matrix(1,0,0,1,853.3599853515625,171.3350067138672)"><path fill="rgb(18,170,255)" fill-opacity="1" d=" M-2.556999921798706,-11.47700023651123 C-2.556999921798706,-11.47700023651123 -5.584000110626221,-3.1760001182556152 -5.584000110626221,-3.1760001182556152 C-5.665999889373779,-2.944999933242798 -5.665999889373779,-2.694000005722046 -5.584000110626221,-2.4630000591278076 C-5.584000110626221,-2.4630000591278076 -0.37700000405311584,11.819000244140625 -0.37700000405311584,11.819000244140625 C-0.37700000405311584,11.819000244140625 5.645999908447266,8.340999603271484 5.645999908447266,8.340999603271484 C5.645999908447266,8.340999603271484 -1.5829999446868896,-11.47700023651123 -1.5829999446868896,-11.47700023651123 C-1.746999979019165,-11.932999610900879 -2.3940000534057617,-11.932999610900879 -2.558000087738037,-11.47700023651123 C-2.558000087738037,-11.47700023651123 -2.556999921798706,-11.47700023651123 -2.556999921798706,-11.47700023651123z"></path></g><g opacity="1" transform="matrix(1,0,0,1,860.1170043945312,161.92599487304688)"><path fill="rgb(18,170,255)" fill-opacity="1" d=" M-3.244999885559082,-16.027999877929688 C-3.4089999198913574,-16.483999252319336 -4.054999828338623,-16.483999252319336 -4.218999862670898,-16.027999877929688 C-4.218999862670898,-16.027999877929688 -7.245999813079834,-7.7270002365112305 -7.245999813079834,-7.7270002365112305 C-7.328000068664551,-7.495999813079834 -7.328000068664551,-7.244999885559082 -7.245999813079834,-7.013999938964844 C-7.245999813079834,-7.013999938964844 1.284999966621399,16.3700008392334 1.284999966621399,16.3700008392334 C1.284999966621399,16.3700008392334 7.308000087738037,12.892000198364258 7.308000087738037,12.892000198364258 C7.308000087738037,12.892000198364258 -3.244999885559082,-16.027999877929688 -3.244999885559082,-16.027999877929688 C-3.244999885559082,-16.027999877929688 -3.244999885559082,-16.027999877929688 -3.244999885559082,-16.027999877929688z"></path></g></g><g opacity="1" transform="matrix(1,0,0,1,846.176025390625,155.1060028076172)"><path fill="rgb(157,204,237)" fill-opacity="1" d=" M-0.004999999888241291,-27.385000228881836 C0.14399999380111694,-27.385000228881836 0.2930000126361847,-27.3439998626709 0.4259999990463257,-27.27199935913086 C0.4259999990463257,-27.27199935913086 23.393999099731445,-14.010000228881836 23.393999099731445,-14.010000228881836 C23.660999298095703,-13.855999946594238 23.825000762939453,-13.569000244140625 23.825000762939453,-13.265999794006348 C23.825000762939453,-13.265999794006348 23.825000762939453,13.251999855041504 23.825000762939453,13.251999855041504 C23.825000762939453,13.5600004196167 23.660999298095703,13.842000007629395 23.393999099731445,13.996000289916992 C23.393999099731445,13.996000289916992 0.4259999990463257,27.257999420166016 0.4259999990463257,27.257999420166016 C0.2980000078678131,27.334999084472656 0.14399999380111694,27.371000289916992 -0.004999999888241291,27.371000289916992 C-0.15399999916553497,27.371000289916992 -0.30300000309944153,27.329999923706055 -0.4359999895095825,27.257999420166016 C-0.4359999895095825,27.257999420166016 -23.40399932861328,14.005999565124512 -23.40399932861328,14.005999565124512 C-23.67099952697754,13.85200023651123 -23.834999084472656,13.5649995803833 -23.834999084472656,13.26200008392334 C-23.834999084472656,13.26200008392334 -23.834999084472656,-13.26099967956543 -23.834999084472656,-13.26099967956543 C-23.834999084472656,-13.569000244140625 -23.67099952697754,-13.85099983215332 -23.40399932861328,-14.005000114440918 C-23.40399932861328,-14.005000114440918 -0.4359999895095825,-27.267000198364258 -0.4359999895095825,-27.267000198364258 C-0.3019999861717224,-27.3439998626709 -0.15399999916553497,-27.385000228881836 -0.004999999888241291,-27.385000228881836 M-0.004999999888241291,-31.257999420166016 C-0.8209999799728394,-31.257999420166016 -1.6419999599456787,-31.04800033569336 -2.375,-30.621999740600586 C-2.375,-30.621999740600586 -25.33799934387207,-17.365999221801758 -25.33799934387207,-17.365999221801758 C-26.80500030517578,-16.520000457763672 -27.70800018310547,-14.954999923706055 -27.70800018310547,-13.26200008392334 C-27.70800018310547,-13.26200008392334 -27.70800018310547,13.256999969482422 -27.70800018310547,13.256999969482422 C-27.70800018310547,14.949999809265137 -26.80500030517578,16.514999389648438 -25.33799934387207,17.361000061035156 C-25.33799934387207,17.361000061035156 -2.369999885559082,30.621999740600586 -2.369999885559082,30.621999740600586 C-1.6360000371932983,31.042999267578125 -0.8209999799728394,31.257999420166016 0,31.257999420166016 C0.8209999799728394,31.257999420166016 1.6369999647140503,31.04800033569336 2.369999885559082,30.621999740600586 C2.369999885559082,30.621999740600586 25.33799934387207,17.361000061035156 25.33799934387207,17.361000061035156 C26.80500030517578,16.514999389648438 27.70800018310547,14.949999809265137 27.70800018310547,13.256999969482422 C27.70800018310547,13.256999969482422 27.70800018310547,-13.26200008392334 27.70800018310547,-13.26200008392334 C27.70800018310547,-14.954999923706055 26.80500030517578,-16.520000457763672 25.33799934387207,-17.365999221801758 C25.33799934387207,-17.365999221801758 2.365000009536743,-30.621999740600586 2.365000009536743,-30.621999740600586 C1.63100004196167,-31.04800033569336 0.8109999895095825,-31.257999420166016 -0.004999999888241291,-31.257999420166016 C-0.004999999888241291,-31.257999420166016 -0.004999999888241291,-31.257999420166016 -0.004999999888241291,-31.257999420166016 C-0.004999999888241291,-31.257999420166016 -0.004999999888241291,-31.257999420166016 -0.004999999888241291,-31.257999420166016z"></path></g><g opacity="1" transform="matrix(1,0,0,1,834.1630249023438,176.1230010986328)"><path fill="rgb(33,49,71)" fill-opacity="1" d=" M-3.183000087738037,2.203000068664551 C-3.183000087738037,2.203000068664551 -1.0700000524520874,-3.5829999446868896 -1.0700000524520874,-3.5829999446868896 C-1.0700000524520874,-3.5829999446868896 3.183000087738037,-0.04899999871850014 3.183000087738037,-0.04899999871850014 C3.183000087738037,-0.04899999871850014 -0.7929999828338623,3.5829999446868896 -0.7929999828338623,3.5829999446868896 C-0.7929999828338623,3.5829999446868896 -3.183000087738037,2.203000068664551 -3.183000087738037,2.203000068664551z"></path></g><g opacity="1" transform="matrix(1,0,0,1,0,0)"><g opacity="1" transform="matrix(1,0,0,1,834.8579711914062,159.13699340820312)"><path fill="rgb(255,255,255)" fill-opacity="1" d=" M9.378999710083008,-19.190000534057617 C9.378999710083008,-19.190000534057617 3.555999994277954,-19.190000534057617 3.555999994277954,-19.190000534057617 C3.119999885559082,-19.190000534057617 2.7300000190734863,-18.917999267578125 2.5810000896453857,-18.506999969482422 C2.5810000896453857,-18.506999969482422 -9.899999618530273,15.711999893188477 -9.899999618530273,15.711999893188477 C-9.899999618530273,15.711999893188477 -3.878000020980835,19.190000534057617 -3.878000020980835,19.190000534057617 C-3.878000020980835,19.190000534057617 9.866000175476074,-18.492000579833984 9.866000175476074,-18.492000579833984 C9.994000434875488,-18.83099937438965 9.743000030517578,-19.190000534057617 9.378999710083008,-19.190000534057617 C9.378999710083008,-19.190000534057617 9.378999710083008,-19.190000534057617 9.378999710083008,-19.190000534057617z"></path></g><g opacity="1" transform="matrix(1,0,0,1,844.1599731445312,161.56399536132812)"><path fill="rgb(255,255,255)" fill-opacity="1" d=" M10.265000343322754,-21.617000579833984 C10.265000343322754,-21.617000579833984 4.441999912261963,-21.617000579833984 4.441999912261963,-21.617000579833984 C4.00600004196167,-21.617000579833984 3.615999937057495,-21.344999313354492 3.4670000076293945,-20.93400001525879 C3.4670000076293945,-20.93400001525879 -10.784000396728516,18.13800048828125 -10.784000396728516,18.13800048828125 C-10.784000396728516,18.13800048828125 -4.76200008392334,21.617000579833984 -4.76200008392334,21.617000579833984 C-4.76200008392334,21.617000579833984 10.751999855041504,-20.91900062561035 10.751999855041504,-20.91900062561035 C10.875,-21.257999420166016 10.62399959564209,-21.617000579833984 10.265000343322754,-21.617000579833984 C10.265000343322754,-21.617000579833984 10.265000343322754,-21.617000579833984 10.265000343322754,-21.617000579833984z"></path></g></g></g></g></g></svg>
