<svg width="238" height="81" viewBox="0 0 238 81" fill="none" xmlns="http://www.w3.org/2000/svg">
<path d="M8.01273 23.6746C18.6593 17.5013 29.1947 11.3758 40.0793 5.05939C38.8417 4.37524 38.0007 3.91384 37.1281 3.43652C26.3387 9.68932 15.6763 15.8785 5.125 21.9881C5.125 30.8502 5.125 39.41 5.125 48.0653C6.0294 48.479 6.90207 48.8608 8.01273 49.3699C8.01273 40.651 8.01273 32.2185 8.01273 23.6746Z" fill="white"/>
<path d="M4.95044 55.7021C5.01391 57.0545 5.06151 58.0251 5.10911 59.1706C15.8032 65.3916 26.4815 71.6126 37.128 77.8017C44.6964 73.4105 52.0744 69.1306 59.4524 64.8506C59.4524 63.7369 59.4524 62.7982 59.4524 61.4776C51.884 65.8848 44.6012 70.117 37.128 74.4605C26.3863 68.2077 15.8191 62.0504 4.95044 55.7021Z" fill="white"/>
<path d="M47.1875 9.25977C46.2514 9.83254 45.5215 10.278 44.4108 10.9622C51.9158 15.3216 59.0875 19.5061 66.3862 23.7383C66.3862 26.2839 66.3862 28.7341 66.3862 31.2003C66.3862 33.6664 66.3862 36.1166 66.3862 38.5827C66.3862 41.0488 66.3862 43.499 66.3862 45.9651C66.3862 48.4312 66.3862 50.8814 66.3862 53.3476C66.402 55.75 66.4338 58.1525 66.4496 60.9528C67.6238 60.2209 68.3695 59.7595 69.1311 59.2981C69.1311 46.7925 69.1311 34.4142 69.1311 22.004C61.7372 17.6923 54.4544 13.4601 47.1875 9.25977Z" fill="white"/>
<path d="M21.0075 31.5185C21.0075 36.6098 21.0075 41.6057 21.0075 46.8721C19.0083 45.7583 17.3582 44.8514 15.7081 43.9286C15.7081 38.6623 15.7081 33.5391 15.7081 28.2887C22.6101 24.2793 29.4962 20.2539 36.6362 16.1013C35.5731 15.4967 34.7639 15.0353 33.8595 14.5103C26.8147 18.5992 19.8493 22.6405 12.9473 26.634C12.9473 33.1095 12.9473 39.3464 12.9473 45.647C21.0234 50.1973 29.0202 54.6841 37.0487 59.2027C41.4438 56.6888 45.7595 54.2227 50.345 51.6134C50.345 54.0954 50.345 56.1478 50.345 58.1526C45.7595 60.6664 41.2693 63.1166 36.6838 65.6146C29.7659 61.5892 23.0543 57.6753 16.0413 53.6022C16.0413 54.8432 16.0413 55.8933 16.0413 56.8002C23.0067 60.8732 29.7977 64.8668 36.5569 68.8285C42.1419 65.8214 47.5683 62.9098 53.1217 59.9345C53.1217 50.4996 53.1217 41.0329 53.1217 31.4708C48.7583 28.9251 44.4585 26.4113 39.8254 23.7065C41.9039 22.4973 43.6017 21.5108 45.2518 20.5562C49.8373 23.2451 54.2482 25.8226 58.6433 28.3841C58.6433 36.578 58.6433 44.5491 58.6433 52.8544C59.7063 52.2021 60.5473 51.677 61.3089 51.1997C61.3089 42.9581 61.3089 34.8915 61.3089 26.7454C55.9142 23.5951 50.5989 20.4926 45.1725 17.3423C37.1598 22.0359 29.163 26.7295 21.0075 31.5185ZM50.3767 32.9982C50.3767 38.1372 50.3767 43.149 50.3767 48.3517C46.0927 50.8179 41.7611 53.3158 37.1439 55.9728C32.7965 53.4908 28.5125 51.0406 24.0698 48.5108C24.0698 43.34 24.0698 38.2486 24.0698 32.9027C28.2427 30.5002 32.5902 27.9864 37.0963 25.393C41.5231 27.9068 45.9341 30.4525 50.3767 32.9982Z" fill="white"/>
<path d="M46.648 34.7643C46.5052 34.462 46.1244 34.3189 45.823 34.462C45.7436 34.5098 45.6643 34.5575 45.6167 34.6371L37.0328 29.8162C37.017 29.8003 37.0011 29.8003 36.9852 29.8003C36.9694 29.8003 36.9535 29.8003 36.9535 29.8162H36.9376L28.4966 34.8439C28.322 34.6212 28.0047 34.5416 27.7508 34.6848C27.4494 34.828 27.3066 35.2098 27.4652 35.5121C27.5604 35.7031 27.735 35.8303 27.9254 35.8622L28.0523 45.7107C28.0523 45.7266 28.0682 45.7425 28.0682 45.7744C28.084 45.7903 28.084 45.8062 28.0999 45.8062L36.7155 50.6589C36.6838 50.7861 36.6838 50.9453 36.7472 51.0725C36.89 51.3907 37.2708 51.518 37.5723 51.3748C37.8738 51.2316 38.0007 50.8816 37.8738 50.5793L46.2355 45.5834C46.2514 45.5675 46.2672 45.5675 46.2831 45.5357C46.299 45.5198 46.299 45.5039 46.299 45.488L46.172 35.6394C46.2355 35.6394 46.2831 35.6235 46.3307 35.5917C46.6639 35.4485 46.7908 35.0826 46.648 34.7643ZM37.8579 46.1721L35.8587 43.4674L39.2224 43.1014L37.8579 46.1721ZM35.8111 43.4196L33.6215 40.4603L34.9702 37.3896L38.7147 37.0077L40.7139 39.7284L39.2542 43.0378L35.8111 43.4196ZM32.6695 43.5946C32.606 43.4674 32.495 43.356 32.3839 43.2923L33.5263 40.6671L35.589 43.4355L32.7171 43.7537C32.7171 43.706 32.7012 43.6424 32.6695 43.5946ZM33.5898 40.4125L31.6064 37.7237L34.9067 37.3896L33.5898 40.4125ZM35.0495 37.1827L36.2236 34.4939C36.3823 34.5575 36.5568 34.5575 36.7155 34.478C36.7472 34.462 36.779 34.4461 36.7948 34.4302L38.556 36.8327L35.0495 37.1827ZM38.7623 37.0077L42.0467 36.6736L40.7139 39.6966L38.7623 37.0077ZM40.8408 39.9352L42.4751 42.1786C42.3164 42.3059 42.2212 42.5127 42.2371 42.7196L39.4604 43.0219L40.8408 39.9352ZM42.5862 42.0991C42.5544 42.115 42.5386 42.1309 42.5068 42.1468L40.8408 39.8716L42.1895 36.8009L43.7762 40.333L43.0463 42.0831C42.9194 42.0195 42.7448 42.0354 42.5862 42.0991ZM42.3482 36.61L45.5532 35.353C45.6167 35.4485 45.696 35.528 45.7912 35.5917L43.9031 40.0784L42.3482 36.61ZM45.4739 35.1621L42.2371 36.419L40.698 34.462L45.458 35.003C45.458 35.0666 45.4739 35.1144 45.4739 35.1621ZM42.015 36.4668L38.6195 36.8168L36.8424 34.3825C36.9535 34.3029 37.0328 34.1757 37.0646 34.0643L40.4124 34.4461L42.015 36.4668ZM37.0804 33.9688C37.0963 33.8575 37.0804 33.7461 37.017 33.6347C36.8742 33.3324 36.4934 33.1892 36.1919 33.3324C35.9539 33.4438 35.827 33.6983 35.8428 33.937L33.9864 34.2393L36.9852 30.0708L40.3331 34.3189L37.0804 33.9688ZM33.9071 34.3507L35.8587 34.0325C35.8587 34.0802 35.8746 34.112 35.8904 34.1597C35.9539 34.287 36.065 34.3984 36.176 34.462L34.986 37.1827L31.6223 37.5328L33.9071 34.3507ZM31.4002 37.5169L28.5759 35.528C28.6235 35.4326 28.6394 35.3212 28.6394 35.2098L33.6215 34.4143L31.4002 37.5169ZM31.4319 37.851L33.4787 40.6194L32.3204 43.2605C32.1776 43.1969 32.019 43.1969 31.8762 43.2605L30.4482 40.2534L31.4319 37.851ZM31.7968 43.3242C31.5112 43.4833 31.4002 43.8333 31.543 44.1356C31.6858 44.4538 32.0666 44.5811 32.368 44.4379C32.3998 44.422 32.4315 44.4061 32.4474 44.3902L33.6374 46.013L28.3062 45.6471L30.4164 40.4125L31.7968 43.3242ZM32.5267 44.3106C32.6536 44.1833 32.733 43.9924 32.7171 43.8174L35.6048 43.4992L37.6516 46.2676L33.7643 45.9971L32.5267 44.3106ZM37.7627 46.4744L37.3026 50.1975C37.2232 50.1975 37.1439 50.2134 37.0646 50.2611C37.017 50.277 36.9852 50.3088 36.9535 50.3407L33.9388 46.2358L37.7627 46.4744ZM37.5088 50.2134L37.969 46.4744L40.3807 46.2199L37.604 50.2452C37.5723 50.2293 37.5406 50.2293 37.5088 50.2134ZM38.0324 46.2676L39.4446 43.0696L42.253 42.7673C42.253 42.8309 42.2688 42.8787 42.3006 42.9423C42.3482 43.0378 42.4116 43.1014 42.4751 43.1651L40.5235 45.9971L38.0324 46.2676ZM42.5544 43.2128C42.729 43.3082 42.9352 43.3242 43.1256 43.2287C43.443 43.0855 43.5699 42.7037 43.4271 42.4014C43.3636 42.2741 43.2684 42.1786 43.1574 42.115L43.8555 40.4603L46.0768 45.4084L40.6663 45.9812L42.5544 43.2128ZM43.9507 40.2057L45.8706 35.6394C45.9023 35.6553 45.9499 35.6553 45.9816 35.6712L46.1086 45.0266L43.9507 40.2057ZM45.5056 34.8121C45.4898 34.8439 45.4898 34.8757 45.4739 34.9075L40.6187 34.3666L37.366 30.2299L45.5056 34.8121ZM36.6044 30.2458L33.7008 34.3029L28.6235 35.1144C28.6235 35.0826 28.6076 35.0666 28.5918 35.0348L36.6044 30.2458ZM28.4648 35.6872L31.2891 37.6919L30.353 40.0307L28.3379 35.7985C28.3696 35.7667 28.4172 35.7349 28.4648 35.6872ZM28.2268 35.8303L30.2895 40.158L28.2427 45.2016L28.1158 35.8622C28.1634 35.8622 28.1951 35.8463 28.2268 35.8303ZM28.5918 45.8539L33.796 46.2039L36.8742 50.3884C36.8424 50.4202 36.8266 50.4361 36.8107 50.4679L28.5918 45.8539ZM37.8103 50.4043C37.7786 50.3725 37.7468 50.3407 37.6992 50.3088L40.5076 46.2039L45.7754 45.6471L37.8103 50.4043Z" fill="white"/>
<path d="M219.023 44.3424V25.1226H215.818V47.5722H233.097V44.3583H219.023V44.3424ZM201.523 25.2658C195.382 25.2658 190.4 30.2616 190.4 36.419C190.4 42.5763 195.382 47.5722 201.523 47.5722C207.663 47.5722 212.645 42.5763 212.645 36.419C212.645 30.2616 207.663 25.2658 201.523 25.2658ZM201.523 44.3424C197.159 44.3424 193.605 40.7784 193.605 36.4031C193.605 32.0277 197.159 28.4637 201.523 28.4637C205.886 28.4637 209.44 32.0277 209.44 36.4031C209.44 40.7943 205.886 44.3424 201.523 44.3424ZM182.689 34.812H176.326C176.12 34.812 175.644 34.812 175.454 34.7961C173.867 34.637 172.613 33.2846 172.613 31.6458C172.613 29.8957 174.026 28.4797 175.771 28.4797H182.816C184.45 28.5433 185.767 29.848 185.862 31.4708H189.067C189.035 30.373 188.734 29.3706 188.226 28.4797C187.147 26.6022 185.164 25.3294 182.863 25.2658C182.8 25.2658 182.752 25.2658 182.705 25.2658C182.657 25.2658 182.594 25.2658 182.546 25.2658H175.787C173.423 25.2658 171.36 26.5545 170.265 28.4797C169.726 29.4184 169.424 30.4844 169.424 31.6458C169.424 32.7914 169.726 33.8733 170.265 34.812C170.535 35.2734 170.852 35.703 171.233 36.0848C172.391 37.2781 174.01 38.0259 175.787 38.0259H182.721C184.466 38.0259 185.878 39.4419 185.878 41.1921C185.878 42.9422 184.466 44.3583 182.721 44.3583H175.803C174.121 44.3583 172.74 43.0377 172.645 41.3671H169.44C169.472 42.4649 169.773 43.4832 170.281 44.3583C171.376 46.2834 173.439 47.5722 175.803 47.5722H182.721C185.085 47.5722 187.147 46.2834 188.242 44.3583C188.782 43.4355 189.083 42.3536 189.083 41.1921C189.083 40.0306 188.782 38.9646 188.242 38.0259C187.116 36.1008 185.053 34.812 182.689 34.812ZM160.317 36.0212L160.602 35.6234L168.203 25.2658H164.22L158.603 32.9028L158.318 33.3005L158.032 32.9028L152.415 25.2658H148.433L156.033 35.6234L156.318 36.0212L158.302 38.726L164.775 47.5563H168.758L160.317 36.0212ZM155.351 37.3895L147.877 47.5563H151.86L157.35 40.0943L155.351 37.3895ZM141.594 25.3453V47.4449H144.593V25.3453H141.594ZM141.594 25.3453V47.4449H144.593V25.3453H141.594ZM141.594 25.3453V47.4449H144.593V25.3453H141.594ZM126.616 30.1184V47.5722H129.821V30.1184H126.616ZM118.492 25.2976V28.5115H138.31V25.2976H118.492ZM98.8176 44.3424V37.2304H113.113V34.0165H98.8176V30.1184H95.6125V47.5722H115.255V44.3583H98.8176V44.3424ZM95.6125 25.2976V28.5115H115.255V25.2976H95.6125ZM74.4147 32.0436V47.5563H77.6197V35.2575L74.4147 32.0436ZM88.8533 25.2817V39.6965L74.4147 25.2339V29.7684L77.6197 32.9823L88.8375 44.2469L92.0425 47.4608V25.2817H88.8533Z" fill="white"/>
<path d="M78.778 54.7157C78.778 54.9703 78.7145 55.193 78.6035 55.3999C78.3655 55.8294 77.9053 56.1317 77.3817 56.1317C77.3183 56.1317 77.2548 56.1317 77.1913 56.1158C77.1279 56.1158 77.0644 56.1317 77.0009 56.1317H74.4147V52.2973H75.1128V53.2997H77.112C77.4452 53.2519 77.6991 52.9497 77.6991 52.6155C77.6991 52.2814 77.4611 51.995 77.1596 51.9314H74.4147V51.1995H77.0168C77.5404 51.1995 78.0005 51.4859 78.2385 51.9155C78.2385 51.9155 78.2385 51.9314 78.2544 51.9314C78.3655 52.1382 78.4289 52.361 78.4289 52.6155C78.4289 52.8701 78.3655 53.1088 78.2544 53.2997C78.2544 53.2997 78.2544 53.2997 78.2544 53.3156C78.2068 53.3792 78.1751 53.4588 78.1116 53.5065C78.1909 53.5542 78.2544 53.602 78.3337 53.6656C78.4448 53.777 78.5559 53.8884 78.6352 54.0316C78.7145 54.2384 78.778 54.4611 78.778 54.7157ZM78.0799 54.7157C78.0799 54.3816 77.8419 54.0952 77.5087 54.0316H75.1287V55.3999H77.5245C77.8419 55.3362 78.0799 55.0498 78.0799 54.7157ZM83.9029 55.4158V56.1317H80.0949V51.1836H80.7931V55.4158H83.9029ZM86.9969 51.2154C88.3456 51.2154 89.4404 52.3132 89.4404 53.6656C89.4404 55.018 88.3456 56.1158 86.9969 56.1158C85.6483 56.1158 84.5535 55.018 84.5535 53.6656C84.5535 52.3132 85.6483 51.2154 86.9969 51.2154ZM85.2516 53.6656C85.2516 54.6362 86.0291 55.4158 86.9969 55.4158C87.9648 55.4158 88.7423 54.6362 88.7423 53.6656C88.7423 52.6951 87.9648 51.9155 86.9969 51.9155C86.0291 51.9155 85.2516 52.6951 85.2516 53.6656ZM94.6129 54.4293H95.3745C95.0572 55.4158 94.1369 56.1317 93.0421 56.1317C91.8045 56.1317 90.7891 55.2248 90.6145 54.0316C90.5987 53.9202 90.5828 53.7929 90.5828 53.6656C90.5828 53.5542 90.5987 53.427 90.6145 53.3156C90.7891 52.1223 91.8045 51.1995 93.0421 51.1995C94.1687 51.1995 95.1048 51.9473 95.4063 52.9815H94.6605C94.3908 52.361 93.772 51.9155 93.0421 51.9155C92.2012 51.9155 91.4872 52.5201 91.3285 53.3315C91.3127 53.4429 91.2968 53.5542 91.2968 53.6815C91.2968 53.8088 91.3127 53.9202 91.3285 54.0475C91.5031 54.843 92.2012 55.4476 93.0421 55.4476C93.7244 55.4158 94.3273 55.0021 94.6129 54.4293ZM101.071 56.1158H100.071L98.1195 54.1588L97.4055 54.8748V56.1158H96.7073V54.5884L97.4055 53.8884L97.9925 53.2997L100.071 51.2154H101.071L98.6272 53.6656L101.071 56.1158ZM97.3737 53.4111L96.7073 54.0793V51.1995H97.4055V53.3633L97.3737 53.4111ZM105.593 54.4293H106.354C106.037 55.4158 105.117 56.1317 104.022 56.1317C102.784 56.1317 101.769 55.2248 101.594 54.0316C101.578 53.9202 101.563 53.7929 101.563 53.6656C101.563 53.5542 101.578 53.427 101.594 53.3156C101.769 52.1223 102.784 51.1995 104.022 51.1995C105.148 51.1995 106.085 51.9473 106.386 52.9815H105.64C105.371 52.361 104.752 51.9155 104.022 51.9155C103.181 51.9155 102.467 52.5201 102.308 53.3315C102.292 53.4429 102.277 53.5542 102.277 53.6815C102.277 53.8088 102.292 53.9202 102.308 54.0475C102.467 54.843 103.181 55.4476 104.022 55.4476C104.704 55.4158 105.307 55.0021 105.593 54.4293ZM111.955 51.2313V56.1317H111.241V53.8565H108.369V56.1317H107.655V51.2313H108.369V53.1406H111.241V51.2313H111.955ZM114.954 52.4564L115.414 53.2997L113.859 56.1158H112.923L114.954 52.4564ZM118.365 56.1158H117.429L115.636 52.886L115.176 52.0428L115.636 51.1995L116.096 52.0428L118.365 56.1158ZM119.666 56.1158V51.1995H120.38V56.1158H119.666ZM119.666 51.1995V56.1158H120.38V51.1995H119.666ZM120.349 51.2313H119.682V56.0999H120.349V51.2313ZM125.553 51.2154V56.0999L124.839 55.3839L122.364 52.9019L121.65 52.1859V51.1836L124.823 54.3657V51.1836H125.553V51.2154ZM121.666 52.711L122.38 53.4111V56.1158H121.666V52.711ZM135.089 53.6815C135.089 53.8088 135.073 53.9202 135.057 54.0475C134.898 55.1453 134.026 56.0044 132.931 56.1317H130.678V52.2814H131.392V55.4158H132.883C133.613 55.3044 134.2 54.7475 134.343 54.0475C134.375 53.9361 134.375 53.8088 134.375 53.6815C134.375 53.5702 134.359 53.4429 134.343 53.3315C134.264 52.9019 134.01 52.536 133.677 52.2814C133.407 52.0746 133.058 51.9473 132.693 51.9314H130.662V51.2154H132.645C133.867 51.2313 134.883 52.1382 135.057 53.3315C135.073 53.4429 135.089 53.5542 135.089 53.6815ZM140.801 51.2154V51.9155H136.469V51.2154H140.801ZM137.167 55.4158H140.785V56.1317H136.453V52.2814H137.167V53.1406H140.309V53.8565H137.167V55.4158ZM144.26 54.0156L143.8 54.8589L141.785 51.1995H142.721L144.26 54.0156ZM147.211 51.1995L144.958 55.2885L144.498 56.1317L144.038 55.2885L144.498 54.4452L146.291 51.2154H147.211V51.1995ZM152.764 51.2154V51.9155H148.433V51.2154H152.764ZM149.131 55.4158H152.748V56.1317H148.417V52.2814H149.131V53.1406H152.272V53.8565H149.131V55.4158ZM157.873 55.4158V56.1317H154.065V51.1836H154.779V55.4158H157.873ZM160.967 51.2154C162.316 51.2154 163.411 52.3132 163.411 53.6656C163.411 55.018 162.316 56.1158 160.967 56.1158C159.619 56.1158 158.524 55.018 158.524 53.6656C158.524 52.3132 159.619 51.2154 160.967 51.2154ZM159.222 53.6656C159.222 54.6362 159.999 55.4158 160.967 55.4158C161.935 55.4158 162.713 54.6362 162.713 53.6656C162.713 52.6951 161.935 51.9155 160.967 51.9155C160.015 51.9155 159.222 52.6951 159.222 53.6656ZM167.457 53.8247L165.426 53.8406V56.1317H164.712V51.2313H167.409C168.091 51.2631 168.647 51.8359 168.647 52.536C168.647 53.2042 168.123 53.777 167.457 53.8247ZM167.949 52.5201C167.949 52.1859 167.679 51.9155 167.346 51.9155C167.33 51.9155 167.314 51.9155 167.298 51.9155C167.298 51.9155 167.298 51.9155 167.282 51.9155H165.41V53.1088H167.33C167.679 53.1247 167.949 52.8542 167.949 52.5201ZM174.311 51.2313V56.1317H173.597V52.9496L172.629 53.9202L172.391 54.1588L172.122 54.4293L170.63 52.9337L169.916 52.2337V51.2313L172.122 53.4429L174.311 51.2313ZM169.948 52.6951L170.662 53.4111V56.1317H169.948V52.6951ZM180.023 51.2154V51.9155H175.692V51.2154H180.023ZM176.406 55.4158H180.023V56.1317H175.692V52.2814H176.406V53.1406H179.547V53.8565H176.406V55.4158ZM185.212 51.2154V56.0999L184.498 55.3839L182.022 52.9019L181.308 52.1859V51.1836L184.482 54.3657V51.1836H185.212V51.2154ZM181.34 52.711L182.054 53.4111V56.1158H181.34V52.711ZM186.513 51.9155V51.1995H190.876V51.9155H186.513ZM188.306 56.1158V52.2655H189.02V56.1158H188.306ZM199.682 54.4293H200.444C200.126 55.4158 199.206 56.1317 198.111 56.1317C196.874 56.1317 195.858 55.2248 195.684 54.0316C195.668 53.9202 195.652 53.7929 195.652 53.6656C195.652 53.5542 195.668 53.427 195.684 53.3156C195.858 52.1223 196.874 51.1995 198.111 51.1995C199.238 51.1995 200.174 51.9473 200.475 52.9815H199.73C199.46 52.361 198.841 51.9155 198.111 51.9155C197.27 51.9155 196.556 52.5201 196.398 53.3315C196.382 53.4429 196.366 53.5542 196.366 53.6815C196.366 53.8088 196.382 53.9202 196.398 54.0475C196.556 54.843 197.27 55.4476 198.111 55.4476C198.793 55.4158 199.396 55.0021 199.682 54.4293ZM204.267 51.2154C205.616 51.2154 206.711 52.3132 206.711 53.6656C206.711 55.018 205.616 56.1158 204.267 56.1158C202.919 56.1158 201.824 55.018 201.824 53.6656C201.808 52.3132 202.919 51.2154 204.267 51.2154ZM202.522 53.6656C202.522 54.6362 203.3 55.4158 204.267 55.4158C205.235 55.4158 206.013 54.6362 206.013 53.6656C206.013 52.6951 205.235 51.9155 204.267 51.9155C203.3 51.9155 202.522 52.6951 202.522 53.6656ZM212.407 51.2313V56.1317H211.693V52.9496L210.725 53.9202L210.487 54.1588L210.217 54.4293L208.726 52.9337L208.012 52.2337V51.2313L210.217 53.4429L212.407 51.2313ZM208.044 52.6951L208.758 53.4111V56.1317H208.044V52.6951ZM216.707 53.8247L214.676 53.8406V56.1317H213.962V51.2313H216.659C217.342 51.2631 217.897 51.8359 217.897 52.536C217.913 53.2042 217.373 53.777 216.707 53.8247ZM217.199 52.5201C217.199 52.1859 216.929 51.9155 216.596 51.9155C216.58 51.9155 216.564 51.9155 216.548 51.9155C216.548 51.9155 216.548 51.9155 216.532 51.9155H214.66V53.1088H216.58C216.929 53.1247 217.199 52.8542 217.199 52.5201ZM219.373 52.4564L219.833 53.2997L218.278 56.1158H217.342L219.373 52.4564ZM222.8 56.1158H221.864L220.071 52.886L219.611 52.0428L220.071 51.1995L220.531 52.0428L222.8 56.1158ZM227.766 51.2154V56.0999L227.052 55.3839L224.577 52.9019L223.863 52.1859V51.1836L227.036 54.3657V51.1836H227.766V51.2154ZM223.879 52.711L224.593 53.4111V56.1158H223.879V52.711ZM233.097 51.1995L231.352 53.5861L231.304 53.6656L231.241 53.7611L231.225 53.777V56.1158H230.511V53.777L230.495 53.7452L230.432 53.6497L230.384 53.5702L228.639 51.1836H229.511L230.876 53.0451L232.24 51.1836H233.097V51.1995Z" fill="white"/>
</svg>
