<svg width="66" height="66" viewBox="0 0 66 66" fill="none" xmlns="http://www.w3.org/2000/svg">
<g clip-path="url(#clip0_1633_1622)">
<path d="M65.0889 39.0345C65.062 38.9988 65.0353 38.9631 65.0129 38.9228C64.6065 38.4092 64.4278 37.7347 64.5172 37.0826C64.5172 37.0647 64.5172 37.0424 64.5172 37.029C64.544 36.8324 64.5574 36.6404 64.5574 36.4438C64.5574 35.5237 64.276 34.6482 63.7936 33.9023V3.30089C63.7936 1.47848 62.3152 0 60.4929 0H3.30067C1.47838 0 0 1.47848 0 3.30089V47.3024C0 49.1248 1.47838 50.6033 3.30067 50.6033H38.1654C38.5629 50.974 39.0229 51.2822 39.541 51.4877C39.751 51.577 39.9386 51.6976 40.1172 51.8361L36.6334 58.2726C36.1332 59.1927 36.2046 60.2916 36.8031 61.1492C37.4016 62.0068 38.4155 62.44 39.4428 62.2703L42.212 61.8683L43.3911 64.4233C43.8333 65.3657 44.7533 65.9687 45.794 66.0045H45.8789C46.8838 66.0045 47.8039 65.4595 48.2952 64.5707L50.6043 60.3005L52.9179 64.5751C53.4048 65.4595 54.3248 66.0045 55.3298 66.0045H55.4146C56.4553 65.9687 57.3754 65.3657 57.822 64.4143L58.9967 61.8683L61.7614 62.2703C62.7931 62.4356 63.807 62.0023 64.41 61.1492C65.0129 60.296 65.0799 59.1927 64.5797 58.2726L61.0914 51.8361C61.2656 51.6976 61.4577 51.577 61.6631 51.4921C63.6239 50.6971 64.7985 48.6871 64.5395 46.5832C64.5395 46.5609 64.5395 46.5386 64.5395 46.5207C64.4502 45.8686 64.6244 45.1986 65.0353 44.6804C65.0621 44.6402 65.0889 44.6045 65.1112 44.5688C66.3216 42.9205 66.3216 40.6783 65.1112 39.0345H65.0889ZM61.5961 3.7565V32.0799C60.9976 31.8119 60.5287 31.3429 60.2875 30.7488C60.0731 30.2217 59.7694 29.7616 59.3987 29.3596V5.95411L61.6006 3.75203L61.5961 3.7565ZM60.0418 2.20208L57.8399 4.40417H5.95371L3.75178 2.20208H60.0374H60.0418ZM36.6736 37.02C36.6736 37.02 36.6736 37.0647 36.6736 37.0826C36.7629 37.7347 36.5888 38.4047 36.1778 38.9228C36.151 38.9586 36.1242 38.9943 36.1064 39.03C35.0255 40.4996 34.9094 42.4337 35.7535 44.0015H6.60134V39.5303L25.8783 23.2939C26.182 23.0348 26.6153 23.0393 26.9235 23.2939L38.2949 32.8705C37.1113 33.8665 36.4726 35.4165 36.6691 37.0156L36.6736 37.02ZM36.3565 28.3636L42.3817 23.2939C42.6854 23.0348 43.1186 23.0303 43.4268 23.2939L48.0361 27.1844C47.9736 27.229 47.8977 27.2603 47.8351 27.3094C47.7994 27.3362 47.7637 27.363 47.7235 27.3854C47.2099 27.7874 46.5354 27.9794 45.8833 27.8812C45.8655 27.8812 45.8431 27.8812 45.8253 27.8812C43.7484 27.6087 41.6894 28.8326 40.9122 30.7488C40.7604 31.1061 40.5326 31.4054 40.2601 31.66L36.3565 28.368V28.3636ZM44.8427 21.6188C43.7171 20.663 42.0824 20.663 40.9569 21.6188L34.6503 26.9298L28.3438 21.6233C27.2182 20.6674 25.5835 20.6674 24.458 21.6233L6.60134 36.6538V6.60179H57.1967V28.0241C56.6161 27.8633 56.0042 27.8008 55.3789 27.8722C55.3566 27.8722 55.3342 27.8722 55.3164 27.8722C54.6643 27.9705 53.9943 27.7829 53.4762 27.3764C53.4405 27.3496 53.4048 27.3228 53.369 27.305C52.5204 26.6841 51.5199 26.3803 50.5239 26.3982L44.8382 21.6054L44.8427 21.6188ZM2.20194 46.8468V3.7565L4.40387 5.95858V44.6492L2.20194 46.8512V46.8468ZM3.75624 48.4012L5.95818 46.1991H36.6915C36.6915 46.3063 36.6915 46.4135 36.6781 46.5162C36.6781 46.5341 36.6781 46.5564 36.6781 46.5743C36.6513 46.7708 36.6379 46.9629 36.6379 47.1595C36.6379 47.5838 36.7049 48.0037 36.8165 48.4012H3.75624ZM46.3568 63.5121C46.2094 63.7801 45.9727 63.7979 45.8565 63.7979C45.7538 63.7979 45.5037 63.7533 45.3786 63.4897L43.8601 60.1888C43.6591 59.7511 43.1901 59.4965 42.6988 59.5635L39.1033 60.0906C38.813 60.1397 38.6656 59.9744 38.5942 59.8762C38.5361 59.7958 38.42 59.5814 38.554 59.3178L41.5018 53.8818C42.4889 55.195 44.1191 55.9276 45.8074 55.7266C45.8297 55.7266 45.8521 55.7266 45.8699 55.7266C46.522 55.6283 47.192 55.8159 47.7101 56.2224C47.7458 56.2492 47.7816 56.276 47.8173 56.2939C48.4202 56.7361 49.0991 57.013 49.7959 57.1381L46.3478 63.521L46.3568 63.5121ZM62.6323 59.3178C62.7708 59.5814 62.6547 59.7958 62.5921 59.8762C62.5251 59.9744 62.3688 60.1352 62.074 60.0906L58.492 59.5635C58.0051 59.501 57.5317 59.7511 57.3307 60.1888L55.8121 63.4808C55.6871 63.7577 55.437 63.7935 55.3342 63.7979C55.2136 63.7979 54.9814 63.7756 54.8385 63.5165L51.8415 57.9778L52.4847 56.7852C52.7839 56.6512 53.0832 56.4993 53.3556 56.2939C53.3913 56.2671 53.4271 56.2403 53.4673 56.2179C53.9809 55.8159 54.6553 55.6239 55.3074 55.7221C55.3253 55.7221 55.3476 55.7221 55.3655 55.7221C57.0359 55.9365 58.693 55.1772 59.68 53.8729L62.6279 59.3133L62.6323 59.3178ZM63.2755 43.3136C63.2487 43.3494 63.2219 43.3851 63.204 43.4208C62.4983 44.3767 62.1812 45.5872 62.3286 46.7664C62.3286 46.7842 62.3286 46.8066 62.3376 46.8244C62.4894 47.9456 61.8686 49.0265 60.8145 49.4509C59.6443 49.9377 58.7332 50.8489 58.2463 52.0237C57.8399 53.0466 56.7412 53.6853 55.629 53.5379C55.6067 53.5379 55.5888 53.5379 55.5754 53.5379C54.3874 53.386 53.177 53.7032 52.2256 54.4089C52.1854 54.4312 52.1497 54.458 52.114 54.4804C51.2251 55.1772 49.979 55.1772 49.0902 54.4804C49.0545 54.4536 49.0232 54.4268 48.983 54.4089C48.0227 53.7032 46.8213 53.3905 45.6377 53.5334C45.6198 53.5334 45.5975 53.5334 45.5796 53.5424C44.463 53.6942 43.3777 53.0734 42.9534 52.0192C42.4665 50.8489 41.5554 49.9377 40.3807 49.4509C39.4607 49.0801 38.8443 48.16 38.8443 47.1595C38.8443 47.0478 38.8532 46.9406 38.8711 46.8334C38.8711 46.811 38.8711 46.7932 38.8711 46.7753C39.0229 45.5872 38.7058 44.3767 38.0001 43.4253C37.9778 43.3851 37.951 43.3494 37.9287 43.3136C37.2319 42.4247 37.2319 41.1785 37.9287 40.2897C37.9555 40.2539 37.9823 40.2227 38.0001 40.1825C38.7058 39.2266 39.0229 38.0161 38.8755 36.8369C38.8755 36.819 38.8755 36.7967 38.8666 36.7788C38.7148 35.6577 39.3356 34.5767 40.3897 34.1524C41.5599 33.6655 42.471 32.7543 42.9578 31.5796C43.3643 30.5567 44.4675 29.9224 45.5751 30.0654C45.5975 30.0654 45.6153 30.0654 45.6332 30.0654C46.8213 30.2172 48.0272 29.9001 48.983 29.1944C49.0232 29.172 49.0589 29.1452 49.0947 29.1229C49.9835 28.4261 51.2296 28.4261 52.1184 29.1229C52.1542 29.1497 52.1854 29.1765 52.2256 29.1944C53.1859 29.9001 54.3918 30.2172 55.571 30.0698C55.5888 30.0698 55.6112 30.0698 55.629 30.0609C56.7501 29.909 57.8309 30.5299 58.2553 31.5841C58.7421 32.7543 59.6532 33.6655 60.8279 34.1524C61.748 34.5231 62.3644 35.4433 62.3644 36.4438C62.3644 36.5555 62.3554 36.6627 62.3376 36.7699C62.3376 36.7922 62.3376 36.8101 62.3376 36.8235C62.1857 38.0116 62.5028 39.2221 63.2085 40.1735C63.2308 40.2137 63.2576 40.2495 63.28 40.2852C63.9767 41.1741 63.9767 42.4203 63.28 43.3092L63.2755 43.3136Z" fill="white"/>
<path d="M50.5953 31.9014C45.1329 31.9014 40.6978 36.3413 40.6978 41.7996C40.6978 47.2579 45.1374 51.6978 50.5953 51.6978C56.0532 51.6978 60.4928 47.2579 60.4928 41.7996C60.4928 36.3413 56.0532 31.9014 50.5953 31.9014ZM50.5953 49.5002C46.3522 49.5002 42.8952 46.0474 42.8952 41.7996C42.8952 37.5517 46.3477 34.099 50.5953 34.099C54.8428 34.099 58.2954 37.5517 58.2954 41.7996C58.2954 46.0474 54.8428 49.5002 50.5953 49.5002Z" fill="white"/>
<path d="M15.9495 8.79932C12.0057 8.79932 8.79883 12.0064 8.79883 15.9505C8.79883 19.8946 12.0057 23.1017 15.9495 23.1017C19.8934 23.1017 23.1002 19.8946 23.1002 15.9505C23.1002 12.0064 19.8934 8.79932 15.9495 8.79932ZM15.9495 20.8996C13.2206 20.8996 11.0008 18.6797 11.0008 15.9505C11.0008 13.2214 13.2206 11.0014 15.9495 11.0014C18.6785 11.0014 20.8983 13.2214 20.8983 15.9505C20.8983 18.6797 18.6785 20.8996 15.9495 20.8996Z" fill="white"/>
</g>
<defs>
<clipPath id="clip0_1633_1622">
<rect width="66" height="66" fill="white"/>
</clipPath>
</defs>
</svg>
