<svg width="55" height="56" viewBox="0 0 55 56" fill="none" xmlns="http://www.w3.org/2000/svg">
<path d="M54.8579 26.619V29.8462C54.8243 30.0532 54.7734 30.2603 54.7585 30.4701C54.5763 32.949 54.0432 35.3893 53.1755 37.7177C51.5443 42.1711 48.7828 46.1211 45.1633 49.1782C41.2162 52.5291 36.699 54.6496 31.5673 55.4119C30.8321 55.5208 30.0915 55.6217 29.3617 55.7266H25.5046C24.5412 55.5854 23.5726 55.467 22.6133 55.2977C16.8941 54.2838 11.9851 51.6833 7.92663 47.5431C3.27661 42.8005 0.649675 37.0938 0.0969331 30.4432C-0.158061 27.4477 0.0909157 24.4304 0.833483 21.5175C2.03289 16.7991 4.28949 12.6429 7.70257 9.17629C14.0082 2.76372 21.6796 0.0071857 30.6067 0.95785C36.8574 1.62345 42.2225 4.28182 46.6874 8.69895C50.8464 12.8122 53.4464 17.7726 54.4392 23.5573C54.6137 24.5685 54.7197 25.5958 54.8579 26.619ZM27.5948 25.2596C26.119 25.7302 24.7224 26.1498 23.3432 26.6217C16.3239 29.026 9.87469 32.4655 4.15803 37.2444C3.72605 37.6075 3.70456 37.8764 3.9259 38.3511C8.15292 47.4051 15.2139 52.5474 25.1088 53.7782C25.7568 53.8589 26.2465 53.7581 26.5081 53.0816C26.6235 52.7859 26.8301 52.5263 26.979 52.2413C28.7083 48.9576 29.6623 45.4454 30.0446 41.7638C30.4994 37.4099 30.2472 33.1164 28.927 28.9224C28.5473 27.7069 28.0576 26.5209 27.5948 25.2596ZM2.9774 35.8648C6.43139 32.9735 10.2072 30.4919 14.2295 28.4692C18.2115 26.4682 22.3769 24.8571 26.6677 23.6582C26.6544 23.589 26.6342 23.5215 26.6073 23.4565C26.2264 22.8312 25.8695 22.1884 25.4549 21.5874C21.3147 15.5862 15.8221 11.9395 8.3573 11.7446C8.08756 11.7512 7.83132 11.8637 7.64356 12.0579C7.20548 12.5754 6.79572 13.1162 6.416 13.6782C3.82935 17.3867 2.375 21.5175 1.95105 26.0073C1.73509 28.3062 1.84666 30.6243 2.28243 32.8918C2.46757 33.864 2.73053 34.82 2.9774 35.8648ZM28.3179 53.8481C28.9686 53.797 29.618 53.7581 30.2646 53.6921C33.2422 53.3806 36.1385 52.5291 38.8121 51.179C38.9025 51.1324 38.9826 51.068 39.0475 50.9897C39.1125 50.9114 39.1611 50.8207 39.1904 50.7231C39.7499 47.6426 40.2262 44.5499 40.2194 41.4062C40.2266 36.2124 39.4938 31.0444 38.0434 26.0583C37.775 25.1252 37.4396 24.2081 37.1122 23.2131L29.4006 24.7553C33.349 34.6506 32.9734 44.2877 28.3179 53.8481ZM9.57144 9.78011L9.67071 9.9508C12.9233 10.17 16.0788 11.1529 18.8823 12.8203C22.8749 15.1721 25.9044 18.4679 28.1515 22.4937C28.4601 23.0464 28.7298 23.1445 29.3026 22.9818C30.2955 22.7008 31.3151 22.4977 32.324 22.2907C33.6763 22.015 35.0341 21.7676 36.4146 21.5027C36.3475 21.3292 36.2925 21.1786 36.2308 21.032C34.7551 17.5561 32.8767 14.3303 30.4619 11.4192C27.7665 8.16377 24.5735 5.55248 20.6948 3.83409C20.4104 3.71545 20.0948 3.69466 19.7973 3.77485C17.4238 4.49467 15.1778 5.58367 13.1415 7.00201C11.9086 7.86801 10.7574 8.84687 9.57144 9.78011ZM23.1379 2.9439C23.3069 3.05416 23.362 3.09585 23.421 3.12946C27.8644 5.61568 31.3486 9.12118 34.154 13.3312C35.7318 15.6949 37.0608 18.2161 38.1198 20.8546C38.2177 21.098 38.2875 21.2808 38.639 21.2297C39.5567 21.0952 40.4811 21.0145 41.4028 20.9151C42.2667 20.8209 43.1307 20.7322 43.9894 20.6461C44.0042 20.5808 44.0132 20.5141 44.0163 20.4471C43.7479 16.7883 43.9102 13.1551 44.6253 9.55555C44.6304 9.47346 44.6174 9.39129 44.5873 9.31489C44.5571 9.23842 44.5106 9.16953 44.4509 9.1131C43.8284 8.57528 43.2032 8.03738 42.5432 7.55467C38.8786 4.84199 34.5521 3.16976 30.0191 2.71396C27.7258 2.47085 25.41 2.54823 23.1379 2.9439ZM41.2109 49.8263C41.4792 49.6582 41.6456 49.5681 41.7972 49.4511C42.6572 48.7788 43.5494 48.1535 44.365 47.4342C47.2856 44.8622 49.5829 41.657 51.0825 38.062C51.2261 37.7231 51.1657 37.5497 50.896 37.3009C50.2416 36.7202 49.6317 36.0908 49.0714 35.4184C47.0831 32.9322 45.9173 30.0398 45.1217 26.9915C44.7407 25.5285 44.4817 24.0333 44.1504 22.4722L38.9851 22.9939C41.8978 31.7825 42.8839 40.6396 41.2109 49.8263ZM46.0407 22.3955C46.2393 23.4336 46.3949 24.4125 46.6163 25.3874C47.3502 28.5809 48.4342 31.6292 50.4654 34.2553C50.8679 34.7837 51.3562 35.2531 51.7816 35.7236C51.8969 35.6698 51.9156 35.6672 51.9251 35.6564C53.2272 31.3962 53.3813 26.8665 52.3718 22.5273C52.3423 22.3929 52.0834 22.2355 51.9305 22.2328C50.7176 22.2212 49.5043 22.2301 48.2906 22.2597C47.5648 22.2704 46.8417 22.3391 46.0394 22.3888L46.0407 22.3955ZM51.8191 20.4539C50.6802 16.8892 48.7792 13.6165 46.2487 10.8638C45.7236 14.0294 45.5934 17.2481 45.8609 20.4458L51.8191 20.4539Z" fill="white"/>
</svg>
