<svg width="66" height="66" viewBox="0 0 66 66" fill="none" xmlns="http://www.w3.org/2000/svg">
<g clip-path="url(#clip0_1633_1627)">
<path d="M30.5383 32.1794L24.316 26.4952C30.6406 10.3499 42.7785 8.0638 47.671 7.82807C47.7867 12.4404 46.4746 24.6939 30.5428 32.1794H30.5383ZM20.0016 23.3596C21.3582 19.5745 24.654 17.8666 27.0913 17.1016C25.8504 18.7962 24.7652 20.5886 23.8445 22.4745L20.0016 23.3596ZM34.2967 36.1023L34.9327 32.1972C36.6896 31.1743 38.353 30.0089 39.9097 28.7013C39.3938 31.0408 38.0105 34.4611 34.2967 36.1023ZM32.3085 38.4018C32.4375 38.5175 32.5887 38.5975 32.7578 38.642C32.9268 38.682 33.0958 38.682 33.2648 38.642C41.4976 36.4893 42.2181 27.8473 42.2804 26.4863C50.7933 17.6086 49.8148 7.49449 49.5969 5.88886C49.5969 5.85772 49.5791 5.82659 49.5569 5.80435C49.5302 5.78211 49.4991 5.77321 49.4679 5.77321C49.2856 5.76432 49.0009 5.75098 48.6228 5.75098C46.7904 5.77766 44.9846 5.99115 43.1966 6.39145C41.4086 6.79175 39.6829 7.36995 38.015 8.12162C36.3471 8.87329 34.7726 9.79397 33.2915 10.8703C31.8104 11.9467 30.4538 13.1654 29.2263 14.5219C26.949 14.8688 19.032 16.6301 17.5643 24.5649C17.5509 24.6494 17.542 24.7339 17.5509 24.8184C17.5554 24.9029 17.5732 24.9874 17.5999 25.0675C17.6266 25.1476 17.6621 25.2276 17.7066 25.2988C17.7511 25.37 17.8045 25.4367 17.8667 25.4945C17.929 25.5523 17.9957 25.6057 18.0713 25.6457C18.1469 25.6857 18.2226 25.7213 18.3071 25.7436C18.3916 25.7658 18.4716 25.7791 18.5606 25.7791C18.6451 25.7791 18.7296 25.7703 18.8141 25.7525L22.7859 24.8362C22.4835 25.5568 22.1899 26.2995 21.9142 27.0779L22.2166 27.3536L19.4902 30.298C19.3968 30.4003 19.3256 30.5115 19.2811 30.6405C19.2322 30.7695 19.2144 30.9029 19.2188 31.0364C19.2233 31.1743 19.2544 31.3032 19.3122 31.4278C19.3701 31.5523 19.4501 31.6591 19.548 31.7525C19.6458 31.8459 19.7615 31.917 19.8905 31.9615C20.0194 32.0104 20.1529 32.0282 20.2863 32.0238C20.4242 32.0193 20.5532 31.9882 20.6777 31.9304C20.8022 31.8725 20.909 31.7969 21.0024 31.6946L23.7377 28.7413L25.4101 30.2714L20.9935 35.0393C20.9001 35.1416 20.8289 35.2528 20.7845 35.3818C20.7355 35.5108 20.7177 35.6442 20.7222 35.7777C20.7266 35.9155 20.7578 36.0445 20.8156 36.1691C20.8734 36.2936 20.9535 36.4003 21.0513 36.4938C21.1536 36.5872 21.2648 36.6583 21.3938 36.7028C21.5228 36.7473 21.6562 36.7695 21.7896 36.7651C21.9275 36.7606 22.0565 36.7295 22.181 36.6717C22.3056 36.6138 22.4123 36.5382 22.5057 36.4359L26.9312 31.6591L28.4524 33.0468L26.0372 35.9422C25.9483 36.049 25.886 36.1646 25.846 36.2936C25.8059 36.4226 25.7926 36.556 25.8059 36.6939C25.8193 36.8318 25.8549 36.9563 25.9216 37.0809C25.9839 37.2009 26.0684 37.3077 26.1751 37.3922C26.2819 37.4767 26.3975 37.5434 26.5265 37.5834C26.6555 37.6235 26.7889 37.6368 26.9268 37.6279C27.0647 37.6146 27.1892 37.579 27.3137 37.5167C27.4338 37.4545 27.5406 37.37 27.6251 37.2632L29.9779 34.4389L30.1692 34.6124C31.0365 34.2343 31.8638 33.8429 32.6555 33.4426L32.0016 37.4678C31.975 37.6413 31.9883 37.8103 32.0461 37.9748C32.1039 38.1394 32.1973 38.2817 32.3263 38.3974L32.3085 38.4018Z" fill="white"/>
<path d="M39.1533 19.9616C39.0599 20.0595 38.962 20.1484 38.8508 20.2285C38.7396 20.3086 38.624 20.3753 38.5039 20.4331C38.3838 20.4909 38.2548 20.5354 38.1214 20.5665C37.988 20.5977 37.8545 20.6155 37.7211 20.6199C37.5877 20.6244 37.4498 20.6199 37.3164 20.5977C37.1829 20.5754 37.054 20.5443 36.925 20.4954C36.796 20.4464 36.6759 20.3886 36.5603 20.3175C36.4446 20.2463 36.3379 20.1662 36.24 20.0728C36.1422 19.9794 36.0532 19.8816 35.9732 19.7704C35.8931 19.6592 35.8264 19.5436 35.7686 19.4235C35.7107 19.2989 35.6663 19.1744 35.6351 19.041C35.604 18.9075 35.5862 18.7741 35.5818 18.6407C35.5773 18.5072 35.5818 18.3694 35.604 18.2359C35.6262 18.1025 35.6574 17.9735 35.7063 17.8445C35.7552 17.7155 35.813 17.5954 35.8842 17.4798C35.9554 17.3642 36.0354 17.2574 36.1288 17.1596C36.2222 17.0617 36.3201 16.9728 36.4313 16.8927C36.5425 16.8126 36.6581 16.7459 36.7782 16.6881C36.9027 16.6303 37.0273 16.5858 37.1607 16.5547C37.2941 16.5235 37.4276 16.5058 37.561 16.5013C37.6944 16.4969 37.8323 16.5013 37.9657 16.5235C38.0992 16.5458 38.2282 16.5769 38.3571 16.6258C38.4861 16.6748 38.6062 16.7326 38.7219 16.8037C38.8375 16.8749 38.9442 16.955 39.0421 17.0484C39.1399 17.1418 39.2333 17.2396 39.3134 17.3508C39.3935 17.462 39.4602 17.5777 39.518 17.6977C39.5758 17.8223 39.6203 17.9468 39.6514 18.0803C39.6826 18.2137 39.7004 18.3471 39.7048 18.4805C39.7093 18.614 39.7048 18.7519 39.6826 18.8853C39.6603 19.0187 39.6247 19.1477 39.5803 19.2767C39.5313 19.4057 39.4735 19.5258 39.4024 19.6414C39.3312 19.757 39.2511 19.8638 39.1577 19.9616H39.1533ZM41.7641 18.4005C41.7552 18.1381 41.7196 17.8757 41.6574 17.6177C41.5951 17.3597 41.515 17.1106 41.4038 16.8705C41.2971 16.6303 41.1637 16.399 41.0124 16.1855C40.8612 15.9676 40.6878 15.7719 40.501 15.5851C40.3097 15.4027 40.1051 15.2381 39.8827 15.0958C39.6603 14.9535 39.429 14.829 39.1844 14.7311C38.9398 14.6333 38.6863 14.5576 38.4283 14.5087C38.1703 14.4598 37.9079 14.4331 37.6411 14.4331C37.3697 14.4331 37.0984 14.4598 36.8316 14.5132C36.5647 14.5665 36.3023 14.6466 36.0532 14.7533C35.7997 14.8601 35.564 14.9891 35.3371 15.1403C35.1103 15.2915 34.9013 15.465 34.71 15.6607C34.5187 15.8564 34.3453 16.0654 34.1985 16.2923C34.0517 16.5191 33.9227 16.7593 33.8205 17.0128C33.7182 17.2663 33.6425 17.5287 33.5936 17.7956C33.5447 18.0625 33.518 18.3338 33.5225 18.6095C33.5269 18.8853 33.558 19.1522 33.6114 19.419C33.6692 19.6859 33.7493 19.9439 33.8605 20.1974C33.9672 20.4464 34.1007 20.6866 34.2563 20.909C34.412 21.1314 34.5899 21.3404 34.7856 21.5317C34.9813 21.7229 35.1948 21.8875 35.4261 22.0343C35.6574 22.1811 35.8975 22.3056 36.1511 22.4035C36.4046 22.5013 36.667 22.5769 36.9383 22.6214C37.2052 22.6703 37.4765 22.6881 37.7522 22.6792C38.0236 22.6703 38.2949 22.6392 38.5617 22.5769C38.8286 22.5146 39.0866 22.4301 39.3356 22.3189C39.5847 22.2078 39.8204 22.0743 40.0428 21.9142C40.2652 21.7541 40.4698 21.5762 40.6566 21.376C40.8434 21.1759 41.008 20.9624 41.1548 20.7311C41.2971 20.4998 41.4172 20.2552 41.515 19.9972C41.6084 19.7393 41.6796 19.4768 41.7241 19.21C41.7686 18.9387 41.7819 18.6674 41.773 18.396L41.7641 18.4005Z" fill="white"/>
<path d="M31.1519 23.5061C31.0541 23.4082 30.9429 23.337 30.8183 23.2837C30.6938 23.2303 30.5604 23.2036 30.4225 23.2036C30.2846 23.2036 30.1556 23.2303 30.0267 23.2837C29.9021 23.337 29.7909 23.4082 29.6931 23.5061C29.5952 23.6039 29.5241 23.7151 29.4707 23.8396C29.4173 23.9642 29.3906 24.0976 29.3906 24.2355C29.3906 24.3734 29.4173 24.5024 29.4707 24.6313C29.5241 24.7559 29.5952 24.8671 29.6931 24.9649L31.7568 27.0287C31.8547 27.1265 31.9659 27.1977 32.0904 27.2511C32.2149 27.3044 32.3484 27.3311 32.4863 27.3311C32.6241 27.3311 32.7531 27.3044 32.8821 27.2511C33.0066 27.1977 33.1178 27.1221 33.2157 27.0287C33.3135 26.9308 33.3847 26.8196 33.4381 26.6951C33.4914 26.5706 33.5181 26.4371 33.5181 26.2992C33.5181 26.1614 33.4914 26.0324 33.4381 25.9034C33.3847 25.7744 33.3135 25.6677 33.2157 25.5698L31.1519 23.5061Z" fill="white"/>
<path d="M65.9822 0.840569C65.9822 0.840569 65.9733 0.796092 65.9644 0.778301C65.9555 0.738271 65.9422 0.698242 65.9288 0.66266C65.9199 0.640421 65.911 0.618183 65.8977 0.591496C65.8799 0.555914 65.8621 0.52478 65.8443 0.493646C65.831 0.471407 65.8176 0.453616 65.8043 0.431378C65.7821 0.400243 65.7554 0.369109 65.7287 0.342423C65.7109 0.324632 65.6976 0.306841 65.6798 0.28905C65.6531 0.262363 65.6219 0.235677 65.5908 0.213438C65.573 0.200095 65.5552 0.182304 65.533 0.168961C65.5285 0.168961 65.5241 0.160065 65.5196 0.160065C65.4885 0.142274 65.4529 0.124483 65.4174 0.106693C65.3996 0.0977971 65.3818 0.0889016 65.364 0.0800061C65.3062 0.0577674 65.2439 0.0355287 65.1861 0.0221855C65.1727 0.0221855 65.1549 0.0221855 65.1416 0.0177377C65.0927 0.00884227 65.0437 0.00439453 64.9948 0.00439453C64.9859 0.00439453 64.9815 0.00439453 64.9726 0.00439453C64.9592 0.00439453 64.9459 0.00439453 64.9325 0.00439453C64.8881 0.00439453 64.848 0.00884227 64.8036 0.0177377C64.7813 0.0177377 64.7591 0.0266332 64.7324 0.031081C64.6924 0.0399764 64.6568 0.0533197 64.6168 0.0666629C64.5945 0.0755584 64.5723 0.0800061 64.55 0.0933493C64.51 0.11114 64.4744 0.133379 64.4344 0.155618C64.4166 0.164513 64.3988 0.173409 64.3855 0.182304C64.3365 0.217886 64.2876 0.253468 64.2476 0.297945H64.2387L58.0519 6.4892C57.954 6.58705 57.8829 6.69824 57.8295 6.82278C57.7761 6.94732 57.7494 7.08075 57.7494 7.21863C57.7494 7.35651 57.7761 7.48549 57.8295 7.61448C57.8829 7.73901 57.9585 7.85021 58.0519 7.94806C58.1497 8.04591 58.2609 8.11707 58.3855 8.17044C58.51 8.22382 58.6434 8.2505 58.7813 8.2505C58.9192 8.2505 59.0482 8.22382 59.1772 8.17044C59.3017 8.11707 59.4129 8.04591 59.5107 7.94806L62.3217 5.13709C53.2127 27.6871 37.748 42.1956 26.0193 50.5485C12.467 60.2001 0.840623 63.9451 0.720534 63.9807C0.59155 64.0207 0.471461 64.0874 0.369163 64.1719C0.262417 64.2609 0.17791 64.3632 0.115641 64.4877C0.0533731 64.6078 0.0133435 64.7368 0.00444801 64.8747C-0.0088952 65.0126 0.00444801 65.146 0.0489254 65.275C0.0889551 65.404 0.155671 65.524 0.244626 65.6263C0.333581 65.7331 0.435879 65.8131 0.560415 65.8799C0.680504 65.9421 0.809489 65.9822 0.947369 65.9911C1.08525 66.0044 1.21868 65.9911 1.34767 65.9466C1.83247 65.7954 13.3477 62.0904 27.1579 52.2698C39.0111 43.8413 54.6004 29.2483 63.9407 6.61818V9.81611C63.9407 9.95399 63.9674 10.083 64.0208 10.212C64.0741 10.3409 64.1497 10.4477 64.2431 10.5455C64.341 10.6434 64.4522 10.7146 64.5767 10.7679C64.7013 10.8213 64.8347 10.848 64.9726 10.848C65.1105 10.848 65.2394 10.8213 65.3684 10.7679C65.4974 10.7146 65.6042 10.6389 65.702 10.5455C65.7999 10.4477 65.8755 10.3365 65.9244 10.212C65.9778 10.0874 66.0044 9.95399 66.0044 9.81611V1.03182C66.0044 0.965106 65.9956 0.902838 65.9867 0.840569H65.9822Z" fill="white"/>
<path d="M60.3289 63.936H52.7633V35.2392C55.5164 31.8145 58.0383 28.2251 60.3289 24.4757V63.9316V63.936ZM44.8597 63.936H37.2941V50.8641C39.9182 48.7025 42.449 46.4031 44.8597 44.0102V63.936ZM29.3904 63.936H21.8248V61.6321C24.4045 60.1332 26.9353 58.5231 29.3904 56.833V63.936ZM62.3749 20.535C62.3704 20.5039 62.366 20.4727 62.3571 20.4372C62.3482 20.406 62.3393 20.3749 62.3259 20.3438C62.317 20.3126 62.3037 20.2815 62.2904 20.2503C62.277 20.2192 62.2592 20.1925 62.2459 20.1658C62.2281 20.1392 62.2103 20.108 62.1925 20.0813C62.1747 20.0546 62.1525 20.028 62.1302 20.0057C62.108 19.979 62.0858 19.9568 62.0635 19.9346C62.0413 19.9123 62.0146 19.8945 61.9879 19.8723C61.9568 19.8501 61.9301 19.8278 61.8945 19.81C61.8812 19.8011 61.8723 19.7922 61.8634 19.7878C61.85 19.7789 61.8322 19.7744 61.8144 19.7655C61.7789 19.7478 61.7477 19.7344 61.7121 19.7211C61.681 19.7077 61.6499 19.6988 61.6187 19.6899C61.5876 19.681 61.5565 19.6766 61.5253 19.6677C61.4898 19.6632 61.4497 19.6588 61.4142 19.6543C61.3964 19.6543 61.383 19.6499 61.3652 19.6499C61.3519 19.6499 61.3385 19.6499 61.3252 19.6499C61.2852 19.6499 61.2496 19.6543 61.2095 19.6632C61.1784 19.6677 61.1473 19.6721 61.1206 19.681C61.085 19.6899 61.0539 19.6988 61.0227 19.7122C60.9916 19.7211 60.9605 19.7344 60.9338 19.7478C60.9027 19.7611 60.8715 19.7789 60.8448 19.7967C60.8182 19.8145 60.7915 19.8278 60.7648 19.8456C60.7381 19.8678 60.7114 19.8901 60.6847 19.9123C60.6625 19.9346 60.6358 19.9568 60.6136 19.979C60.5913 20.0013 60.5735 20.028 60.5513 20.0546C60.529 20.0858 60.5068 20.1125 60.489 20.1436C60.4801 20.1569 60.4712 20.1658 60.4668 20.1747C57.6869 25.1295 54.5113 29.813 50.9397 34.2296C49.0984 36.5024 47.1547 38.7085 45.1577 40.7856C42.1554 43.9123 38.9797 46.8434 35.6217 49.5876C33.7581 51.1177 31.81 52.6076 29.8352 54.0176C26.7752 56.2059 23.5683 58.2696 20.2948 60.151C20.2859 60.1555 20.277 60.1644 20.2681 60.1733C20.237 60.191 20.2058 60.2133 20.1792 60.2355C20.1525 60.2533 20.1258 60.2756 20.1035 60.2978C20.0813 60.32 20.0591 60.3467 20.0368 60.369C20.0146 60.3956 19.9924 60.4179 19.9701 60.449C19.9523 60.4757 19.9345 60.5024 19.9212 60.5335C19.9034 60.5647 19.8856 60.5913 19.8723 60.6225C19.8589 60.6536 19.85 60.6847 19.8367 60.7159C19.8278 60.747 19.8144 60.7781 19.8055 60.8137C19.7967 60.8449 19.7922 60.876 19.7878 60.9071C19.7833 60.9427 19.7789 60.9827 19.7744 61.0183C19.7744 61.0317 19.7744 61.0406 19.7744 61.0539V64.9768C19.7744 65.1147 19.8011 65.2437 19.8545 65.3727C19.9078 65.4972 19.9835 65.6084 20.0769 65.7062C20.1747 65.8041 20.2859 65.8753 20.4104 65.9286C20.535 65.982 20.6684 66.0087 20.8063 66.0087H30.4312C30.5691 66.0087 30.6981 65.982 30.827 65.9286C30.9516 65.8753 31.0628 65.7996 31.1606 65.7062C31.2585 65.6084 31.3296 65.4972 31.383 65.3727C31.4364 65.2481 31.4631 65.1147 31.4631 64.9768V55.3919C32.7396 54.4713 34.0072 53.5194 35.2437 52.5454V64.9768C35.2437 65.1147 35.2703 65.2437 35.3237 65.3727C35.3771 65.4972 35.4527 65.6084 35.5461 65.7062C35.6439 65.8041 35.7551 65.8753 35.8797 65.9286C36.0042 65.982 36.1376 66.0087 36.2755 66.0087H45.9004C46.0383 66.0087 46.1673 65.982 46.2963 65.9286C46.4253 65.8753 46.532 65.7996 46.6299 65.7062C46.7277 65.6084 46.7989 65.4972 46.8522 65.3727C46.9056 65.2481 46.9323 65.1147 46.9323 64.9768V41.9197C48.2177 40.5721 49.4853 39.171 50.7129 37.7344V64.9768C50.7129 65.1147 50.7396 65.2437 50.7929 65.3727C50.8463 65.4972 50.9219 65.6084 51.0153 65.7062C51.1132 65.8041 51.2244 65.8753 51.3489 65.9286C51.4734 65.982 51.6069 66.0087 51.7448 66.0087H61.3697C61.5075 66.0087 61.6365 65.982 61.7655 65.9286C61.8945 65.8753 62.0012 65.7996 62.0991 65.7062C62.1969 65.6128 62.2681 65.4972 62.3215 65.3727C62.3749 65.2481 62.4015 65.1147 62.4015 64.9768V20.6818C62.4015 20.6818 62.4015 20.6551 62.4015 20.6417C62.4015 20.6062 62.3971 20.5706 62.3927 20.535H62.3749Z" fill="white"/>
</g>
<defs>
<clipPath id="clip0_1633_1627">
<rect width="66" height="66" fill="white"/>
</clipPath>
</defs>
</svg>
